{
.appVersion = "1075";
copyright = "Copyright © 2017 by Wonder Unit. All rights reserved.";
customParameters = (
{
name = vendorID;
value = WOND;
},
{
name = note;
value = "Hi Friends!";
},
{
name = isFixedPitch;
value = 0;
}
);
date = "2017-11-11 22:21:52 +0000";
designer = "Charles Forman";
designerURL = "https://wonderunit.com";
disablesNiceNames = 1;
familyName = "Wonder Unit Sans";
featurePrefixes = (
{
automatic = 1;
code = "languagesystem DFLT dflt;\012languagesystem latn dflt;\012languagesystem latn ROM;\012languagesystem latn MOL;\012languagesystem latn KAZ;\012languagesystem latn TAT;\012languagesystem latn TRK;\012languagesystem latn CRT;\012languagesystem latn AZE;\012";
name = Languagesystems;
}
);
features = (
{
automatic = 1;
code = "feature ccmp;\012feature locl;\012feature case;\012feature calt;\012";
name = aalt;
},
{
automatic = 1;
code = "lookup ccmp_Other_1 {\012	@CombiningTopAccents = [acutecomb brevecomb circumflexcomb dieresiscomb dotaccentcomb gravecomb macroncomb ringcomb tildecomb];\012	@CombiningNonTopAccents = [commaaccent ogonekcomb slashlongcomb slashshortcomb strokeshortcomb];\012	sub [i]' @CombiningTopAccents by [idotless];\012	sub [i]' @CombiningNonTopAccents @CombiningTopAccents by [idotless];\012} ccmp_Other_1;\012";
name = ccmp;
},
{
automatic = 1;
code = "script latn;\012language ROM;\012sub Scedilla by Scommaaccent;\012sub scedilla by scommaaccent;\012sub Tcedilla by Tcommaaccent;\012sub tcedilla by tcommaaccent;\012language MOL;\012sub Scedilla by Scommaaccent;\012sub scedilla by scommaaccent;\012sub Tcedilla by Tcommaaccent;\012sub tcedilla by tcommaaccent;\012language KAZ;\012sub i by idotaccent;\012language TAT;\012sub i by idotaccent;\012language TRK;\012sub i by idotaccent;\012language CRT;\012sub i by idotaccent;\012language AZE;\012sub i by idotaccent;\012";
name = locl;
},
{
automatic = 1;

glyphs = (
{
glyphname = A;
lastChange = "2017-11-15 00:39:04 +0000";
layers = (
{
anchors = (
{
name = bottom;
position = "{318, 0}";
},
{
name = ogonek;
position = "{572, 10}";
},
{
name = top;
position = "{318, 667}";
}
);
layerId = "C74BD54B-DC3B-4084-AB10-E48D432FD11D";
paths = (
{
closed = 1;
nodes = (
"21 0 LINE",
"58 0 LINE",
"132 179 LINE",
"504 179 LINE",
"578 0 LINE",
"615 0 LINE",
"337 667 LINE",
"299 667 LINE"
);
},
{
closed = 1;
nodes = (
"492 209 LINE",
"144 209 LINE",
"318 630 LINE"
);
}
);
width = 636;
},
{
anchors = (
{
name = bottom;
position = "{355, 0}";
},
{
name = ogonek;
position = "{639, 10}";
},
{
name = top;
position = "{355, 667}";
}
);
layerId = "043C55D1-ADA8-4506-BB55-8127E14D1A36";
paths = (
{
closed = 1;
nodes = (
"-18 0 LINE",
"211 0 LINE",
"235 78 LINE",
"475 78 LINE",
"499 0 LINE",
"728 0 LINE",
"482 667 LINE",
"228 667 LINE"
);
},
{
closed = 1;
nodes = (
"421 254 LINE",
"289 254 LINE",
"355 469 LINE"
);
}
);
width = 710;
},
{
anchors = (
{
name = bottom;
position = "{267, 0}";
},
{
name = ogonek;
position = "{523, 10}";
},
{
name = top;
position = "{408, 667}";
}
);
layerId = "A3F0DF3F-6E5C-40C3-B5F9-213A49682D58";
paths = (
{
closed = 1;
nodes = (
"-30 0 LINE",
"7 0 LINE",
"119 179 LINE",
"491 179 LINE",
"527 0 LINE",
"564 0 LINE",
"427 667 LINE",
"389 667 LINE"
);
},
{
closed = 1;
nodes = (
"485 209 LINE",
"137 209 LINE",
"401 630 LINE"
);
}
);
width = 636;
},
{
anchors = (
{
name = bottom;
position = "{304, 0}";
},
{
name = ogonek;
position = "{590, 10}";
},
{
name = top;
position = "{445, 667}";
}
);
layerId = "C7F6927E-AE81-4ED8-A250-E7EE5BA9BBA4";
paths = (
{
closed = 1;
nodes = (
"-69 0 LINE",
"160 0 LINE",
"200 78 LINE",
"440 78 LINE",
"448 0 LINE",
"677 0 LINE",
"572 667 LINE",
"318 667 LINE"
);
},
{
closed = 1;
nodes = (
"424 254 LINE",
"292 254 LINE",
"403 469 LINE"
);
}
);
width = 710;
}
);
leftKerningGroup = A;
note = A;
rightKerningGroup = C;
unicode = 0041;
},
{
glyphname = AE;
lastChange = "2017-11-11 22:13:35 +0000";
layers = (
{
anchors = (
{
name = bottom;
position = "{318, 0}";
},
{
name = ogonek;
position = "{572, 10}";
},
{
name = top;
position = "{318, 667}";
}
);
layerId = "C74BD54B-DC3B-4084-AB10-E48D432FD11D";
paths = (
{
closed = 1;
nodes = (
"21 0 LINE",
"58 0 LINE",
"132 179 LINE",
"327 179 LINE",
"327 0 LINE",
"339 0 LINE",
"337 667 LINE",
"299 667 LINE"
);
},
{
closed = 1;
nodes = (
"331 209 LINE",
"144 209 LINE",
"318 630 LINE"
);
},
{
closed = 1;
nodes = (
"320 0 LINE",
"655 0 LINE",
"655 30 LINE",
"352 30 LINE",
"352 328 LINE",
"630 328 LINE",
"630 358 LINE",
"352 358 LINE",
"352 637 LINE",
"655 637 LINE",
"655 667 LINE",
"320 667 LINE"
);
}
);
width = 720;
},
{
anchors = (
{
name = bottom;
position = "{355, 0}";
},
{
name = ogonek;
position = "{639, 10}";
},
{
name = top;
position = "{355, 667}";
}
);
layerId = "043C55D1-ADA8-4506-BB55-8127E14D1A36";
paths = (
{
closed = 1;
nodes = (
"-18 0 LINE",
"211 0 LINE",
"235 78 LINE",
"379 78 LINE",
"403 0 LINE",
"496 0 LINE",
"482 667 LINE",
"228 667 LINE"
);
},
{
closed = 1;
nodes = (
"369 254 LINE",
"289 254 LINE",
"355 469 LINE"
);
},
{
closed = 1;
nodes = (
"357 0 LINE",
"778 0 LINE",
"778 176 LINE",
"559 176 LINE",
"559 249 LINE",
"714 249 LINE",
"714 425 LINE",
"559 425 LINE",
"559 491 LINE",
"778 491 LINE",
"778 667 LINE",
"357 667 LINE"
);
}
);
width = 843;
},
{
anchors = (
{
name = bottom;
position = "{267, 0}";
},
{
name = ogonek;
position = "{523, 10}";
},
{
name = top;
position = "{408, 667}";
}
);
layerId = "A3F0DF3F-6E5C-40C3-B5F9-213A49682D58";
paths = (
{
closed = 1;
nodes = (
"-30 0 LINE",
"7 0 LINE",
"119 179 LINE",
"314 179 LINE",
"276 0 LINE",
"288 0 LINE",
"427 667 LINE",
"389 667 LINE"
);
},
{
closed = 1;
nodes = (
"324 209 LINE",
"137 209 LINE",
"401 630 LINE"
);
},
{
closed = 1;
nodes = (
"269 0 LINE",
"604 0 LINE",
"610 30 LINE",
"307 30 LINE",
"370 328 LINE",
"648 328 LINE",
"655 358 LINE",
"377 358 LINE",
"436 637 LINE",
"739 637 LINE",
"745 667 LINE",
"410 667 LINE"
);
}
);
width = 720;
},
{
anchors = (
{
name = bottom;
position = "{304, 0}";
},
{
name = ogonek;
position = "{590, 10}";
},
{
name = top;
position = "{445, 667}";
}
);
layerId = "C7F6927E-AE81-4ED8-A250-E7EE5BA9BBA4";
paths = (
{
closed = 1;
nodes = (
"-69 0 LINE",
"160 0 LINE",
"200 78 LINE",
"344 78 LINE",
"352 0 LINE",
"445 0 LINE",
"572 667 LINE",
"318 667 LINE"
);
},
{
closed = 1;
nodes = (
"372 254 LINE",
"292 254 LINE",
"403 469 LINE"
);
},
{
closed = 1;
nodes = (
"306 0 LINE",
"727 0 LINE",
"764 176 LINE",
"545 176 LINE",
"561 249 LINE",
"716 249 LINE",
"753 425 LINE",
"598 425 LINE",
"612 491 LINE",
"831 491 LINE",
"868 667 LINE",
"447 667 LINE"
);
}
);
width = 843;
},
{
anchors = (
{
name = bottom;
position = "{318, 0}";
},
{
name = ogonek;
position = "{572, 10}";
},
{
name = top;
position = "{318, 667}";
}
);
associatedMasterId = "C74BD54B-DC3B-4084-AB10-E48D432FD11D";
layerId = "C904C5FD-088D-4660-AED1-28B1A7BC3F9F";
paths = (
{
closed = 1;
nodes = (
"21 0 LINE",
"58 0 LINE",
"132 179 LINE",
"327 179 LINE",
"327 0 LINE",
"339 0 LINE",
"337 667 LINE",
"299 667 LINE"
);
},
{
closed = 1;
nodes = (
"331 209 LINE",
"144 209 LINE",
"318 630 LINE"
);
},
{
closed = 1;
nodes = (
"320 0 LINE",
"655 0 LINE",
"655 30 LINE",
"352 30 LINE",
"352 328 LINE",
"630 328 LINE",
"630 358 LINE",
"352 358 LINE",
"352 637 LINE",
"655 637 LINE",
"655 667 LINE",
"320 667 LINE"
);
}
);
width = 720;
}
);
leftKerningGroup = A;
note = A;
rightKerningGroup = A;
unicode = 00C6;
},
{
glyphname = B;
lastChange = "2017-11-11 22:13:35 +0000";
layers = (
{
layerId = "C74BD54B-DC3B-4084-AB10-E48D432FD11D";
paths = (
{
closed = 1;
nodes = (
"88 0 LINE",
"343 0 LINE SMOOTH",
"460 0 OFFCURVE",
"534 67 OFFCURVE",
"534 180 CURVE SMOOTH",
"534 257 OFFCURVE",
"474 333 OFFCURVE",
"403 344 CURVE",
"467 357 OFFCURVE",
"521 417 OFFCURVE",
"521 497 CURVE SMOOTH",
"521 605 OFFCURVE",
"448 667 OFFCURVE",
"339 667 CURVE SMOOTH",
"88 667 LINE"
);
},
{
closed = 1;
nodes = (
"339 637 LINE SMOOTH",
"432 637 OFFCURVE",
"486 577 OFFCURVE",
"486 497 CURVE SMOOTH",
"486 416 OFFCURVE",
"434 358 OFFCURVE",
"339 358 CURVE SMOOTH",
"120 358 LINE",
"120 637 LINE"
);
},
{
closed = 1;
nodes = (
"343 328 LINE SMOOTH",
"442 328 OFFCURVE",
"499 260 OFFCURVE",
"499 179 CURVE SMOOTH",
"499 87 OFFCURVE",
"440 30 OFFCURVE",
"343 30 CURVE SMOOTH",
"120 30 LINE",
"120 328 LINE"
);
}
);
width = 600;
},
{
layerId = "043C55D1-ADA8-4506-BB55-8127E14D1A36";
paths = (
{
closed = 1;
nodes = (
"54 0 LINE",
"473 0 LINE SMOOTH",
"607 0 OFFCURVE",
"670 88 OFFCURVE",
"670 181 CURVE SMOOTH",
"670 267 OFFCURVE",
"615 333 OFFCURVE",
"543 344 CURVE",
"608 358 OFFCURVE",
"657 414 OFFCURVE",
"657 497 CURVE SMOOTH",
"657 575 OFFCURVE",
"597 667 OFFCURVE",
"459 667 CURVE SMOOTH",
"54 667 LINE"
);
},
{
closed = 1;
nodes = (
"412 499 LINE SMOOTH",
"433 499 OFFCURVE",
"452 484 OFFCURVE",
"452 461 CURVE SMOOTH",
"452 437 OFFCURVE",
"433 421 OFFCURVE",
"412 421 CURVE SMOOTH",
"256 421 LINE",
"256 499 LINE"
);
},
{
closed = 1;
nodes = (
"418 253 LINE SMOOTH",
"447 253 OFFCURVE",
"465 234 OFFCURVE",
"465 210 CURVE SMOOTH",
"465 185 OFFCURVE",
"447 168 OFFCURVE",
"418 168 CURVE SMOOTH",
"256 168 LINE",
"256 253 LINE"
);
}
);
width = 697;
},
{
layerId = "A3F0DF3F-6E5C-40C3-B5F9-213A49682D58";
paths = (
{
closed = 1;
nodes = (
"37 0 LINE",
"292 0 LINE SMOOTH",
"409 0 OFFCURVE",
"497 67 OFFCURVE",
"521 180 CURVE SMOOTH",
"537 257 OFFCURVE",
"493 333 OFFCURVE",
"425 344 CURVE",
"492 357 OFFCURVE",
"558 417 OFFCURVE",
"575 497 CURVE SMOOTH",
"598 605 OFFCURVE",
"538 667 OFFCURVE",
"429 667 CURVE SMOOTH",
"178 667 LINE"
);
},
{
closed = 1;
nodes = (
"423 637 LINE SMOOTH",
"516 637 OFFCURVE",
"557 577 OFFCURVE",
"540 497 CURVE SMOOTH",
"523 416 OFFCURVE",
"459 358 OFFCURVE",
"364 358 CURVE SMOOTH",
"145 358 LINE",
"204 637 LINE"
);
},
{
closed = 1;
nodes = (
"361 328 LINE SMOOTH",
"460 328 OFFCURVE",
"503 260 OFFCURVE",
"486 179 CURVE SMOOTH",
"466 87 OFFCURVE",
"395 30 OFFCURVE",
"298 30 CURVE SMOOTH",
"75 30 LINE",
"138 328 LINE"
);
}
);
width = 600;
},
{
layerId = "C7F6927E-AE81-4ED8-A250-E7EE5BA9BBA4";
paths = (
{
closed = 1;
nodes = (
"3 0 LINE",
"422 0 LINE SMOOTH",
"556 0 OFFCURVE",
"637 88 OFFCURVE",
"657 181 CURVE SMOOTH",
"675 267 OFFCURVE",
"634 333 OFFCURVE",
"565 344 CURVE",
"633 358 OFFCURVE",
"694 414 OFFCURVE",
"711 497 CURVE SMOOTH",
"728 575 OFFCURVE",
"687 667 OFFCURVE",
"549 667 CURVE SMOOTH",
"144 667 LINE"
);
},
{
closed = 1;
nodes = (
"467 499 LINE SMOOTH",
"488 499 OFFCURVE",
"504 484 OFFCURVE",
"499 461 CURVE SMOOTH",
"494 437 OFFCURVE",
"471 421 OFFCURVE",
"450 421 CURVE SMOOTH",
"294 421 LINE",
"311 499 LINE"
);
},
{
closed = 1;
nodes = (
"420 253 LINE SMOOTH",
"449 253 OFFCURVE",
"463 234 OFFCURVE",
"458 210 CURVE SMOOTH",
"453 185 OFFCURVE",
"431 168 OFFCURVE",
"402 168 CURVE SMOOTH",
"240 168 LINE",
"258 253 LINE"
);
}
);
width = 697;
},
{
associatedMasterId = "C74BD54B-DC3B-4084-AB10-E48D432FD11D";
layerId = "C904C5FD-088D-4660-AED1-28B1A7BC3F9F";
paths = (
{
closed = 1;
nodes = (
"88 0 LINE",
"343 0 LINE SMOOTH",
"460 0 OFFCURVE",
"534 67 OFFCURVE",
"534 180 CURVE SMOOTH",
"534 257 OFFCURVE",
"474 333 OFFCURVE",
"403 344 CURVE",
"467 357 OFFCURVE",
"521 417 OFFCURVE",
"521 497 CURVE SMOOTH",
"521 605 OFFCURVE",
"448 667 OFFCURVE",
"339 667 CURVE SMOOTH",
"88 667 LINE"
);
},
{
closed = 1;
nodes = (
"339 637 LINE SMOOTH",
"432 637 OFFCURVE",
"486 577 OFFCURVE",
"486 497 CURVE SMOOTH",
"486 416 OFFCURVE",
"434 358 OFFCURVE",
"339 358 CURVE SMOOTH",
"120 358 LINE",
"120 637 LINE"
);
},
{
closed = 1;
nodes = (
"343 328 LINE SMOOTH",
"442 328 OFFCURVE",
"499 260 OFFCURVE",
"499 179 CURVE SMOOTH",
"499 87 OFFCURVE",
"440 30 OFFCURVE",
"343 30 CURVE SMOOTH",
"120 30 LINE",
"120 328 LINE"
);
}
);
width = 600;
}
);
leftKerningGroup = exclam;
note = B;
rightKerningGroup = B;
unicode = 0042;
},
{
glyphname = C;
lastChange = "2017-11-15 02:38:27 +0000";
layers = (
{
anchors = (
{
name = bottom;
position = "{307, 0}";
},
{
name = top;
position = "{306, 667}";
}
);
layerId = "C74BD54B-DC3B-4084-AB10-E48D432FD11D";
paths = (
{
closed = 1;
nodes = (
"432 -8 OFFCURVE",
"522 62 OFFCURVE",
"543 162 CURVE",
"512 170 LINE",
"495 82 OFFCURVE",
"418 22 OFFCURVE",
"306 22 CURVE SMOOTH",
"178 22 OFFCURVE",
"97 100 OFFCURVE",
"97 209 CURVE SMOOTH",
"97 448 LINE SMOOTH",
"97 565 OFFCURVE",
"177 643 OFFCURVE",
"306 643 CURVE SMOOTH",
"422 643 OFFCURVE",
"498 580 OFFCURVE",
"513 482 CURVE",
"544 492 LINE",
"525 601 OFFCURVE",
"436 672 OFFCURVE",
"306 672 CURVE SMOOTH",
"160 672 OFFCURVE",
"65 581 OFFCURVE",
"65 448 CURVE SMOOTH",
"65 209 LINE SMOOTH",
"65 84 OFFCURVE",
"161 -8 OFFCURVE",
"306 -8 CURVE SMOOTH"
);
}
);
width = 609;
},
{
anchors = (
{
name = bottom;
position = "{383, 0}";
},
{
name = top;
position = "{385, 667}";
}
);
layerId = "043C55D1-ADA8-4506-BB55-8127E14D1A36";
paths = (
{
closed = 1;
nodes = (
"560 -12 OFFCURVE",
"649 94 OFFCURVE",
"688 183 CURVE",
"514 263 LINE",
"497 211 OFFCURVE",
"445 166 OFFCURVE",
"385 166 CURVE SMOOTH",
"288 166 OFFCURVE",
"223 240 OFFCURVE",
"223 333 CURVE",
"223 339 LINE",
"226 429 OFFCURVE",
"290 500 OFFCURVE",
"385 500 CURVE SMOOTH",
"445 500 OFFCURVE",
"497 455 OFFCURVE",
"514 403 CURVE",
"688 484 LINE",
"648 576 OFFCURVE",
"560 678 OFFCURVE",
"385 678 CURVE SMOOTH",
"178 678 OFFCURVE",
"22 542 OFFCURVE",
"18 340 CURVE",
"18 333 LINE",
"18 128 OFFCURVE",
"176 -12 OFFCURVE",
"385 -12 CURVE SMOOTH"
);
}
);
width = 697;
},
{
anchors = (
{
name = bottom;
position = "{347, 0}";
},
{
name = top;
position = "{488, 667}";
}
);
layerId = "A3F0DF3F-6E5C-40C3-B5F9-213A49682D58";
paths = (
{
closed = 1;
nodes = (
"379 -8 OFFCURVE",
"484 62 OFFCURVE",
"526 162 CURVE",
"497 170 LINE",
"461 82 OFFCURVE",
"371 22 OFFCURVE",
"259 22 CURVE SMOOTH",
"131 22 OFFCURVE",
"67 100 OFFCURVE",
"90 209 CURVE SMOOTH",
"141 448 LINE SMOOTH",
"166 565 OFFCURVE",
"262 643 OFFCURVE",
"391 643 CURVE SMOOTH",
"507 643 OFFCURVE",
"570 580 OFFCURVE",
"564 482 CURVE",
"597 492 LINE",
"601 601 OFFCURVE",
"528 672 OFFCURVE",
"398 672 CURVE SMOOTH",
"252 672 OFFCURVE",
"137 581 OFFCURVE",
"109 448 CURVE SMOOTH",
"58 209 LINE SMOOTH",
"32 84 OFFCURVE",
"108 -8 OFFCURVE",
"253 -8 CURVE SMOOTH"
);
}
);
width = 609;
},
{
anchors = (
{
name = bottom;
position = "{332, 0}";
},
{
name = top;
position = "{475, 667}";
}
);
layerId = "C7F6927E-AE81-4ED8-A250-E7EE5BA9BBA4";
paths = (
{
closed = 1;
nodes = (
"506 -12 OFFCURVE",
"618 94 OFFCURVE",
"676 183 CURVE",
"519 263 LINE",
"491 211 OFFCURVE",
"429 166 OFFCURVE",
"369 166 CURVE SMOOTH",
"272 166 OFFCURVE",
"223 240 OFFCURVE",
"242 333 CURVE",
"244 339 LINE",
"266 429 OFFCURVE",
"345 500 OFFCURVE",
"440 500 CURVE SMOOTH",
"500 500 OFFCURVE",
"542 455 OFFCURVE",
"548 403 CURVE",
"740 484 LINE",
"719 576 OFFCURVE",
"653 678 OFFCURVE",
"478 678 CURVE SMOOTH",
"271 678 OFFCURVE",
"86 542 OFFCURVE",
"39 340 CURVE",
"37 333 LINE",
"-6 128 OFFCURVE",
"122 -12 OFFCURVE",
"331 -12 CURVE SMOOTH"
);
}
);
width = 697;
},
{
anchors = (
{
name = bottom;
position = "{398, 0}";
},
{
name = top;
position = "{398, 667}";
}
);
associatedMasterId = "C74BD54B-DC3B-4084-AB10-E48D432FD11D";
layerId = "C904C5FD-088D-4660-AED1-28B1A7BC3F9F";
paths = (
{
closed = 1;
nodes = (
"491 -12 OFFCURVE",
"568 23 OFFCURVE",
"631 94 CURVE",
"605 115 LINE",
"557 55 OFFCURVE",
"481 18 OFFCURVE",
"398 18 CURVE SMOOTH",
"229 18 OFFCURVE",
"100 149 OFFCURVE",
"100 333 CURVE SMOOTH",
"100 518 OFFCURVE",
"229 648 OFFCURVE",
"398 648 CURVE SMOOTH",
"481 648 OFFCURVE",
"557 611 OFFCURVE",
"605 551 CURVE",
"630 573 LINE",
"569 643 OFFCURVE",
"492 678 OFFCURVE",
"398 678 CURVE SMOOTH",
"210 678 OFFCURVE",
"65 534 OFFCURVE",
"65 333 CURVE SMOOTH",
"65 132 OFFCURVE",
"210 -12 OFFCURVE",
"398 -12 CURVE SMOOTH"
);
}
);
width = 667;
}
);
leftKerningGroup = Y;
note = C;
rightKerningGroup = C;
unicode = 0043;
},
{
glyphname = D;
lastChange = "2017-11-15 02:59:18 +0000";
layers = (
{
anchors = (
{
name = bottom;
position = "{302, 0}";
},
{
name = center;
position = "{302, 334}";
},
{
name = top;
position = "{302, 667}";
}
);
layerId = "C74BD54B-DC3B-4084-AB10-E48D432FD11D";
paths = (
{
closed = 1;
nodes = (
"88 0 LINE",
"316 0 LINE SMOOTH",
"455 0 OFFCURVE",
"544 84 OFFCURVE",
"544 229 CURVE SMOOTH",
"544 435 LINE SMOOTH",
"544 579 OFFCURVE",
"456 667 OFFCURVE",
"316 667 CURVE SMOOTH",
"88 667 LINE"
);
},
{
closed = 1;
nodes = (
"315 638 LINE SMOOTH",
"438 638 OFFCURVE",
"512 563 OFFCURVE",
"512 435 CURVE SMOOTH",
"512 229 LINE SMOOTH",
"512 101 OFFCURVE",
"438 30 OFFCURVE",
"315 30 CURVE SMOOTH",
"120 30 LINE",
"120 638 LINE"
);
}
);
width = 632;
},
{
anchors = (
{
name = bottom;
position = "{368, 0}";
},
{
name = center;
position = "{368, 334}";
},
{
name = top;
position = "{368, 667}";
}
);
hints = (
{
horizontal = 1;
origin = "{0, 0}";
target = "{1, 8}";
},
{
horizontal = 1;
origin = "{1, 9}";
target = "{0, 9}";
},
{
origin = "{0, 0}";
target = "{1, 8}";
},
{
origin = "{1, 4}";
target = "{0, 4}";
}
);
layerId = "043C55D1-ADA8-4506-BB55-8127E14D1A36";
paths = (
{
closed = 1;
nodes = (
"54 0 LINE",
"353 0 LINE SMOOTH",
"562 0 OFFCURVE",
"718 121 OFFCURVE",
"718 334 CURVE SMOOTH",
"718 345 LINE",
"713 551 OFFCURVE",
"558 667 OFFCURVE",
"352 667 CURVE SMOOTH",
"54 667 LINE"
);
},
{
closed = 1;
nodes = (
"353 491 LINE SMOOTH",
"456 491 OFFCURVE",
"508 430 OFFCURVE",
"513 346 CURVE",
"513 334 LINE SMOOTH",
"513 250 OFFCURVE",
"453 176 OFFCURVE",
"352 176 CURVE SMOOTH",
"256 176 LINE",
"256 491 LINE"
);
}
);
width = 736;
},
{
anchors = (
{
name = bottom;
position = "{251, 0}";
},
{
name = center;
position = "{322, 334}";
},
{
name = top;
position = "{392, 667}";
}
);
layerId = "A3F0DF3F-6E5C-40C3-B5F9-213A49682D58";
paths = (
{
closed = 1;
nodes = (
"37 0 LINE",
"265 0 LINE SMOOTH",
"404 0 OFFCURVE",
"511 84 OFFCURVE",
"541 229 CURVE SMOOTH",
"585 435 LINE SMOOTH",
"616 579 OFFCURVE",
"546 667 OFFCURVE",
"406 667 CURVE SMOOTH",
"178 667 LINE"
);
},
{
closed = 1;
nodes = (
"399 638 LINE SMOOTH",
"522 638 OFFCURVE",
"580 563 OFFCURVE",
"553 435 CURVE SMOOTH",
"509 229 LINE SMOOTH",
"482 101 OFFCURVE",
"393 30 OFFCURVE",
"270 30 CURVE SMOOTH",
"75 30 LINE",
"204 638 LINE"
);
}
);
width = 604;
},
{
anchors = (
{
name = bottom;
position = "{317, 0}";
},
{
name = center;
position = "{388, 334}";
},
{
name = top;
position = "{458, 667}";
}
);
hints = (
{
horizontal = 1;
origin = "{0, 0}";
target = "{1, 8}";
},
{
horizontal = 1;
origin = "{1, 9}";
target = "{0, 9}";
},
{
origin = "{0, 0}";
target = "{1, 8}";
},
{
origin = "{1, 4}";
target = "{0, 4}";
}
);
layerId = "C7F6927E-AE81-4ED8-A250-E7EE5BA9BBA4";
paths = (
{
closed = 1;
nodes = (
"3 0 LINE",
"302 0 LINE SMOOTH",
"511 0 OFFCURVE",
"692 121 OFFCURVE",
"738 334 CURVE SMOOTH",
"740 345 LINE",
"779 551 OFFCURVE",
"648 667 OFFCURVE",
"442 667 CURVE SMOOTH",
"144 667 LINE"
);
},
{
closed = 1;
nodes = (
"406 491 LINE SMOOTH",
"509 491 OFFCURVE",
"548 430 OFFCURVE",
"535 346 CURVE",
"533 334 LINE SMOOTH",
"515 250 OFFCURVE",
"439 176 OFFCURVE",
"338 176 CURVE SMOOTH",
"242 176 LINE",
"309 491 LINE"
);
}
);
width = 736;
},
{
anchors = (
{
name = bottom;
position = "{302, 0}";
},
{
name = center;
position = "{302, 334}";
},
{
name = top;
position = "{302, 667}";
}
);
associatedMasterId = "C74BD54B-DC3B-4084-AB10-E48D432FD11D";
layerId = "C904C5FD-088D-4660-AED1-28B1A7BC3F9F";
paths = (
{
closed = 1;
nodes = (
"88 0 LINE",
"316 0 LINE SMOOTH",
"455 0 OFFCURVE",
"544 84 OFFCURVE",
"544 229 CURVE SMOOTH",
"544 435 LINE SMOOTH",
"544 579 OFFCURVE",
"456 667 OFFCURVE",
"316 667 CURVE SMOOTH",
"88 667 LINE"
);
},
{
closed = 1;
nodes = (
"315 638 LINE SMOOTH",
"438 638 OFFCURVE",
"512 563 OFFCURVE",
"512 435 CURVE SMOOTH",
"512 229 LINE SMOOTH",
"512 101 OFFCURVE",
"438 30 OFFCURVE",
"315 30 CURVE SMOOTH",
"120 30 LINE",
"120 638 LINE"
);
}
);
width = 604;
}
);
leftKerningGroup = exclam;
note = D;
rightKerningGroup = D;
unicode = 0044;
},
{
glyphname = E;
lastChange = "2017-11-11 22:13:35 +0000";
layers = (
{
anchors = (
{
name = bottom;
position = "{279, 0}";
},
{
name = ogonek;
position = "{459, 0}";
},
{
name = top;
position = "{299, 667}";
},
{
name = topleft;
position = "{20, 667}";
}
);
layerId = "C74BD54B-DC3B-4084-AB10-E48D432FD11D";
paths = (
{
closed = 1;
nodes = (
"88 0 LINE",
"496 0 LINE",
"496 30 LINE",
"120 30 LINE",
"120 328 LINE",
"471 328 LINE",
"471 358 LINE",
"120 358 LINE",
"120 637 LINE",
"496 637 LINE",
"496 667 LINE",
"88 667 LINE"
);
}
);
width = 558;
},
{
anchors = (
{
name = bottom;
position = "{298, 0}";
},
{
name = ogonek;
position = "{496, 0}";
},
{
name = top;
position = "{307, 667}";
},
{
name = topleft;
position = "{20, 667}";
}
);
layerId = "043C55D1-ADA8-4506-BB55-8127E14D1A36";
paths = (
{
closed = 1;
nodes = (
"54 0 LINE",
"560 0 LINE",
"560 176 LINE",
"256 176 LINE",
"256 249 LINE",
"496 249 LINE",
"496 425 LINE",
"256 425 LINE",
"256 491 LINE",
"560 491 LINE",
"560 667 LINE",
"54 667 LINE"
);
}
);
width = 596;
},
{
anchors = (
{
name = bottom;
position = "{228, 0}";
},
{
name = ogonek;
position = "{408, 0}";
},
{
name = top;
position = "{389, 667}";
},
{
name = topleft;
position = "{110, 667}";
}
);
layerId = "A3F0DF3F-6E5C-40C3-B5F9-213A49682D58";
paths = (
{
closed = 1;
nodes = (
"37 0 LINE",
"445 0 LINE",
"451 30 LINE",
"75 30 LINE",
"138 328 LINE",
"489 328 LINE",
"496 358 LINE",
"145 358 LINE",
"204 637 LINE",
"580 637 LINE",
"586 667 LINE",
"178 667 LINE"
);
}
);
width = 558;
},
{
anchors = (
{
name = bottom;
position = "{247, 0}";
},
{
name = ogonek;
position = "{445, 0}";
},
{
name = top;
position = "{397, 667}";
},
{
name = topleft;
position = "{110, 667}";
}
);
layerId = "C7F6927E-AE81-4ED8-A250-E7EE5BA9BBA4";
paths = (
{
closed = 1;
nodes = (
"3 0 LINE",
"509 0 LINE",
"546 176 LINE",
"242 176 LINE",
"258 249 LINE",
"498 249 LINE",
"535 425 LINE",
"295 425 LINE",
"309 491 LINE",
"613 491 LINE",
"650 667 LINE",
"144 667 LINE"
);
}
);
width = 596;
},
{
anchors = (
{
name = bottom;
position = "{279, 0}";
},
{
name = ogonek;
position = "{459, 0}";
},
{
name = top;
position = "{299, 667}";
},
{
name = topleft;
position = "{20, 667}";
}
);
associatedMasterId = "C74BD54B-DC3B-4084-AB10-E48D432FD11D";
layerId = "C904C5FD-088D-4660-AED1-28B1A7BC3F9F";
paths = (
{
closed = 1;
nodes = (
"88 0 LINE",
"496 0 LINE",
"496 30 LINE",
"120 30 LINE",
"120 328 LINE",
"471 328 LINE",
"471 358 LINE",
"120 358 LINE",
"120 637 LINE",
"496 637 LINE",
"496 667 LINE",
"88 667 LINE"
);
}
);
width = 558;
}
);
leftKerningGroup = exclam;
note = E;
unicode = 0045;
},
{
glyphname = F;
lastChange = "2017-11-15 02:54:22 +0000";
layers = (
{
layerId = "C74BD54B-DC3B-4084-AB10-E48D432FD11D";
paths = (
{
closed = 1;
nodes = (
"88 0 LINE",
"120 0 LINE",
"120 328 LINE",
"471 328 LINE",
"471 358 LINE",
"120 358 LINE",
"120 637 LINE",
"496 637 LINE",
"496 667 LINE",
"88 667 LINE"
);
}
);
width = 533;
},
{
layerId = "043C55D1-ADA8-4506-BB55-8127E14D1A36";
paths = (
{
closed = 1;
nodes = (
"54 0 LINE",
"256 0 LINE",
"256 249 LINE",
"497 249 LINE",
"497 425 LINE",
"256 425 LINE",
"256 491 LINE",
"560 491 LINE",
"560 667 LINE",
"54 667 LINE"
);
}
);
width = 592;
},
{
layerId = "A3F0DF3F-6E5C-40C3-B5F9-213A49682D58";
paths = (
{
closed = 1;
nodes = (
"37 0 LINE",
"69 0 LINE",
"138 328 LINE",
"489 328 LINE",
"496 358 LINE",
"145 358 LINE",
"204 637 LINE",
"580 637 LINE",
"586 667 LINE",
"178 667 LINE"
);
}
);
width = 533;
},
{
layerId = "C7F6927E-AE81-4ED8-A250-E7EE5BA9BBA4";
paths = (
{
closed = 1;
nodes = (
"3 0 LINE",
"205 0 LINE",
"258 249 LINE",
"499 249 LINE",
"536 425 LINE",
"295 425 LINE",
"309 491 LINE",
"613 491 LINE",
"650 667 LINE",
"144 667 LINE"
);
}
);
width = 592;
},
{
associatedMasterId = "C74BD54B-DC3B-4084-AB10-E48D432FD11D";
layerId = "C904C5FD-088D-4660-AED1-28B1A7BC3F9F";
paths = (
{
closed = 1;
nodes = (
"88 0 LINE",
"120 0 LINE",
"120 328 LINE",
"471 328 LINE",
"471 358 LINE",
"120 358 LINE",
"120 637 LINE",
"496 637 LINE",
"496 667 LINE",
"88 667 LINE"
);
}
);
width = 533;
}
);
leftKerningGroup = exclam;
note = F;
rightKerningGroup = o;
unicode = 0046;
},
{
glyphname = G;
lastChange = "2017-11-16 19:26:01 +0000";
layers = (
{
anchors = (
{
name = bottom;
position = "{306, 0}";
},
{
name = top;
position = "{306, 667}";
}
);
layerId = "C74BD54B-DC3B-4084-AB10-E48D432FD11D";
paths = (
{
closed = 1;
nodes = (
"451 -7 OFFCURVE",
"547 85 OFFCURVE",
"547 210 CURVE",
"547 323 LINE",
"310 323 LINE",
"310 293 LINE",
"515 293 LINE",
"515 210 LINE",
"515 101 OFFCURVE",
"434 23 OFFCURVE",
"306 23 CURVE",
"178 23 OFFCURVE",
"97 101 OFFCURVE",
"97 210 CURVE",
"97 449 LINE",
"97 566 OFFCURVE",
"177 644 OFFCURVE",
"306 644 CURVE",
"422 644 OFFCURVE",
"498 581 OFFCURVE",
"512 483 CURVE",
"543 494 LINE",
"524 602 OFFCURVE",
"435 673 OFFCURVE",
"306 673 CURVE",
"160 673 OFFCURVE",
"65 582 OFFCURVE",
"65 449 CURVE",
"65 210 LINE",
"65 85 OFFCURVE",
"161 -7 OFFCURVE",
"306 -7 CURVE"
);
}
);
width = 612;
},
{
anchors = (
{
name = bottom;
position = "{385, 0}";
},
{
name = top;
position = "{385, 667}";
}
);
layerId = "043C55D1-ADA8-4506-BB55-8127E14D1A36";
paths = (
{
closed = 1;
nodes = (
"516 -12 OFFCURVE",
"616 41 OFFCURVE",
"690 123 CURVE",
"690 396 LINE",
"365 396 LINE",
"365 220 LINE",
"489 220 LINE",
"489 196 LINE",
"468 180 OFFCURVE",
"423 166 OFFCURVE",
"385 166 CURVE SMOOTH",
"288 166 OFFCURVE",
"223 240 OFFCURVE",
"223 333 CURVE",
"223 338 LINE",
"225 429 OFFCURVE",
"290 500 OFFCURVE",
"385 500 CURVE SMOOTH",
"445 500 OFFCURVE",
"489 458 OFFCURVE",
"508 417 CURVE",
"678 504 LINE",
"636 590 OFFCURVE",
"544 678 OFFCURVE",
"385 678 CURVE SMOOTH",
"185 678 OFFCURVE",
"21 549 OFFCURVE",
"18 338 CURVE",
"18 333 LINE",
"18 120 OFFCURVE",
"183 -12 OFFCURVE",
"385 -12 CURVE SMOOTH"
);
}
);
width = 726;
},
{
anchors = (
{
name = bottom;
position = "{346, 0}";
},
{
name = top;
position = "{488, 667}";
}
);
layerId = "A3F0DF3F-6E5C-40C3-B5F9-213A49682D58";
paths = (
{
closed = 1;
nodes = (
"398 -7 OFFCURVE",
"514 85 OFFCURVE",
"540 210 CURVE",
"564 323 LINE",
"337 323 LINE",
"331 293 LINE",
"526 293 LINE",
"508 210 LINE",
"485 101 OFFCURVE",
"388 23 OFFCURVE",
"260 23 CURVE",
"132 23 OFFCURVE",
"67 101 OFFCURVE",
"90 210 CURVE",
"141 449 LINE",
"166 566 OFFCURVE",
"263 644 OFFCURVE",
"392 644 CURVE",
"508 644 OFFCURVE",
"570 581 OFFCURVE",
"563 483 CURVE",
"597 494 LINE",
"601 602 OFFCURVE",
"527 673 OFFCURVE",
"398 673 CURVE",
"252 673 OFFCURVE",
"137 582 OFFCURVE",
"109 449 CURVE",
"58 210 LINE",
"32 85 OFFCURVE",
"108 -7 OFFCURVE",
"253 -7 CURVE"
);
}
);
width = 612;
},
{
anchors = (
{
name = bottom;
position = "{334, 0}";
},
{
name = top;
position = "{475, 667}";
}
);
layerId = "C7F6927E-AE81-4ED8-A250-E7EE5BA9BBA4";
paths = (
{
closed = 1;
nodes = (
"462 -12 OFFCURVE",
"573 41 OFFCURVE",
"665 123 CURVE",
"723 396 LINE",
"398 396 LINE",
"360 220 LINE",
"484 220 LINE",
"479 196 LINE",
"455 180 OFFCURVE",
"407 166 OFFCURVE",
"369 166 CURVE SMOOTH",
"272 166 OFFCURVE",
"223 240 OFFCURVE",
"242 333 CURVE",
"244 338 LINE",
"265 429 OFFCURVE",
"345 500 OFFCURVE",
"440 500 CURVE SMOOTH",
"500 500 OFFCURVE",
"535 458 OFFCURVE",
"545 417 CURVE",
"734 504 LINE",
"710 590 OFFCURVE",
"637 678 OFFCURVE",
"478 678 CURVE SMOOTH",
"278 678 OFFCURVE",
"86 549 OFFCURVE",
"39 338 CURVE",
"37 333 LINE",
"-8 120 OFFCURVE",
"129 -12 OFFCURVE",
"331 -12 CURVE SMOOTH"
);
}
);
width = 726;
},
{
anchors = (
{
name = bottom;
position = "{397, 0}";
},
{
name = top;
position = "{398, 667}";
}
);
associatedMasterId = "C74BD54B-DC3B-4084-AB10-E48D432FD11D";
layerId = "C904C5FD-088D-4660-AED1-28B1A7BC3F9F";
paths = (
{
closed = 1;
nodes = (
"495 -13 OFFCURVE",
"583 29 OFFCURVE",
"642 94 CURVE",
"642 320 LINE",
"335 320 LINE",
"335 290 LINE",
"610 290 LINE",
"610 107 LINE",
"563 58 OFFCURVE",
"487 17 OFFCURVE",
"398 17 CURVE SMOOTH",
"229 17 OFFCURVE",
"100 149 OFFCURVE",
"100 333 CURVE SMOOTH",
"100 518 OFFCURVE",
"229 648 OFFCURVE",
"398 648 CURVE SMOOTH",
"486 648 OFFCURVE",
"569 613 OFFCURVE",
"621 553 CURVE",
"642 575 LINE",
"575 644 OFFCURVE",
"494 678 OFFCURVE",
"398 678 CURVE SMOOTH",
"210 678 OFFCURVE",
"65 534 OFFCURVE",
"65 333 CURVE SMOOTH",
"65 130 OFFCURVE",
"210 -13 OFFCURVE",
"398 -13 CURVE SMOOTH"
);
}
);
width = 708;
}
);
leftKerningGroup = C;
note = G;
unicode = 0047;
},
{
glyphname = H;
lastChange = "2017-11-11 22:13:35 +0000";
layers = (
{
layerId = "C74BD54B-DC3B-4084-AB10-E48D432FD11D";
paths = (
{
closed = 1;
nodes = (
"88 0 LINE",
"120 0 LINE",
"120 328 LINE",
"575 328 LINE",
"575 0 LINE",
"607 0 LINE",
"607 667 LINE",
"575 667 LINE",
"575 358 LINE",
"120 358 LINE",
"120 667 LINE",
"88 667 LINE"
);
}
);
width = 695;
},
{
layerId = "043C55D1-ADA8-4506-BB55-8127E14D1A36";
paths = (
{
closed = 1;
nodes = (
"54 0 LINE",
"256 0 LINE",
"256 255 LINE",
"495 255 LINE",
"495 0 LINE",
"697 0 LINE",
"697 667 LINE",
"495 667 LINE",
"495 431 LINE",
"256 431 LINE",
"256 667 LINE",
"54 667 LINE"
);
}
);
width = 751;
},
{
layerId = "A3F0DF3F-6E5C-40C3-B5F9-213A49682D58";
paths = (
{
closed = 1;
nodes = (
"37 0 LINE",
"69 0 LINE",
"138 328 LINE",
"593 328 LINE",
"524 0 LINE",
"556 0 LINE",
"697 667 LINE",
"665 667 LINE",
"600 358 LINE",
"145 358 LINE",
"210 667 LINE",
"178 667 LINE"
);
}
);
width = 695;
},
{
layerId = "C7F6927E-AE81-4ED8-A250-E7EE5BA9BBA4";
paths = (
{
closed = 1;
nodes = (
"3 0 LINE",
"205 0 LINE",
"259 255 LINE",
"498 255 LINE",
"444 0 LINE",
"646 0 LINE",
"787 667 LINE",
"585 667 LINE",
"535 431 LINE",
"296 431 LINE",
"346 667 LINE",
"144 667 LINE"
);
}
);
width = 751;
},
{
associatedMasterId = "C74BD54B-DC3B-4084-AB10-E48D432FD11D";
layerId = "C904C5FD-088D-4660-AED1-28B1A7BC3F9F";
paths = (
{
closed = 1;
nodes = (
"88 0 LINE",
"120 0 LINE",
"120 328 LINE",
"575 328 LINE",
"575 0 LINE",
"607 0 LINE",
"607 667 LINE",
"575 667 LINE",
"575 358 LINE",
"120 358 LINE",
"120 667 LINE",
"88 667 LINE"
);
}
);
width = 695;
}
);
leftKerningGroup = exclam;
note = H;
unicode = 0048;
},
{
glyphname = Hbar;
lastChange = "2017-11-11 22:13:35 +0000";
layers = (
{
layerId = "C74BD54B-DC3B-4084-AB10-E48D432FD11D";
paths = (
{
closed = 1;
nodes = (
"88 0 LINE",
"120 0 LINE",
"120 328 LINE",
"575 328 LINE",
"575 0 LINE",
"607 0 LINE",
"607 667 LINE",
"575 667 LINE",
"575 358 LINE",
"120 358 LINE",
"120 667 LINE",
"88 667 LINE"
);
},
{
closed = 1;
nodes = (
"53 495 LINE",
"646 495 LINE",
"646 526 LINE",
"53 526 LINE"
);
}
);
width = 695;
},
{
layerId = "043C55D1-ADA8-4506-BB55-8127E14D1A36";
paths = (
{
closed = 1;
nodes = (
"54 0 LINE",
"256 0 LINE",
"256 255 LINE",
"495 255 LINE",
"495 0 LINE",
"697 0 LINE",
"697 667 LINE",
"495 667 LINE",
"495 431 LINE",
"256 431 LINE",
"256 667 LINE",
"54 667 LINE"
);
},
{
closed = 1;
nodes = (
"20 487 LINE",
"734 487 LINE",
"734 598 LINE",
"20 598 LINE"
);
}
);
width = 751;
},
{
layerId = "A3F0DF3F-6E5C-40C3-B5F9-213A49682D58";
paths = (
{
closed = 1;
nodes = (
"37 0 LINE",
"69 0 LINE",
"138 328 LINE",
"593 328 LINE",
"524 0 LINE",
"556 0 LINE",
"697 667 LINE",
"665 667 LINE",
"600 358 LINE",
"145 358 LINE",
"210 667 LINE",
"178 667 LINE"
);
},
{
closed = 1;
nodes = (
"107 495 LINE",
"700 495 LINE",
"706 526 LINE",
"113 526 LINE"
);
}
);
width = 695;
},
{
layerId = "C7F6927E-AE81-4ED8-A250-E7EE5BA9BBA4";
paths = (
{
closed = 1;
nodes = (
"3 0 LINE",
"205 0 LINE",
"259 255 LINE",
"498 255 LINE",
"444 0 LINE",
"646 0 LINE",
"787 667 LINE",
"585 667 LINE",
"535 431 LINE",
"296 431 LINE",
"346 667 LINE",
"144 667 LINE"
);
},
{
closed = 1;
nodes = (
"72 487 LINE",
"786 487 LINE",
"810 598 LINE",
"96 598 LINE"
);
}
);
width = 751;
},
{
associatedMasterId = "C74BD54B-DC3B-4084-AB10-E48D432FD11D";
layerId = "C904C5FD-088D-4660-AED1-28B1A7BC3F9F";
paths = (
{
closed = 1;
nodes = (
"88 0 LINE",
"120 0 LINE",
"120 328 LINE",
"575 328 LINE",
"575 0 LINE",
"607 0 LINE",
"607 667 LINE",
"575 667 LINE",
"575 358 LINE",
"120 358 LINE",
"120 667 LINE",
"88 667 LINE"
);
},
{
closed = 1;
nodes = (
"53 495 LINE",
"646 495 LINE",
"646 526 LINE",
"53 526 LINE"
);
}
);
width = 695;
}
);
leftKerningGroup = exclam;
note = H;
unicode = 0126;
},
{
glyphname = I;
lastChange = "2017-11-11 22:13:35 +0000";
layers = (
{
anchors = (
{
name = bottom;
position = "{104, 0}";
},
{
name = ogonek;
position = "{88, 0}";
},
{
name = top;
position = "{104, 667}";
},
{
name = topleft;
position = "{20, 667}";
}
);
layerId = "C74BD54B-DC3B-4084-AB10-E48D432FD11D";
paths = (
{
closed = 1;
nodes = (
"88 0 LINE",
"120 0 LINE",
"120 667 LINE",
"88 667 LINE"
);
}
);
width = 208;
},
{
anchors = (
{
name = bottom;
position = "{155, 0}";
},
{
name = ogonek;
position = "{155, 0}";
},
{
name = top;
position = "{155, 667}";
},
{
name = topleft;
position = "{20, 667}";
}
);
layerId = "043C55D1-ADA8-4506-BB55-8127E14D1A36";
paths = (
{
closed = 1;
nodes = (
"50 0 LINE",
"256 0 LINE",
"256 667 LINE",
"50 667 LINE"
);
}
);
width = 310;
},
{
anchors = (
{
name = bottom;
position = "{53, 0}";
},
{
name = ogonek;
position = "{37, 0}";
},
{
name = top;
position = "{194, 667}";
},
{
name = topleft;
position = "{110, 667}";
}
);
layerId = "A3F0DF3F-6E5C-40C3-B5F9-213A49682D58";
paths = (
{
closed = 1;
nodes = (
"37 0 LINE",
"69 0 LINE",
"210 667 LINE",
"178 667 LINE"
);
}
);
width = 208;
},
{
anchors = (
{
name = bottom;
position = "{104, 0}";
},
{
name = ogonek;
position = "{104, 0}";
},
{
name = top;
position = "{245, 667}";
},
{
name = topleft;
position = "{110, 667}";
}
);
layerId = "C7F6927E-AE81-4ED8-A250-E7EE5BA9BBA4";
paths = (
{
closed = 1;
nodes = (
"-1 0 LINE",
"205 0 LINE",
"346 667 LINE",
"140 667 LINE"
);
}
);
width = 310;
},
{
anchors = (
{
name = bottom;
position = "{104, 0}";
},
{
name = ogonek;
position = "{88, 0}";
},
{
name = top;
position = "{104, 667}";
},
{
name = topleft;
position = "{20, 667}";
}
);
associatedMasterId = "C74BD54B-DC3B-4084-AB10-E48D432FD11D";
layerId = "C904C5FD-088D-4660-AED1-28B1A7BC3F9F";
paths = (
{
closed = 1;
nodes = (
"88 0 LINE",
"120 0 LINE",
"120 667 LINE",
"88 667 LINE"
);
}
);
width = 208;
}
);
leftKerningGroup = exclam;
note = I;
unicode = 0049;
},
{
glyphname = J;
lastChange = "2017-11-11 22:13:35 +0000";
layers = (
{
layerId = "C74BD54B-DC3B-4084-AB10-E48D432FD11D";
paths = (
{
closed = 1;
nodes = (
"294 -12 OFFCURVE",
"377 58 OFFCURVE",
"377 185 CURVE SMOOTH",
"377 667 LINE",
"345 667 LINE",
"345 185 LINE SMOOTH",
"345 86 OFFCURVE",
"282 18 OFFCURVE",
"185 18 CURVE SMOOTH",
"128 18 OFFCURVE",
"81 45 OFFCURVE",
"43 99 CURVE",
"16 75 LINE",
"57 17 OFFCURVE",
"114 -12 OFFCURVE",
"185 -12 CURVE SMOOTH"
);
}
);
width = 465;
},
{
layerId = "043C55D1-ADA8-4506-BB55-8127E14D1A36";
paths = (
{
closed = 1;
nodes = (
"341 -12 OFFCURVE",
"444 67 OFFCURVE",
"444 238 CURVE SMOOTH",
"444 667 LINE",
"242 667 LINE",
"242 241 LINE SMOOTH",
"242 194 OFFCURVE",
"212 166 OFFCURVE",
"168 166 CURVE SMOOTH",
"134 166 OFFCURVE",
"104 181 OFFCURVE",
"82 196 CURVE",
"0 42 LINE",
"52 2 OFFCURVE",
"121 -12 OFFCURVE",
"186 -12 CURVE SMOOTH"
);
}
);
width = 498;
},
{
layerId = "A3F0DF3F-6E5C-40C3-B5F9-213A49682D58";
paths = (
{
closed = 1;
nodes = (
"240 -12 OFFCURVE",
"338 58 OFFCURVE",
"365 185 CURVE SMOOTH",
"467 667 LINE",
"435 667 LINE",
"333 185 LINE SMOOTH",
"312 86 OFFCURVE",
"234 18 OFFCURVE",
"137 18 CURVE SMOOTH",
"80 18 OFFCURVE",
"39 45 OFFCURVE",
"13 99 CURVE",
"-19 75 LINE",
"9 17 OFFCURVE",
"60 -12 OFFCURVE",
"131 -12 CURVE SMOOTH"
);
}
);
width = 465;
},
{
layerId = "C7F6927E-AE81-4ED8-A250-E7EE5BA9BBA4";
paths = (
{
closed = 1;
nodes = (
"287 -12 OFFCURVE",
"407 67 OFFCURVE",
"443 238 CURVE SMOOTH",
"534 667 LINE",
"332 667 LINE",
"242 241 LINE SMOOTH",
"232 194 OFFCURVE",
"196 166 OFFCURVE",
"152 166 CURVE SMOOTH",
"118 166 OFFCURVE",
"91 181 OFFCURVE",
"72 196 CURVE",
"-42 42 LINE",
"1 2 OFFCURVE",
"67 -12 OFFCURVE",
"132 -12 CURVE SMOOTH"
);
}
);
width = 498;
},
{
associatedMasterId = "C74BD54B-DC3B-4084-AB10-E48D432FD11D";
layerId = "C904C5FD-088D-4660-AED1-28B1A7BC3F9F";
paths = (
{
closed = 1;
nodes = (
"294 -12 OFFCURVE",
"377 58 OFFCURVE",
"377 185 CURVE SMOOTH",
"377 667 LINE",
"345 667 LINE",
"345 185 LINE SMOOTH",
"345 86 OFFCURVE",
"282 18 OFFCURVE",
"185 18 CURVE SMOOTH",
"128 18 OFFCURVE",
"81 45 OFFCURVE",
"43 99 CURVE",
"16 75 LINE",
"57 17 OFFCURVE",
"114 -12 OFFCURVE",
"185 -12 CURVE SMOOTH"
);
}
);
width = 465;
}
);
leftKerningGroup = J;
note = J;
rightKerningGroup = J;
unicode = 004A;
},
{
glyphname = K;
lastChange = "2017-11-11 22:13:35 +0000";
layers = (
{
anchors = (
{
name = bottom;
position = "{286, 0}";
},
{
name = top;
position = "{286, 667}";
}
);
layerId = "C74BD54B-DC3B-4084-AB10-E48D432FD11D";
paths = (
{
closed = 1;
nodes = (
"88 0 LINE",
"120 0 LINE",
"120 241 LINE",
"200 328 LINE",
"497 0 LINE",
"540 0 LINE",
"220 348 LINE",
"510 667 LINE",
"467 667 LINE",
"120 282 LINE",
"120 667 LINE",
"88 667 LINE"
);
}
);
width = 571;
},
{
anchors = (
{
name = bottom;
position = "{336, 0}";
},
{
name = top;
position = "{336, 667}";
}
);
layerId = "043C55D1-ADA8-4506-BB55-8127E14D1A36";
paths = (
{
closed = 1;
nodes = (
"54 0 LINE",
"256 0 LINE",
"256 185 LINE",
"293 235 LINE",
"443 0 LINE",
"689 0 LINE",
"426 357 LINE",
"678 667 LINE",
"431 667 LINE",
"256 417 LINE",
"256 667 LINE",
"54 667 LINE"
);
}
);
width = 671;
},
{
anchors = (
{
name = bottom;
position = "{235, 0}";
},
{
name = top;
position = "{376, 667}";
}
);
layerId = "A3F0DF3F-6E5C-40C3-B5F9-213A49682D58";
paths = (
{
closed = 1;
nodes = (
"37 0 LINE",
"69 0 LINE",
"120 241 LINE",
"218 328 LINE",
"446 0 LINE",
"489 0 LINE",
"243 348 LINE",
"600 667 LINE",
"557 667 LINE",
"129 282 LINE",
"210 667 LINE",
"178 667 LINE"
);
}
);
width = 571;
},
{
anchors = (
{
name = bottom;
position = "{285, 0}";
},
{
name = top;
position = "{426, 667}";
}
);
layerId = "C7F6927E-AE81-4ED8-A250-E7EE5BA9BBA4";
paths = (
{
closed = 1;
nodes = (
"3 0 LINE",
"205 0 LINE",
"244 185 LINE",
"292 235 LINE",
"392 0 LINE",
"638 0 LINE",
"451 357 LINE",
"768 667 LINE",
"521 667 LINE",
"293 417 LINE",
"346 667 LINE",
"144 667 LINE"
);
}
);
width = 671;
},
{
anchors = (
{
name = bottom;
position = "{286, 0}";
},
{
name = top;
position = "{286, 667}";
}
);
associatedMasterId = "C74BD54B-DC3B-4084-AB10-E48D432FD11D";
layerId = "C904C5FD-088D-4660-AED1-28B1A7BC3F9F";
paths = (
{
closed = 1;
nodes = (
"88 0 LINE",
"120 0 LINE",
"120 241 LINE",
"200 328 LINE",
"497 0 LINE",
"540 0 LINE",
"220 348 LINE",
"510 667 LINE",
"467 667 LINE",
"120 282 LINE",
"120 667 LINE",
"88 667 LINE"
);
}
);
width = 571;
}
);
leftKerningGroup = exclam;
note = K;
rightKerningGroup = K;
unicode = 004B;
},
{
glyphname = L;
lastChange = "2017-11-11 22:13:35 +0000";
layers = (
{
anchors = (
{
name = bottom;
position = "{250, 0}";
},
{
name = center;
position = "{250, 334}";
},
{
name = top;
position = "{102, 667}";
},
{
name = topright;
position = "{479, 667}";
}
);
layerId = "C74BD54B-DC3B-4084-AB10-E48D432FD11D";
paths = (
{
closed = 1;
nodes = (
"88 0 LINE",
"455 0 LINE",
"455 30 LINE",
"120 30 LINE",
"120 667 LINE",
"88 667 LINE"
);
}
);
width = 499;
},
{
anchors = (
{
name = bottom;
position = "{268, 0}";
},
{
name = center;
position = "{268, 334}";
},
{
name = top;
position = "{154, 667}";
},
{
name = topright;
position = "{516, 667}";
}
);
layerId = "043C55D1-ADA8-4506-BB55-8127E14D1A36";
paths = (
{
closed = 1;
nodes = (
"54 0 LINE",
"509 0 LINE",
"509 176 LINE",
"256 176 LINE",
"256 667 LINE",
"54 667 LINE"
);
}
);
width = 536;
},
{
anchors = (
{
name = bottom;
position = "{199, 0}";
},
{
name = center;
position = "{270, 334}";
},
{
name = top;
position = "{192, 667}";
},
{
name = topright;
position = "{569, 667}";
}
);
layerId = "A3F0DF3F-6E5C-40C3-B5F9-213A49682D58";
paths = (
{
closed = 1;
nodes = (
"37 0 LINE",
"404 0 LINE",
"410 30 LINE",
"75 30 LINE",
"210 667 LINE",
"178 667 LINE"
);
}
);
width = 499;
},
{
anchors = (
{
name = bottom;
position = "{217, 0}";
},
{
name = center;
position = "{288, 334}";
},
{
name = top;
position = "{244, 667}";
},
{
name = topright;
position = "{606, 667}";
}
);
layerId = "C7F6927E-AE81-4ED8-A250-E7EE5BA9BBA4";
paths = (
{
closed = 1;
nodes = (
"3 0 LINE",
"458 0 LINE",
"495 176 LINE",
"242 176 LINE",
"346 667 LINE",
"144 667 LINE"
);
}
);
width = 536;
},
{
anchors = (
{
name = bottom;
position = "{250, 0}";
},
{
name = center;
position = "{250, 334}";
},
{
name = top;
position = "{102, 667}";
},
{
name = topright;
position = "{479, 667}";
}
);
associatedMasterId = "C74BD54B-DC3B-4084-AB10-E48D432FD11D";
layerId = "C904C5FD-088D-4660-AED1-28B1A7BC3F9F";
paths = (
{
closed = 1;
nodes = (
"88 0 LINE",
"455 0 LINE",
"455 30 LINE",
"120 30 LINE",
"120 667 LINE",
"88 667 LINE"
);
}
);
width = 499;
}
);
leftKerningGroup = exclam;
note = L;
rightKerningGroup = L;
unicode = 004C;
},
{
glyphname = Lslash;
lastChange = "2017-11-11 22:13:35 +0000";
layers = (
{
anchors = (
{
name = bottom;
position = "{250, 0}";
},
{
name = center;
position = "{250, 334}";
},
{
name = top;
position = "{102, 667}";
},
{
name = topright;
position = "{479, 667}";
}
);
layerId = "C74BD54B-DC3B-4084-AB10-E48D432FD11D";
paths = (
{
closed = 1;
nodes = (
"88 0 LINE",
"455 0 LINE",
"455 30 LINE",
"120 30 LINE",
"120 667 LINE",
"88 667 LINE"
);
},
{
closed = 1;
nodes = (
"53 292 LINE",
"257 373 LINE",
"257 404 LINE",
"53 323 LINE"
);
}
);
width = 499;
},
{
anchors = (
{
name = bottom;
position = "{268, 0}";
},
{
name = center;
position = "{268, 334}";
},
{
name = top;
position = "{154, 667}";
},
{
name = topright;
position = "{516, 667}";
}
);
layerId = "043C55D1-ADA8-4506-BB55-8127E14D1A36";
paths = (
{
closed = 1;
nodes = (
"54 0 LINE",
"509 0 LINE",
"509 176 LINE",
"256 176 LINE",
"256 667 LINE",
"54 667 LINE"
);
},
{
closed = 1;
nodes = (
"-15 203 LINE",
"325 338 LINE",
"325 521 LINE",
"-15 386 LINE"
);
}
);
width = 536;
},
{
anchors = (
{
name = bottom;
position = "{199, 0}";
},
{
name = center;
position = "{270, 334}";
},
{
name = top;
position = "{192, 667}";
},
{
name = topright;
position = "{569, 667}";
}
);
layerId = "A3F0DF3F-6E5C-40C3-B5F9-213A49682D58";
paths = (
{
closed = 1;
nodes = (
"37 0 LINE",
"404 0 LINE",
"410 30 LINE",
"75 30 LINE",
"210 667 LINE",
"178 667 LINE"
);
},
{
closed = 1;
nodes = (
"64 292 LINE",
"285 373 LINE",
"292 404 LINE",
"70 323 LINE"
);
}
);
width = 499;
},
{
anchors = (
{
name = bottom;
position = "{217, 0}";
},
{
name = center;
position = "{288, 334}";
},
{
name = top;
position = "{244, 667}";
},
{
name = topright;
position = "{606, 667}";
}
);
layerId = "C7F6927E-AE81-4ED8-A250-E7EE5BA9BBA4";
paths = (
{
closed = 1;
nodes = (
"3 0 LINE",
"458 0 LINE",
"495 176 LINE",
"242 176 LINE",
"346 667 LINE",
"144 667 LINE"
);
},
{
closed = 1;
nodes = (
"-23 203 LINE",
"346 338 LINE",
"384 521 LINE",
"16 386 LINE"
);
}
);
width = 536;
},
{
anchors = (
{
name = bottom;
position = "{250, 0}";
},
{
name = center;
position = "{250, 334}";
},
{
name = top;
position = "{102, 667}";
},
{
name = topright;
position = "{479, 667}";
}
);
associatedMasterId = "C74BD54B-DC3B-4084-AB10-E48D432FD11D";
layerId = "C904C5FD-088D-4660-AED1-28B1A7BC3F9F";
paths = (
{
closed = 1;
nodes = (
"88 0 LINE",
"455 0 LINE",
"455 30 LINE",
"120 30 LINE",
"120 667 LINE",
"88 667 LINE"
);
},
{
closed = 1;
nodes = (
"53 292 LINE",
"257 373 LINE",
"257 404 LINE",
"53 323 LINE"
);
}
);
width = 499;
}
);
leftKerningGroup = exclam;
note = L;
rightKerningGroup = L;
unicode = 0141;
},
{
glyphname = M;
lastChange = "2017-11-11 22:13:35 +0000";
layers = (
{
layerId = "C74BD54B-DC3B-4084-AB10-E48D432FD11D";
paths = (
{
closed = 1;
nodes = (
"74 0 LINE",
"106 0 LINE",
"105 619 LINE",
"362 163 LINE",
"388 163 LINE",
"646 619 LINE",
"645 0 LINE",
"677 0 LINE",
"677 667 LINE",
"639 667 LINE",
"375 201 LINE",
"112 667 LINE",
"74 667 LINE"
);
}
);
width = 770;
},
{
layerId = "043C55D1-ADA8-4506-BB55-8127E14D1A36";
paths = (
{
closed = 1;
nodes = (
"54 0 LINE",
"256 0 LINE",
"256 401 LINE",
"405 130 LINE",
"495 130 LINE",
"644 401 LINE",
"644 0 LINE",
"846 0 LINE",
"846 667 LINE",
"567 667 LINE",
"450 477 LINE",
"333 667 LINE",
"54 667 LINE"
);
}
);
width = 900;
},
{
layerId = "A3F0DF3F-6E5C-40C3-B5F9-213A49682D58";
paths = (
{
closed = 1;
nodes = (
"23 0 LINE",
"55 0 LINE",
"185 619 LINE",
"345 163 LINE",
"371 163 LINE",
"726 619 LINE",
"594 0 LINE",
"626 0 LINE",
"767 667 LINE",
"729 667 LINE",
"366 201 LINE",
"202 667 LINE",
"164 667 LINE"
);
}
);
width = 770;
},
{
layerId = "C7F6927E-AE81-4ED8-A250-E7EE5BA9BBA4";
paths = (
{
closed = 1;
nodes = (
"3 0 LINE",
"205 0 LINE",
"290 401 LINE",
"381 130 LINE",
"471 130 LINE",
"678 401 LINE",
"593 0 LINE",
"795 0 LINE",
"936 667 LINE",
"657 667 LINE",
"500 477 LINE",
"423 667 LINE",
"144 667 LINE"
);
}
);
width = 900;
},
{
associatedMasterId = "C74BD54B-DC3B-4084-AB10-E48D432FD11D";
layerId = "C904C5FD-088D-4660-AED1-28B1A7BC3F9F";
paths = (
{
closed = 1;
nodes = (
"74 0 LINE",
"106 0 LINE",
"105 619 LINE",
"362 163 LINE",
"388 163 LINE",
"646 619 LINE",
"645 0 LINE",
"677 0 LINE",
"677 667 LINE",
"639 667 LINE",
"375 201 LINE",
"112 667 LINE",
"74 667 LINE"
);
}
);
width = 770;
}
);
leftKerningGroup = exclam;
note = M;
unicode = 004D;
},
{
glyphname = N;
lastChange = "2017-11-11 22:13:35 +0000";
layers = (
{
anchors = (
{
name = bottom;
position = "{345, 0}";
},
{
name = top;
position = "{345, 667}";
}
);
layerId = "C74BD54B-DC3B-4084-AB10-E48D432FD11D";
paths = (
{
closed = 1;
nodes = (
"88 0 LINE",
"120 0 LINE",
"120 615 LINE",
"570 0 LINE",
"602 0 LINE",
"602 667 LINE",
"570 667 LINE",
"570 58 LINE",
"120 667 LINE",
"88 667 LINE"
);
}
);
width = 690;
},
{
anchors = (
{
name = bottom;
position = "{375, 0}";
},
{
name = top;
position = "{375, 667}";
}
);
layerId = "043C55D1-ADA8-4506-BB55-8127E14D1A36";
paths = (
{
closed = 1;
nodes = (
"54 0 LINE",
"256 0 LINE",
"256 338 LINE",
"502 0 LINE",
"696 0 LINE",
"696 667 LINE",
"494 667 LINE",
"494 351 LINE",
"262 667 LINE",
"54 667 LINE"
);
}
);
width = 750;
},
{
anchors = (
{
name = bottom;
position = "{294, 0}";
},
{
name = top;
position = "{435, 667}";
}
);
layerId = "A3F0DF3F-6E5C-40C3-B5F9-213A49682D58";
paths = (
{
closed = 1;
nodes = (
"37 0 LINE",
"69 0 LINE",
"199 615 LINE",
"519 0 LINE",
"551 0 LINE",
"692 667 LINE",
"660 667 LINE",
"531 58 LINE",
"210 667 LINE",
"178 667 LINE"
);
}
);
width = 690;
},
{
anchors = (
{
name = bottom;
position = "{324, 0}";
},
{
name = top;
position = "{465, 667}";
}
);
layerId = "C7F6927E-AE81-4ED8-A250-E7EE5BA9BBA4";
paths = (
{
closed = 1;
nodes = (
"3 0 LINE",
"205 0 LINE",
"277 338 LINE",
"451 0 LINE",
"645 0 LINE",
"786 667 LINE",
"584 667 LINE",
"517 351 LINE",
"352 667 LINE",
"144 667 LINE"
);
}
);
width = 750;
},
{
anchors = (
{
name = bottom;
position = "{345, 0}";
},
{
name = top;
position = "{345, 667}";
}
);
associatedMasterId = "C74BD54B-DC3B-4084-AB10-E48D432FD11D";
layerId = "C904C5FD-088D-4660-AED1-28B1A7BC3F9F";
paths = (
{
closed = 1;
nodes = (
"88 0 LINE",
"120 0 LINE",
"120 615 LINE",
"570 0 LINE",
"602 0 LINE",
"602 667 LINE",
"570 667 LINE",
"570 58 LINE",
"120 667 LINE",
"88 667 LINE"
);
}
);
width = 690;
}
);
leftKerningGroup = exclam;
note = N;
unicode = 004E;
},
{
glyphname = Eng;
lastChange = "2017-11-11 22:13:35 +0000";
layers = (
{
anchors = (
{
name = bottom;
position = "{345, 0}";
},
{
name = top;
position = "{345, 667}";
}
);
layerId = "C74BD54B-DC3B-4084-AB10-E48D432FD11D";
paths = (
{
closed = 1;
nodes = (
"88 0 LINE",
"120 0 LINE",
"120 615 LINE",
"570 0 LINE",
"602 0 LINE",
"602 667 LINE",
"570 667 LINE",
"570 58 LINE",
"120 667 LINE",
"88 667 LINE"
);
},
{
closed = 1;
nodes = (
"572 577 LINE",
"572 -5 LINE SMOOTH",
"572 -52 OFFCURVE",
"556 -75 OFFCURVE",
"520 -75 CURVE SMOOTH",
"476 -75 LINE",
"476 -102 LINE",
"520 -102 LINE SMOOTH",
"575 -102 OFFCURVE",
"602 -70 OFFCURVE",
"602 -5 CURVE SMOOTH",
"602 577 LINE"
);
}
);
width = 690;
},
{
anchors = (
{
name = bottom;
position = "{375, 0}";
},
{
name = top;
position = "{375, 667}";
}
);
layerId = "043C55D1-ADA8-4506-BB55-8127E14D1A36";
paths = (
{
closed = 1;
nodes = (
"54 0 LINE",
"256 0 LINE",
"256 338 LINE",
"502 0 LINE",
"696 0 LINE",
"696 667 LINE",
"494 667 LINE",
"494 351 LINE",
"262 667 LINE",
"54 667 LINE"
);
},
{
closed = 1;
nodes = (
"517 467 LINE",
"501 -8 LINE SMOOTH",
"500 -33 OFFCURVE",
"485 -53 OFFCURVE",
"461 -53 CURVE SMOOTH",
"403 -53 LINE",
"403 -212 LINE",
"515 -212 LINE SMOOTH",
"622 -212 OFFCURVE",
"697 -161 OFFCURVE",
"697 -60 CURVE SMOOTH",
"697 467 LINE"
);
}
);
width = 750;
},
{
anchors = (
{
name = bottom;
position = "{294, 0}";
},
{
name = top;
position = "{435, 667}";
}
);
layerId = "A3F0DF3F-6E5C-40C3-B5F9-213A49682D58";
paths = (
{
closed = 1;
nodes = (
"37 0 LINE",
"69 0 LINE",
"199 615 LINE",
"519 0 LINE",
"551 0 LINE",
"692 667 LINE",
"660 667 LINE",
"531 58 LINE",
"210 667 LINE",
"178 667 LINE"
);
},
{
closed = 1;
nodes = (
"643 577 LINE",
"520 -5 LINE SMOOTH",
"510 -52 OFFCURVE",
"489 -75 OFFCURVE",
"453 -75 CURVE SMOOTH",
"409 -75 LINE",
"403 -102 LINE",
"447 -102 LINE SMOOTH",
"502 -102 OFFCURVE",
"536 -70 OFFCURVE",
"550 -5 CURVE SMOOTH",
"673 577 LINE"
);
}
);
width = 690;
},
{
anchors = (
{
name = bottom;
position = "{324, 0}";
},
{
name = top;
position = "{465, 667}";
}
);
layerId = "C7F6927E-AE81-4ED8-A250-E7EE5BA9BBA4";
paths = (
{
closed = 1;
nodes = (
"3 0 LINE",
"205 0 LINE",
"277 338 LINE",
"451 0 LINE",
"645 0 LINE",
"786 667 LINE",
"584 667 LINE",
"517 351 LINE",
"352 667 LINE",
"144 667 LINE"
);
},
{
closed = 1;
nodes = (
"565 467 LINE",
"448 -8 LINE SMOOTH",
"442 -33 OFFCURVE",
"422 -53 OFFCURVE",
"398 -53 CURVE SMOOTH",
"340 -53 LINE",
"307 -212 LINE",
"419 -212 LINE SMOOTH",
"526 -212 OFFCURVE",
"611 -161 OFFCURVE",
"633 -60 CURVE SMOOTH",
"745 467 LINE"
);
}
);
width = 750;
},
{
anchors = (
{
name = bottom;
position = "{345, 0}";
},
{
name = top;
position = "{345, 667}";
}
);
associatedMasterId = "C74BD54B-DC3B-4084-AB10-E48D432FD11D";
layerId = "C904C5FD-088D-4660-AED1-28B1A7BC3F9F";
paths = (
{
closed = 1;
nodes = (
"88 0 LINE",
"120 0 LINE",
"120 615 LINE",
"570 0 LINE",
"602 0 LINE",
"602 667 LINE",
"570 667 LINE",
"570 58 LINE",
"120 667 LINE",
"88 667 LINE"
);
},
{
closed = 1;
nodes = (
"572 577 LINE",
"572 -5 LINE SMOOTH",
"572 -52 OFFCURVE",
"556 -75 OFFCURVE",
"520 -75 CURVE SMOOTH",
"476 -75 LINE",
"476 -102 LINE",
"520 -102 LINE SMOOTH",
"575 -102 OFFCURVE",
"602 -70 OFFCURVE",
"602 -5 CURVE SMOOTH",
"602 577 LINE"
);
}
);
width = 690;
}
);
leftKerningGroup = exclam;
note = N;
unicode = 014A;
},
{
glyphname = O;
lastChange = "2017-11-11 22:13:35 +0000";
layers = (
{
anchors = (
{
name = bottom;
position = "{306, 0}";
},
{
name = center;
position = "{306, 334}";
},
{
name = ogonek;
position = "{587, 10}";
},
{
name = top;
position = "{306, 667}";
},
{
name = topleft;
position = "{-25, 667}";
},
{
name = topright;
position = "{637, 667}";
}
);
layerId = "C74BD54B-DC3B-4084-AB10-E48D432FD11D";
paths = (
{
closed = 1;
nodes = (
"65 211 LINE SMOOTH",
"65 86 OFFCURVE",
"161 -6 OFFCURVE",
"306 -6 CURVE SMOOTH",
"451 -6 OFFCURVE",
"547 86 OFFCURVE",
"547 211 CURVE SMOOTH",
"547 450 LINE SMOOTH",
"547 583 OFFCURVE",
"452 674 OFFCURVE",
"306 674 CURVE SMOOTH",
"160 674 OFFCURVE",
"65 583 OFFCURVE",
"65 450 CURVE SMOOTH"
);
},
{
closed = 1;
nodes = (
"97 567 OFFCURVE",
"177 645 OFFCURVE",
"306 645 CURVE SMOOTH",
"435 645 OFFCURVE",
"515 567 OFFCURVE",
"515 450 CURVE SMOOTH",
"515 211 LINE SMOOTH",
"515 102 OFFCURVE",
"434 24 OFFCURVE",
"306 24 CURVE SMOOTH",
"178 24 OFFCURVE",
"97 102 OFFCURVE",
"97 211 CURVE SMOOTH",
"97 450 LINE SMOOTH"
);
}
);
width = 613;
},
{
anchors = (
{
name = bottom;
position = "{383, 0}";
},
{
name = center;
position = "{383, 334}";
},
{
name = ogonek;
position = "{689, 10}";
},
{
name = top;
position = "{383, 667}";
},
{
name = topleft;
position = "{20, 667}";
},
{
name = topright;
position = "{746, 667}";
}
);
hints = (
{
horizontal = 1;
origin = "{0, 3}";
target = "{1, 9}";
},
{
horizontal = 1;
origin = "{1, 2}";
target = "{0, 10}";
},
{
origin = "{0, 0}";
target = "{1, 12}";
},
{
origin = "{1, 6}";
target = "{0, 6}";
}
);
layerId = "043C55D1-ADA8-4506-BB55-8127E14D1A36";
paths = (
{
closed = 1;
nodes = (
"18 333 LINE SMOOTH",
"18 128 OFFCURVE",
"177 -12 OFFCURVE",
"383 -12 CURVE SMOOTH",
"589 -12 OFFCURVE",
"748 128 OFFCURVE",
"748 333 CURVE SMOOTH",
"748 333 LINE",
"743 533 OFFCURVE",
"585 678 OFFCURVE",
"383 678 CURVE SMOOTH",
"180 678 OFFCURVE",
"18 534 OFFCURVE",
"18 333 CURVE SMOOTH"
);
},
{
closed = 1;
nodes = (
"223 426 OFFCURVE",
"290 500 OFFCURVE",
"383 500 CURVE SMOOTH",
"477 500 OFFCURVE",
"543 426 OFFCURVE",
"543 333 CURVE",
"543 333 LINE SMOOTH",
"543 240 OFFCURVE",
"480 166 OFFCURVE",
"383 166 CURVE SMOOTH",
"286 166 OFFCURVE",
"223 240 OFFCURVE",
"223 333 CURVE SMOOTH",
"223 333 LINE"
);
}
);
width = 766;
},
{
anchors = (
{
name = bottom;
position = "{255, 0}";
},
{
name = center;
position = "{326, 334}";
},
{
name = ogonek;
position = "{538, 10}";
},
{
name = top;
position = "{396, 667}";
},
{
name = topleft;
position = "{65, 667}";
},
{
name = topright;
position = "{727, 667}";
}
);
layerId = "A3F0DF3F-6E5C-40C3-B5F9-213A49682D58";
paths = (
{
closed = 1;
nodes = (
"59 211 LINE SMOOTH",
"32 86 OFFCURVE",
"108 -6 OFFCURVE",
"253 -6 CURVE SMOOTH",
"398 -6 OFFCURVE",
"514 86 OFFCURVE",
"541 211 CURVE SMOOTH",
"591 450 LINE SMOOTH",
"620 583 OFFCURVE",
"544 674 OFFCURVE",
"398 674 CURVE SMOOTH",
"252 674 OFFCURVE",
"138 583 OFFCURVE",
"109 450 CURVE SMOOTH"
);
},
{
closed = 1;
nodes = (
"166 567 OFFCURVE",
"263 645 OFFCURVE",
"392 645 CURVE SMOOTH",
"521 645 OFFCURVE",
"584 567 OFFCURVE",
"559 450 CURVE SMOOTH",
"509 211 LINE SMOOTH",
"485 102 OFFCURVE",
"388 24 OFFCURVE",
"260 24 CURVE SMOOTH",
"132 24 OFFCURVE",
"67 102 OFFCURVE",
"91 211 CURVE SMOOTH",
"141 450 LINE SMOOTH"
);
}
);
width = 613;
},
{
anchors = (
{
name = bottom;
position = "{332, 0}";
},
{
name = center;
position = "{403, 334}";
},
{
name = ogonek;
position = "{640, 10}";
},
{
name = top;
position = "{473, 667}";
},
{
name = topleft;
position = "{110, 667}";
},
{
name = topright;
position = "{836, 667}";
}
);
hints = (
{
horizontal = 1;
origin = "{0, 3}";
target = "{1, 9}";
},
{
horizontal = 1;
origin = "{1, 2}";
target = "{0, 10}";
},
{
origin = "{0, 0}";
target = "{1, 12}";
},
{
origin = "{1, 6}";
target = "{0, 6}";
}
);
layerId = "C7F6927E-AE81-4ED8-A250-E7EE5BA9BBA4";
paths = (
{
closed = 1;
nodes = (
"37 333 LINE SMOOTH",
"-6 128 OFFCURVE",
"123 -12 OFFCURVE",
"329 -12 CURVE SMOOTH",
"535 -12 OFFCURVE",
"724 128 OFFCURVE",
"767 333 CURVE SMOOTH",
"767 333 LINE",
"805 533 OFFCURVE",
"678 678 OFFCURVE",
"476 678 CURVE SMOOTH",
"273 678 OFFCURVE",
"80 534 OFFCURVE",
"37 333 CURVE SMOOTH"
);
},
{
closed = 1;
nodes = (
"262 426 OFFCURVE",
"345 500 OFFCURVE",
"438 500 CURVE SMOOTH",
"532 500 OFFCURVE",
"582 426 OFFCURVE",
"562 333 CURVE",
"562 333 LINE SMOOTH",
"543 240 OFFCURVE",
"464 166 OFFCURVE",
"367 166 CURVE SMOOTH",
"270 166 OFFCURVE",
"223 240 OFFCURVE",
"242 333 CURVE SMOOTH",
"242 333 LINE"
);
}
);
width = 766;
},
{
anchors = (
{
name = bottom;
position = "{306, 0}";
},
{
name = center;
position = "{306, 334}";
},
{
name = ogonek;
position = "{587, 10}";
},
{
name = top;
position = "{306, 667}";
},
{
name = topleft;
position = "{-25, 667}";
},
{
name = topright;
position = "{637, 667}";
}
);
associatedMasterId = "C74BD54B-DC3B-4084-AB10-E48D432FD11D";
layerId = "C904C5FD-088D-4660-AED1-28B1A7BC3F9F";
paths = (
{
closed = 1;
nodes = (
"65 211 LINE SMOOTH",
"65 86 OFFCURVE",
"161 -6 OFFCURVE",
"306 -6 CURVE SMOOTH",
"451 -6 OFFCURVE",
"547 86 OFFCURVE",
"547 211 CURVE SMOOTH",
"547 450 LINE SMOOTH",
"547 583 OFFCURVE",
"452 674 OFFCURVE",
"306 674 CURVE SMOOTH",
"160 674 OFFCURVE",
"65 583 OFFCURVE",
"65 450 CURVE SMOOTH"
);
},
{
closed = 1;
nodes = (
"97 567 OFFCURVE",
"177 645 OFFCURVE",
"306 645 CURVE SMOOTH",
"435 645 OFFCURVE",
"515 567 OFFCURVE",
"515 450 CURVE SMOOTH",
"515 211 LINE SMOOTH",
"515 102 OFFCURVE",
"434 24 OFFCURVE",
"306 24 CURVE SMOOTH",
"178 24 OFFCURVE",
"97 102 OFFCURVE",
"97 211 CURVE SMOOTH",
"97 450 LINE SMOOTH"
);
}
);
width = 613;
}
);
leftKerningGroup = C;
note = O;
rightKerningGroup = D;
unicode = 004F;
},
{
glyphname = Oslash;
lastChange = "2017-11-16 16:53:54 +0000";
layers = (
{
components = (
{
name = O;
}
);
layerId = "C74BD54B-DC3B-4084-AB10-E48D432FD11D";
paths = (
{
closed = 1;
nodes = (
"91 4 LINE",
"537 642 LINE",
"513 658 LINE",
"67 21 LINE"
);
}
);
width = 613;
},
{
components = (
{
name = O;
}
);
layerId = "043C55D1-ADA8-4506-BB55-8127E14D1A36";
paths = (
{
closed = 1;
nodes = (
"240 -45 LINE",
"686 593 LINE",
"541 695 LINE",
"95 58 LINE"
);
}
);
width = 766;
},
{
components = (
{
name = O;
}
);
layerId = "A3F0DF3F-6E5C-40C3-B5F9-213A49682D58";
paths = (
{
closed = 1;
nodes = (
"41 4 LINE",
"622 642 LINE",
"602 658 LINE",
"20 21 LINE"
);
}
);
width = 613;
},
{
components = (
{
name = O;
}
);
layerId = "C7F6927E-AE81-4ED8-A250-E7EE5BA9BBA4";
paths = (
{
closed = 1;
nodes = (
"179 -45 LINE",
"761 593 LINE",
"637 695 LINE",
"56 58 LINE"
);
}
);
width = 766;
},
{
associatedMasterId = "C74BD54B-DC3B-4084-AB10-E48D432FD11D";
components = (
{
name = O;
}
);
layerId = "C904C5FD-088D-4660-AED1-28B1A7BC3F9F";
paths = (
{
closed = 1;
nodes = (
"91 4 LINE",
"537 642 LINE",
"513 658 LINE",
"67 21 LINE"
);
}
);
width = 613;
}
);
unicode = 00D8;
},
{
glyphname = OE;
lastChange = "2017-11-16 16:53:55 +0000";
layers = (
{
components = (
{
name = O;
}
);
layerId = "C74BD54B-DC3B-4084-AB10-E48D432FD11D";
paths = (
{
closed = 1;
nodes = (
"518 0 LINE",
"853 0 LINE",
"853 30 LINE",
"550 30 LINE",
"550 328 LINE",
"828 328 LINE",
"828 358 LINE",
"550 358 LINE",
"550 637 LINE",
"853 637 LINE",
"853 667 LINE",
"518 667 LINE"
);
}
);
width = 918;
},
{
components = (
{
name = O;
}
);
layerId = "043C55D1-ADA8-4506-BB55-8127E14D1A36";
paths = (
{
closed = 1;
nodes = (
"546 0 LINE",
"967 0 LINE",
"967 176 LINE",
"748 176 LINE",
"748 249 LINE",
"903 249 LINE",
"903 425 LINE",
"748 425 LINE",
"748 491 LINE",
"967 491 LINE",
"967 667 LINE",
"546 667 LINE"
);
}
);
width = 1032;
},
{
components = (
{
name = O;
}
);
layerId = "A3F0DF3F-6E5C-40C3-B5F9-213A49682D58";
paths = (
{
closed = 1;
nodes = (
"467 0 LINE",
"802 0 LINE",
"808 30 LINE",
"505 30 LINE",
"568 328 LINE",
"846 328 LINE",
"853 358 LINE",
"575 358 LINE",
"634 637 LINE",
"937 637 LINE",
"943 667 LINE",
"608 667 LINE"
);
}
);
width = 918;
},
{
components = (
{
name = O;
}
);
layerId = "C7F6927E-AE81-4ED8-A250-E7EE5BA9BBA4";
paths = (
{
closed = 1;
nodes = (
"495 0 LINE",
"916 0 LINE",
"953 176 LINE",
"734 176 LINE",
"750 249 LINE",
"905 249 LINE",
"942 425 LINE",
"787 425 LINE",
"801 491 LINE",
"1020 491 LINE",
"1057 667 LINE",
"636 667 LINE"
);
}
);
width = 1032;
},
{
associatedMasterId = "C74BD54B-DC3B-4084-AB10-E48D432FD11D";
components = (
{
name = O;
}
);
layerId = "C904C5FD-088D-4660-AED1-28B1A7BC3F9F";
paths = (
{
closed = 1;
nodes = (
"518 0 LINE",
"853 0 LINE",
"853 30 LINE",
"550 30 LINE",
"550 328 LINE",
"828 328 LINE",
"828 358 LINE",
"550 358 LINE",
"550 637 LINE",
"853 637 LINE",
"853 667 LINE",
"518 667 LINE"
);
}
);
width = 918;
}
);
unicode = 0152;
},
{
glyphname = P;
lastChange = "2017-11-11 22:13:35 +0000";
layers = (
{
layerId = "C74BD54B-DC3B-4084-AB10-E48D432FD11D";
paths = (
{
closed = 1;
nodes = (
"88 0 LINE",
"120 0 LINE",
"120 289 LINE",
"319 289 LINE SMOOTH",
"438 289 OFFCURVE",
"514 373 OFFCURVE",
"514 478 CURVE SMOOTH",
"514 585 OFFCURVE",
"439 667 OFFCURVE",
"319 667 CURVE SMOOTH",
"88 667 LINE"
);
},
{
closed = 1;
nodes = (
"318 637 LINE SMOOTH",
"415 637 OFFCURVE",
"479 571 OFFCURVE",
"479 478 CURVE SMOOTH",
"479 385 OFFCURVE",
"415 319 OFFCURVE",
"318 319 CURVE SMOOTH",
"120 319 LINE",
"120 637 LINE"
);
}
);
width = 555;
},
{
layerId = "043C55D1-ADA8-4506-BB55-8127E14D1A36";
paths = (
{
closed = 1;
nodes = (
"54 0 LINE",
"256 0 LINE",
"256 210 LINE",
"410 210 LINE SMOOTH",
"566 210 OFFCURVE",
"650 314 OFFCURVE",
"650 438 CURVE SMOOTH",
"650 563 OFFCURVE",
"566 667 OFFCURVE",
"410 667 CURVE SMOOTH",
"54 667 LINE"
);
},
{
closed = 1;
nodes = (
"384 491 LINE SMOOTH",
"418 491 OFFCURVE",
"445 474 OFFCURVE",
"445 438 CURVE SMOOTH",
"445 403 OFFCURVE",
"418 386 OFFCURVE",
"384 386 CURVE SMOOTH",
"256 386 LINE",
"256 491 LINE"
);
}
);
width = 662;
},
{
layerId = "A3F0DF3F-6E5C-40C3-B5F9-213A49682D58";
paths = (
{
closed = 1;
nodes = (
"37 0 LINE",
"69 0 LINE",
"130 289 LINE",
"329 289 LINE SMOOTH",
"448 289 OFFCURVE",
"542 373 OFFCURVE",
"564 478 CURVE SMOOTH",
"587 585 OFFCURVE",
"529 667 OFFCURVE",
"409 667 CURVE SMOOTH",
"178 667 LINE"
);
},
{
closed = 1;
nodes = (
"402 637 LINE SMOOTH",
"499 637 OFFCURVE",
"549 571 OFFCURVE",
"529 478 CURVE SMOOTH",
"510 385 OFFCURVE",
"431 319 OFFCURVE",
"334 319 CURVE SMOOTH",
"136 319 LINE",
"204 637 LINE"
);
}
);
width = 555;
},
{
layerId = "C7F6927E-AE81-4ED8-A250-E7EE5BA9BBA4";
paths = (
{
closed = 1;
nodes = (
"3 0 LINE",
"205 0 LINE",
"249 210 LINE",
"403 210 LINE SMOOTH",
"559 210 OFFCURVE",
"665 314 OFFCURVE",
"692 438 CURVE SMOOTH",
"718 563 OFFCURVE",
"656 667 OFFCURVE",
"500 667 CURVE SMOOTH",
"144 667 LINE"
);
},
{
closed = 1;
nodes = (
"437 491 LINE SMOOTH",
"471 491 OFFCURVE",
"494 474 OFFCURVE",
"487 438 CURVE SMOOTH",
"479 403 OFFCURVE",
"449 386 OFFCURVE",
"415 386 CURVE SMOOTH",
"287 386 LINE",
"309 491 LINE"
);
}
);
width = 662;
},
{
associatedMasterId = "C74BD54B-DC3B-4084-AB10-E48D432FD11D";
layerId = "C904C5FD-088D-4660-AED1-28B1A7BC3F9F";
paths = (
{
closed = 1;
nodes = (
"88 0 LINE",
"120 0 LINE",
"120 289 LINE",
"319 289 LINE SMOOTH",
"438 289 OFFCURVE",
"514 373 OFFCURVE",
"514 478 CURVE SMOOTH",
"514 585 OFFCURVE",
"439 667 OFFCURVE",
"319 667 CURVE SMOOTH",
"88 667 LINE"
);
},
{
closed = 1;
nodes = (
"318 637 LINE SMOOTH",
"415 637 OFFCURVE",
"479 571 OFFCURVE",
"479 478 CURVE SMOOTH",
"479 385 OFFCURVE",
"415 319 OFFCURVE",
"318 319 CURVE SMOOTH",
"120 319 LINE",
"120 637 LINE"
);
}
);
width = 555;
}
);
leftKerningGroup = exclam;
note = P;
rightKerningGroup = P;
unicode = 0050;
},
{
glyphname = Thorn;
lastChange = "2017-11-11 22:13:35 +0000";
layers = (
{
layerId = "C74BD54B-DC3B-4084-AB10-E48D432FD11D";
paths = (
{
closed = 1;
nodes = (
"88 0 LINE",
"120 0 LINE",
"120 169 LINE",
"319 169 LINE SMOOTH",
"438 169 OFFCURVE",
"514 253 OFFCURVE",
"514 358 CURVE SMOOTH",
"514 465 OFFCURVE",
"439 547 OFFCURVE",
"319 547 CURVE SMOOTH",
"88 547 LINE"
);
},
{
closed = 1;
nodes = (
"318 517 LINE SMOOTH",
"415 517 OFFCURVE",
"479 451 OFFCURVE",
"479 358 CURVE SMOOTH",
"479 265 OFFCURVE",
"415 199 OFFCURVE",
"318 199 CURVE SMOOTH",
"120 199 LINE",
"120 517 LINE"
);
},
{
closed = 1;
nodes = (
"87 0 LINE",
"120 0 LINE",
"120 667 LINE",
"87 667 LINE"
);
}
);
width = 555;
},
{
layerId = "043C55D1-ADA8-4506-BB55-8127E14D1A36";
paths = (
{
closed = 1;
nodes = (
"54 0 LINE",
"256 0 LINE",
"256 110 LINE",
"410 110 LINE SMOOTH",
"566 110 OFFCURVE",
"650 214 OFFCURVE",
"650 338 CURVE SMOOTH",
"650 463 OFFCURVE",
"566 567 OFFCURVE",
"410 567 CURVE SMOOTH",
"54 567 LINE"
);
},
{
closed = 1;
nodes = (
"384 391 LINE SMOOTH",
"418 391 OFFCURVE",
"445 374 OFFCURVE",
"445 338 CURVE SMOOTH",
"445 303 OFFCURVE",
"418 286 OFFCURVE",
"384 286 CURVE SMOOTH",
"256 286 LINE",
"256 391 LINE"
);
},
{
closed = 1;
nodes = (
"54 0 LINE",
"256 0 LINE",
"256 667 LINE",
"54 667 LINE"
);
}
);
width = 662;
},
{
layerId = "A3F0DF3F-6E5C-40C3-B5F9-213A49682D58";
paths = (
{
closed = 1;
nodes = (
"37 0 LINE",
"69 0 LINE",
"105 169 LINE",
"304 169 LINE SMOOTH",
"423 169 OFFCURVE",
"516 253 OFFCURVE",
"539 358 CURVE SMOOTH",
"562 465 OFFCURVE",
"504 547 OFFCURVE",
"384 547 CURVE SMOOTH",
"153 547 LINE"
);
},
{
closed = 1;
nodes = (
"377 517 LINE SMOOTH",
"474 517 OFFCURVE",
"524 451 OFFCURVE",
"504 358 CURVE SMOOTH",
"484 265 OFFCURVE",
"406 199 OFFCURVE",
"309 199 CURVE SMOOTH",
"111 199 LINE",
"179 517 LINE"
);
},
{
closed = 1;
nodes = (
"36 0 LINE",
"69 0 LINE",
"210 667 LINE",
"177 667 LINE"
);
}
);
width = 555;
},
{
layerId = "C7F6927E-AE81-4ED8-A250-E7EE5BA9BBA4";
paths = (
{
closed = 1;
nodes = (
"3 0 LINE",
"205 0 LINE",
"228 110 LINE",
"382 110 LINE SMOOTH",
"538 110 OFFCURVE",
"644 214 OFFCURVE",
"671 338 CURVE SMOOTH",
"697 463 OFFCURVE",
"635 567 OFFCURVE",
"479 567 CURVE SMOOTH",
"123 567 LINE"
);
},
{
closed = 1;
nodes = (
"416 391 LINE SMOOTH",
"450 391 OFFCURVE",
"473 374 OFFCURVE",
"466 338 CURVE SMOOTH",
"458 303 OFFCURVE",
"427 286 OFFCURVE",
"393 286 CURVE SMOOTH",
"265 286 LINE",
"288 391 LINE"
);
},
{
closed = 1;
nodes = (
"3 0 LINE",
"205 0 LINE",
"346 667 LINE",
"144 667 LINE"
);
}
);
width = 662;
},
{
associatedMasterId = "C74BD54B-DC3B-4084-AB10-E48D432FD11D";
layerId = "C904C5FD-088D-4660-AED1-28B1A7BC3F9F";
paths = (
{
closed = 1;
nodes = (
"88 0 LINE",
"120 0 LINE",
"120 169 LINE",
"319 169 LINE SMOOTH",
"438 169 OFFCURVE",
"514 253 OFFCURVE",
"514 358 CURVE SMOOTH",
"514 465 OFFCURVE",
"439 547 OFFCURVE",
"319 547 CURVE SMOOTH",
"88 547 LINE"
);
},
{
closed = 1;
nodes = (
"318 517 LINE SMOOTH",
"415 517 OFFCURVE",
"479 451 OFFCURVE",
"479 358 CURVE SMOOTH",
"479 265 OFFCURVE",
"415 199 OFFCURVE",
"318 199 CURVE SMOOTH",
"120 199 LINE",
"120 517 LINE"
);
},
{
closed = 1;
nodes = (
"87 0 LINE",
"120 0 LINE",
"120 667 LINE",
"87 667 LINE"
);
}
);
width = 555;
}
);
leftKerningGroup = exclam;
note = P;
rightKerningGroup = P;
unicode = 00DE;
},
{
glyphname = Q;
lastChange = "2017-11-11 22:13:35 +0000";
layers = (
{
layerId = "C74BD54B-DC3B-4084-AB10-E48D432FD11D";
paths = (
{
closed = 1;
nodes = (
"65 211 LINE SMOOTH",
"65 86 OFFCURVE",
"161 -6 OFFCURVE",
"306 -6 CURVE SMOOTH",
"451 -6 OFFCURVE",
"547 86 OFFCURVE",
"547 211 CURVE SMOOTH",
"547 450 LINE SMOOTH",
"547 583 OFFCURVE",
"452 674 OFFCURVE",
"306 674 CURVE SMOOTH",
"160 674 OFFCURVE",
"65 583 OFFCURVE",
"65 450 CURVE SMOOTH"
);
},
{
closed = 1;
nodes = (
"97 567 OFFCURVE",
"177 645 OFFCURVE",
"306 645 CURVE SMOOTH",
"435 645 OFFCURVE",
"515 567 OFFCURVE",
"515 450 CURVE SMOOTH",
"515 211 LINE SMOOTH",
"515 102 OFFCURVE",
"434 24 OFFCURVE",
"306 24 CURVE SMOOTH",
"178 24 OFFCURVE",
"97 102 OFFCURVE",
"97 211 CURVE SMOOTH",
"97 450 LINE SMOOTH"
);
},
{
closed = 1;
nodes = (
"534 -10 LINE",
"557 10 LINE",
"363 204 LINE",
"341 183 LINE"
);
}
);
width = 623;
},
{
layerId = "043C55D1-ADA8-4506-BB55-8127E14D1A36";
paths = (
{
closed = 1;
nodes = (
"18 333 LINE SMOOTH",
"18 128 OFFCURVE",
"177 -12 OFFCURVE",
"383 -12 CURVE SMOOTH",
"589 -12 OFFCURVE",
"748 128 OFFCURVE",
"748 333 CURVE SMOOTH",
"748 333 LINE",
"743 533 OFFCURVE",
"585 678 OFFCURVE",
"383 678 CURVE SMOOTH",
"180 678 OFFCURVE",
"18 534 OFFCURVE",
"18 333 CURVE SMOOTH"
);
},
{
closed = 1;
nodes = (
"223 426 OFFCURVE",
"290 500 OFFCURVE",
"383 500 CURVE SMOOTH",
"477 500 OFFCURVE",
"543 426 OFFCURVE",
"543 333 CURVE",
"543 333 LINE SMOOTH",
"543 240 OFFCURVE",
"480 166 OFFCURVE",
"383 166 CURVE SMOOTH",
"286 166 OFFCURVE",
"223 240 OFFCURVE",
"223 333 CURVE SMOOTH",
"223 333 LINE"
);
},
{
closed = 1;
nodes = (
"610 -24 LINE",
"727 90 LINE",
"457 360 LINE",
"343 245 LINE"
);
}
);
width = 766;
},
{
layerId = "A3F0DF3F-6E5C-40C3-B5F9-213A49682D58";
paths = (
{
closed = 1;
nodes = (
"59 211 LINE SMOOTH",
"32 86 OFFCURVE",
"108 -6 OFFCURVE",
"253 -6 CURVE SMOOTH",
"398 -6 OFFCURVE",
"514 86 OFFCURVE",
"541 211 CURVE SMOOTH",
"591 450 LINE SMOOTH",
"620 583 OFFCURVE",
"544 674 OFFCURVE",
"398 674 CURVE SMOOTH",
"252 674 OFFCURVE",
"138 583 OFFCURVE",
"109 450 CURVE SMOOTH"
);
},
{
closed = 1;
nodes = (
"166 567 OFFCURVE",
"263 645 OFFCURVE",
"392 645 CURVE SMOOTH",
"521 645 OFFCURVE",
"584 567 OFFCURVE",
"559 450 CURVE SMOOTH",
"509 211 LINE SMOOTH",
"485 102 OFFCURVE",
"388 24 OFFCURVE",
"260 24 CURVE SMOOTH",
"132 24 OFFCURVE",
"67 102 OFFCURVE",
"91 211 CURVE SMOOTH",
"141 450 LINE SMOOTH"
);
},
{
closed = 1;
nodes = (
"481 -10 LINE",
"508 10 LINE",
"355 204 LINE",
"329 183 LINE"
);
}
);
width = 623;
},
{
layerId = "C7F6927E-AE81-4ED8-A250-E7EE5BA9BBA4";
paths = (
{
closed = 1;
nodes = (
"36 333 LINE SMOOTH",
"-4 128 OFFCURVE",
"128 -12 OFFCURVE",
"334 -12 CURVE SMOOTH",
"540 -12 OFFCURVE",
"726 128 OFFCURVE",
"766 333 CURVE SMOOTH",
"766 333 LINE",
"800 533 OFFCURVE",
"670 678 OFFCURVE",
"468 678 CURVE SMOOTH",
"265 678 OFFCURVE",
"75 534 OFFCURVE",
"36 333 CURVE SMOOTH"
);
},
{
closed = 1;
nodes = (
"259 426 OFFCURVE",
"340 500 OFFCURVE",
"433 500 CURVE SMOOTH",
"527 500 OFFCURVE",
"579 426 OFFCURVE",
"561 333 CURVE",
"561 333 LINE SMOOTH",
"543 240 OFFCURVE",
"465 166 OFFCURVE",
"368 166 CURVE SMOOTH",
"271 166 OFFCURVE",
"223 240 OFFCURVE",
"241 333 CURVE SMOOTH",
"241 333 LINE"
);
},
{
closed = 1;
nodes = (
"558 -24 LINE",
"698 90 LINE",
"480 360 LINE",
"344 245 LINE"
);
}
);
width = 766;
},
{
associatedMasterId = "C74BD54B-DC3B-4084-AB10-E48D432FD11D";
layerId = "C904C5FD-088D-4660-AED1-28B1A7BC3F9F";
paths = (
{
closed = 1;
nodes = (
"65 211 LINE SMOOTH",
"65 86 OFFCURVE",
"161 -6 OFFCURVE",
"306 -6 CURVE SMOOTH",
"451 -6 OFFCURVE",
"547 86 OFFCURVE",
"547 211 CURVE SMOOTH",
"547 450 LINE SMOOTH",
"547 583 OFFCURVE",
"452 674 OFFCURVE",
"306 674 CURVE SMOOTH",
"160 674 OFFCURVE",
"65 583 OFFCURVE",
"65 450 CURVE SMOOTH"
);
},
{
closed = 1;
nodes = (
"97 567 OFFCURVE",
"177 645 OFFCURVE",
"306 645 CURVE SMOOTH",
"435 645 OFFCURVE",
"515 567 OFFCURVE",
"515 450 CURVE SMOOTH",
"515 211 LINE SMOOTH",
"515 102 OFFCURVE",
"434 24 OFFCURVE",
"306 24 CURVE SMOOTH",
"178 24 OFFCURVE",
"97 102 OFFCURVE",
"97 211 CURVE SMOOTH",
"97 450 LINE SMOOTH"
);
},
{
closed = 1;
nodes = (
"534 -10 LINE",
"557 10 LINE",
"363 204 LINE",
"341 183 LINE"
);
}
);
width = 623;
}
);
leftKerningGroup = C;
note = Q;
rightKerningGroup = D;
unicode = 0051;
},
{
glyphname = R;
lastChange = "2017-11-11 22:13:35 +0000";
layers = (
{
anchors = (
{
name = bottom;
position = "{290, 0}";
},
{
name = top;
position = "{290, 667}";
}
);
layerId = "C74BD54B-DC3B-4084-AB10-E48D432FD11D";
paths = (
{
closed = 1;
nodes = (
"88 0 LINE",
"120 0 LINE",
"120 288 LINE",
"280 288 LINE",
"483 0 LINE",
"524 0 LINE",
"318 288 LINE",
"430 288 OFFCURVE",
"515 361 OFFCURVE",
"515 478 CURVE SMOOTH",
"515 595 OFFCURVE",
"431 667 OFFCURVE",
"318 667 CURVE SMOOTH",
"88 667 LINE"
);
},
{
closed = 1;
nodes = (
"318 637 LINE SMOOTH",
"415 637 OFFCURVE",
"480 571 OFFCURVE",
"480 478 CURVE SMOOTH",
"480 385 OFFCURVE",
"415 318 OFFCURVE",
"318 318 CURVE SMOOTH",
"120 318 LINE",
"120 637 LINE"
);
}
);
width = 579;
},
{
anchors = (
{
name = bottom;
position = "{339, 0}";
},
{
name = top;
position = "{339, 667}";
}
);
layerId = "043C55D1-ADA8-4506-BB55-8127E14D1A36";
paths = (
{
closed = 1;
nodes = (
"54 0 LINE",
"256 0 LINE",
"256 210 LINE",
"329 210 LINE",
"421 0 LINE",
"651 0 LINE",
"530 236 LINE",
"583 262 OFFCURVE",
"650 323 OFFCURVE",
"650 438 CURVE SMOOTH",
"650 563 OFFCURVE",
"566 667 OFFCURVE",
"410 667 CURVE SMOOTH",
"54 667 LINE"
);
},
{
closed = 1;
nodes = (
"379 491 LINE SMOOTH",
"413 491 OFFCURVE",
"445 475 OFFCURVE",
"445 439 CURVE SMOOTH",
"445 402 OFFCURVE",
"413 386 OFFCURVE",
"379 386 CURVE SMOOTH",
"256 386 LINE",
"256 491 LINE"
);
}
);
width = 678;
},
{
anchors = (
{
name = bottom;
position = "{239, 0}";
},
{
name = top;
position = "{380, 667}";
}
);
layerId = "A3F0DF3F-6E5C-40C3-B5F9-213A49682D58";
paths = (
{
closed = 1;
nodes = (
"37 0 LINE",
"69 0 LINE",
"130 288 LINE",
"290 288 LINE",
"432 0 LINE",
"473 0 LINE",
"328 288 LINE",
"440 288 OFFCURVE",
"540 361 OFFCURVE",
"565 478 CURVE SMOOTH",
"590 595 OFFCURVE",
"521 667 OFFCURVE",
"408 667 CURVE SMOOTH",
"178 667 LINE"
);
},
{
closed = 1;
nodes = (
"402 637 LINE SMOOTH",
"499 637 OFFCURVE",
"550 571 OFFCURVE",
"530 478 CURVE SMOOTH",
"511 385 OFFCURVE",
"431 318 OFFCURVE",
"334 318 CURVE SMOOTH",
"136 318 LINE",
"204 637 LINE"
);
}
);
width = 579;
},
{
anchors = (
{
name = bottom;
position = "{292, 0}";
},
{
name = top;
position = "{422, 667}";
}
);
layerId = "C7F6927E-AE81-4ED8-A250-E7EE5BA9BBA4";
paths = (
{
closed = 1;
nodes = (
"3 0 LINE",
"205 0 LINE",
"249 210 LINE",
"322 210 LINE",
"370 0 LINE",
"600 0 LINE",
"529 236 LINE",
"587 262 OFFCURVE",
"667 323 OFFCURVE",
"692 438 CURVE SMOOTH",
"718 563 OFFCURVE",
"656 667 OFFCURVE",
"500 667 CURVE SMOOTH",
"144 667 LINE"
);
},
{
closed = 1;
nodes = (
"432 491 LINE SMOOTH",
"466 491 OFFCURVE",
"495 475 OFFCURVE",
"487 439 CURVE SMOOTH",
"479 402 OFFCURVE",
"444 386 OFFCURVE",
"410 386 CURVE SMOOTH",
"287 386 LINE",
"309 491 LINE"
);
}
);
width = 678;
},
{
anchors = (
{
name = bottom;
position = "{290, 0}";
},
{
name = top;
position = "{290, 667}";
}
);
associatedMasterId = "C74BD54B-DC3B-4084-AB10-E48D432FD11D";
layerId = "C904C5FD-088D-4660-AED1-28B1A7BC3F9F";
paths = (
{
closed = 1;
nodes = (
"88 0 LINE",
"120 0 LINE",
"120 288 LINE",
"280 288 LINE",
"483 0 LINE",
"524 0 LINE",
"318 288 LINE",
"430 288 OFFCURVE",
"515 361 OFFCURVE",
"515 478 CURVE SMOOTH",
"515 595 OFFCURVE",
"431 667 OFFCURVE",
"318 667 CURVE SMOOTH",
"88 667 LINE"
);
},
{
closed = 1;
nodes = (
"318 637 LINE SMOOTH",
"415 637 OFFCURVE",
"480 571 OFFCURVE",
"480 478 CURVE SMOOTH",
"480 385 OFFCURVE",
"415 318 OFFCURVE",
"318 318 CURVE SMOOTH",
"120 318 LINE",
"120 637 LINE"
);
}
);
width = 579;
}
);
leftKerningGroup = exclam;
note = R;
rightKerningGroup = R;
unicode = 0052;
},
{
glyphname = S;
lastChange = "2017-11-16 18:56:01 +0000";
layers = (
{
anchors = (
{
name = bottom;
position = "{288, 0}";
},
{
name = top;
position = "{288, 667}";
}
);
layerId = "C74BD54B-DC3B-4084-AB10-E48D432FD11D";
paths = (
{
closed = 1;
nodes = (
"448 647 OFFCURVE",
"376 678 OFFCURVE",
"283 678 CURVE SMOOTH",
"167 678 OFFCURVE",
"74 612 OFFCURVE",
"74 508 CURVE SMOOTH",
"74 274 OFFCURVE",
"479 389 OFFCURVE",
"479 169 CURVE SMOOTH",
"479 71 OFFCURVE",
"400 18 OFFCURVE",
"286 18 CURVE SMOOTH",
"202 18 OFFCURVE",
"133 51 OFFCURVE",
"79 117 CURVE",
"53 94 LINE",
"104 30 OFFCURVE",
"186 -12 OFFCURVE",
"286 -12 CURVE SMOOTH",
"416 -12 OFFCURVE",
"514 51 OFFCURVE",
"514 169 CURVE SMOOTH",
"514 236 OFFCURVE",
"481 285 OFFCURVE",
"434 312 CURVE SMOOTH",
"357 356 OFFCURVE",
"251 375 OFFCURVE",
"190 401 CURVE SMOOTH",
"142 421 OFFCURVE",
"109 457 OFFCURVE",
"109 508 CURVE SMOOTH",
"109 589 OFFCURVE",
"184 648 OFFCURVE",
"283 648 CURVE SMOOTH",
"366 648 OFFCURVE",
"429 619 OFFCURVE",
"474 561 CURVE",
"499 584 LINE"
);
}
);
width = 575;
},
{
anchors = (
{
name = bottom;
position = "{307, 0}";
},
{
name = top;
position = "{307, 667}";
}
);
layerId = "043C55D1-ADA8-4506-BB55-8127E14D1A36";
paths = (
{
closed = 1;
nodes = (
"509 646 OFFCURVE",
"411 677 OFFCURVE",
"302 677 CURVE SMOOTH",
"119 677 OFFCURVE",
"25 569 OFFCURVE",
"25 456 CURVE SMOOTH",
"25 193 OFFCURVE",
"397 258 OFFCURVE",
"397 194 CURVE SMOOTH",
"397 168 OFFCURVE",
"361 158 OFFCURVE",
"323 158 CURVE SMOOTH",
"233 158 OFFCURVE",
"158 196 OFFCURVE",
"108 244 CURVE",
"3 94 LINE",
"74 30 OFFCURVE",
"171 -12 OFFCURVE",
"313 -12 CURVE SMOOTH",
"492 -12 OFFCURVE",
"601 73 OFFCURVE",
"601 220 CURVE SMOOTH",
"601 274 OFFCURVE",
"583 314 OFFCURVE",
"555 344 CURVE SMOOTH",
"507 395 OFFCURVE",
"430 416 OFFCURVE",
"363 430 CURVE SMOOTH",
"291 445 OFFCURVE",
"230 452 OFFCURVE",
"230 477 CURVE SMOOTH",
"230 494 OFFCURVE",
"241 507 OFFCURVE",
"281 507 CURVE SMOOTH",
"344 507 OFFCURVE",
"419 485 OFFCURVE",
"477 441 CURVE",
"585 584 LINE"
);
}
);
width = 613;
},
{
anchors = (
{
name = bottom;
position = "{237, 0}";
},
{
name = top;
position = "{378, 667}";
}
);
layerId = "A3F0DF3F-6E5C-40C3-B5F9-213A49682D58";
paths = (
{
closed = 1;
nodes = (
"534 647 OFFCURVE",
"469 678 OFFCURVE",
"376 678 CURVE SMOOTH",
"260 678 OFFCURVE",
"153 612 OFFCURVE",
"131 508 CURVE SMOOTH",
"81 274 OFFCURVE",
"510 389 OFFCURVE",
"464 169 CURVE SMOOTH",
"443 71 OFFCURVE",
"352 18 OFFCURVE",
"238 18 CURVE SMOOTH",
"154 18 OFFCURVE",
"93 51 OFFCURVE",
"53 117 CURVE",
"22 94 LINE",
"59 30 OFFCURVE",
"132 -12 OFFCURVE",
"232 -12 CURVE SMOOTH",
"362 -12 OFFCURVE",
"474 51 OFFCURVE",
"499 169 CURVE SMOOTH",
"513 236 OFFCURVE",
"490 285 OFFCURVE",
"449 312 CURVE SMOOTH",
"381 356 OFFCURVE",
"279 375 OFFCURVE",
"224 401 CURVE SMOOTH",
"180 421 OFFCURVE",
"155 457 OFFCURVE",
"166 508 CURVE SMOOTH",
"183 589 OFFCURVE",
"270 648 OFFCURVE",
"369 648 CURVE SMOOTH",
"452 648 OFFCURVE",
"509 619 OFFCURVE",
"542 561 CURVE",
"572 584 LINE"
);
}
);
width = 575;
},
{
anchors = (
{
name = bottom;
position = "{260, 0}";
},
{
name = top;
position = "{390, 667}";
}
);
layerId = "C7F6927E-AE81-4ED8-A250-E7EE5BA9BBA4";
paths = (
{
closed = 1;
nodes = (
"588 646 OFFCURVE",
"496 677 OFFCURVE",
"387 677 CURVE SMOOTH",
"204 677 OFFCURVE",
"89 569 OFFCURVE",
"67 456 CURVE SMOOTH",
"16 193 OFFCURVE",
"400 258 OFFCURVE",
"388 194 CURVE SMOOTH",
"383 168 OFFCURVE",
"345 158 OFFCURVE",
"307 158 CURVE SMOOTH",
"217 158 OFFCURVE",
"149 196 OFFCURVE",
"108 244 CURVE",
"-26 94 LINE",
"33 30 OFFCURVE",
"122 -12 OFFCURVE",
"264 -12 CURVE SMOOTH",
"443 -12 OFFCURVE",
"568 73 OFFCURVE",
"597 220 CURVE SMOOTH",
"607 274 OFFCURVE",
"597 314 OFFCURVE",
"575 344 CURVE SMOOTH",
"537 395 OFFCURVE",
"464 416 OFFCURVE",
"400 430 CURVE SMOOTH",
"331 445 OFFCURVE",
"271 452 OFFCURVE",
"276 477 CURVE SMOOTH",
"279 494 OFFCURVE",
"293 507 OFFCURVE",
"333 507 CURVE SMOOTH",
"396 507 OFFCURVE",
"466 485 OFFCURVE",
"516 441 CURVE",
"652 584 LINE"
);
}
);
width = 613;
},
{
anchors = (
{
name = bottom;
position = "{288, 0}";
},
{
name = top;
position = "{288, 667}";
}
);
associatedMasterId = "C74BD54B-DC3B-4084-AB10-E48D432FD11D";
layerId = "C904C5FD-088D-4660-AED1-28B1A7BC3F9F";
paths = (
{
closed = 1;
nodes = (
"448 647 OFFCURVE",
"376 678 OFFCURVE",
"283 678 CURVE SMOOTH",
"167 678 OFFCURVE",
"74 612 OFFCURVE",
"74 508 CURVE SMOOTH",
"74 274 OFFCURVE",
"479 389 OFFCURVE",
"479 169 CURVE SMOOTH",
"479 71 OFFCURVE",
"400 18 OFFCURVE",
"286 18 CURVE SMOOTH",
"202 18 OFFCURVE",
"133 51 OFFCURVE",
"79 117 CURVE",
"53 94 LINE",
"104 30 OFFCURVE",
"186 -12 OFFCURVE",
"286 -12 CURVE SMOOTH",
"416 -12 OFFCURVE",
"514 51 OFFCURVE",
"514 169 CURVE SMOOTH",
"514 236 OFFCURVE",
"481 285 OFFCURVE",
"434 312 CURVE SMOOTH",
"357 356 OFFCURVE",
"251 375 OFFCURVE",
"190 401 CURVE SMOOTH",
"142 421 OFFCURVE",
"109 457 OFFCURVE",
"109 508 CURVE SMOOTH",
"109 589 OFFCURVE",
"184 648 OFFCURVE",
"283 648 CURVE SMOOTH",
"366 648 OFFCURVE",
"429 619 OFFCURVE",
"474 561 CURVE",
"499 584 LINE"
);
}
);
width = 575;
}
);
leftKerningGroup = S;
note = S;
rightKerningGroup = S;
unicode = 0053;
},
{
glyphname = T;
lastChange = "2017-11-11 22:13:35 +0000";
layers = (
{
anchors = (
{
name = bottom;
position = "{280, 0}";
},
{
name = center;
position = "{280, 334}";
},
{
name = top;
position = "{280, 667}";
}
);
layerId = "C74BD54B-DC3B-4084-AB10-E48D432FD11D";
paths = (
{
closed = 1;
nodes = (
"38 637 LINE",
"263 637 LINE",
"263 0 LINE",
"295 0 LINE",
"295 637 LINE",
"521 637 LINE",
"521 667 LINE",
"38 667 LINE"
);
}
);
width = 559;
},
{
anchors = (
{
name = bottom;
position = "{298, 0}";
},
{
name = center;
position = "{298, 334}";
},
{
name = top;
position = "{298, 667}";
}
);
layerId = "043C55D1-ADA8-4506-BB55-8127E14D1A36";
paths = (
{
closed = 1;
nodes = (
"18 491 LINE",
"197 491 LINE",
"197 0 LINE",
"399 0 LINE",
"399 491 LINE",
"577 491 LINE",
"577 667 LINE",
"18 667 LINE"
);
}
);
width = 595;
},
{
anchors = (
{
name = bottom;
position = "{229, 0}";
},
{
name = center;
position = "{300, 334}";
},
{
name = top;
position = "{370, 667}";
}
);
layerId = "A3F0DF3F-6E5C-40C3-B5F9-213A49682D58";
paths = (
{
closed = 1;
nodes = (
"122 637 LINE",
"347 637 LINE",
"212 0 LINE",
"244 0 LINE",
"379 637 LINE",
"605 637 LINE",
"611 667 LINE",
"128 667 LINE"
);
}
);
width = 559;
},
{
anchors = (
{
name = bottom;
position = "{251, 0}";
},
{
name = center;
position = "{316, 334}";
},
{
name = top;
position = "{381, 667}";
}
);
layerId = "C7F6927E-AE81-4ED8-A250-E7EE5BA9BBA4";
paths = (
{
closed = 1;
nodes = (
"71 491 LINE",
"250 491 LINE",
"146 0 LINE",
"348 0 LINE",
"452 491 LINE",
"630 491 LINE",
"667 667 LINE",
"108 667 LINE"
);
}
);
width = 595;
},
{
anchors = (
{
name = bottom;
position = "{280, 0}";
},
{
name = center;
position = "{280, 334}";
},
{
name = top;
position = "{280, 667}";
}
);
associatedMasterId = "C74BD54B-DC3B-4084-AB10-E48D432FD11D";
layerId = "C904C5FD-088D-4660-AED1-28B1A7BC3F9F";
paths = (
{
closed = 1;
nodes = (
"38 637 LINE",
"263 637 LINE",
"263 0 LINE",
"295 0 LINE",
"295 637 LINE",
"521 637 LINE",
"521 667 LINE",
"38 667 LINE"
);
}
);
width = 559;
}
);
leftKerningGroup = T;
note = T;
rightKerningGroup = T;
unicode = 0054;
},
{
glyphname = Tbar;
lastChange = "2017-11-16 16:53:58 +0000";
layers = (
{
components = (
{
name = T;
}
);
layerId = "C74BD54B-DC3B-4084-AB10-E48D432FD11D";
paths = (
{
closed = 1;
nodes = (
"461 365 LINE",
"461 392 LINE",
"98 392 LINE",
"98 365 LINE"
);
}
);
width = 559;
},
{
components = (
{
name = T;
}
);
layerId = "043C55D1-ADA8-4506-BB55-8127E14D1A36";
paths = (
{
closed = 1;
nodes = (
"481 227 LINE",
"481 376 LINE",
"118 376 LINE",
"118 227 LINE"
);
}
);
width = 595;
},
{
components = (
{
name = T;
}
);
layerId = "A3F0DF3F-6E5C-40C3-B5F9-213A49682D58";
paths = (
{
closed = 1;
nodes = (
"487 365 LINE",
"493 392 LINE",
"130 392 LINE",
"124 365 LINE"
);
}
);
width = 559;
},
{
components = (
{
name = T;
}
);
layerId = "C7F6927E-AE81-4ED8-A250-E7EE5BA9BBA4";
paths = (
{
closed = 1;
nodes = (
"478 227 LINE",
"510 376 LINE",
"147 376 LINE",
"115 227 LINE"
);
}
);
width = 595;
},
{
associatedMasterId = "C74BD54B-DC3B-4084-AB10-E48D432FD11D";
components = (
{
name = T;
}
);
layerId = "C904C5FD-088D-4660-AED1-28B1A7BC3F9F";
paths = (
{
closed = 1;
nodes = (
"461 365 LINE",
"461 392 LINE",
"98 392 LINE",
"98 365 LINE"
);
}
);
width = 559;
}
);
unicode = 0166;
},
{
glyphname = U;
lastChange = "2017-11-11 22:13:35 +0000";
layers = (
{
anchors = (
{
name = bottom;
position = "{336, 0}";
},
{
name = ogonek;
position = "{390, 0}";
},
{
name = top;
position = "{336, 667}";
},
{
name = topright;
position = "{652, 667}";
}
);
layerId = "C74BD54B-DC3B-4084-AB10-E48D432FD11D";
paths = (
{
closed = 1;
nodes = (
"88 253 LINE SMOOTH",
"88 86 OFFCURVE",
"176 -12 OFFCURVE",
"336 -12 CURVE SMOOTH",
"498 -12 OFFCURVE",
"584 89 OFFCURVE",
"584 253 CURVE SMOOTH",
"584 667 LINE",
"552 667 LINE",
"552 253 LINE SMOOTH",
"552 104 OFFCURVE",
"475 18 OFFCURVE",
"336 18 CURVE SMOOTH",
"197 18 OFFCURVE",
"120 104 OFFCURVE",
"120 253 CURVE SMOOTH",
"120 667 LINE",
"88 667 LINE"
);
}
);
width = 672;
},
{
anchors = (
{
name = bottom;
position = "{384, 0}";
},
{
name = ogonek;
position = "{466, 13}";
},
{
name = top;
position = "{384, 667}";
},
{
name = topright;
position = "{747, 667}";
}
);
layerId = "043C55D1-ADA8-4506-BB55-8127E14D1A36";
paths = (
{
closed = 1;
nodes = (
"54 274 LINE SMOOTH",
"54 109 OFFCURVE",
"159 -12 OFFCURVE",
"384 -12 CURVE SMOOTH",
"609 -12 OFFCURVE",
"713 109 OFFCURVE",
"713 275 CURVE SMOOTH",
"713 667 LINE",
"508 667 LINE",
"508 281 LINE SMOOTH",
"508 217 OFFCURVE",
"466 166 OFFCURVE",
"384 166 CURVE SMOOTH",
"301 166 OFFCURVE",
"259 217 OFFCURVE",
"259 281 CURVE SMOOTH",
"259 667 LINE",
"54 667 LINE"
);
}
);
width = 767;
},
{
anchors = (
{
name = bottom;
position = "{285, 0}";
},
{
name = ogonek;
position = "{339, 0}";
},
{
name = top;
position = "{426, 667}";
},
{
name = topright;
position = "{742, 667}";
}
);
layerId = "A3F0DF3F-6E5C-40C3-B5F9-213A49682D58";
paths = (
{
closed = 1;
nodes = (
"90 253 LINE SMOOTH",
"55 86 OFFCURVE",
"122 -12 OFFCURVE",
"282 -12 CURVE SMOOTH",
"444 -12 OFFCURVE",
"552 89 OFFCURVE",
"586 253 CURVE SMOOTH",
"674 667 LINE",
"642 667 LINE",
"554 253 LINE SMOOTH",
"523 104 OFFCURVE",
"427 18 OFFCURVE",
"288 18 CURVE SMOOTH",
"149 18 OFFCURVE",
"91 104 OFFCURVE",
"122 253 CURVE SMOOTH",
"210 667 LINE",
"178 667 LINE"
);
}
);
width = 672;
},
{
anchors = (
{
name = bottom;
position = "{333, 0}";
},
{
name = ogonek;
position = "{417, 13}";
},
{
name = top;
position = "{474, 667}";
},
{
name = topright;
position = "{837, 667}";
}
);
layerId = "C7F6927E-AE81-4ED8-A250-E7EE5BA9BBA4";
paths = (
{
closed = 1;
nodes = (
"61 274 LINE SMOOTH",
"26 109 OFFCURVE",
"105 -12 OFFCURVE",
"330 -12 CURVE SMOOTH",
"555 -12 OFFCURVE",
"685 109 OFFCURVE",
"720 275 CURVE SMOOTH",
"803 667 LINE",
"598 667 LINE",
"516 281 LINE SMOOTH",
"503 217 OFFCURVE",
"450 166 OFFCURVE",
"368 166 CURVE SMOOTH",
"285 166 OFFCURVE",
"254 217 OFFCURVE",
"267 281 CURVE SMOOTH",
"349 667 LINE",
"144 667 LINE"
);
}
);
width = 767;
},
{
anchors = (
{
name = bottom;
position = "{336, 0}";
},
{
name = ogonek;
position = "{390, 0}";
},
{
name = top;
position = "{336, 667}";
},
{
name = topright;
position = "{652, 667}";
}
);
associatedMasterId = "C74BD54B-DC3B-4084-AB10-E48D432FD11D";
layerId = "C904C5FD-088D-4660-AED1-28B1A7BC3F9F";
paths = (
{
closed = 1;
nodes = (
"88 253 LINE SMOOTH",
"88 86 OFFCURVE",
"176 -12 OFFCURVE",
"336 -12 CURVE SMOOTH",
"498 -12 OFFCURVE",
"584 89 OFFCURVE",
"584 253 CURVE SMOOTH",
"584 667 LINE",
"552 667 LINE",
"552 253 LINE SMOOTH",
"552 104 OFFCURVE",
"475 18 OFFCURVE",
"336 18 CURVE SMOOTH",
"197 18 OFFCURVE",
"120 104 OFFCURVE",
"120 253 CURVE SMOOTH",
"120 667 LINE",
"88 667 LINE"
);
}
);
width = 672;
}
);
leftKerningGroup = U;
note = U;
rightKerningGroup = J;
unicode = 0055;
},
{
glyphname = V;
lastChange = "2017-11-11 22:13:35 +0000";
layers = (
{
layerId = "C74BD54B-DC3B-4084-AB10-E48D432FD11D";
paths = (
{
closed = 1;
nodes = (
"299 0 LINE",
"337 0 LINE",
"615 667 LINE",
"578 667 LINE",
"318 37 LINE",
"58 667 LINE",
"21 667 LINE"
);
}
);
width = 636;
},
{
layerId = "043C55D1-ADA8-4506-BB55-8127E14D1A36";
paths = (
{
closed = 1;
nodes = (
"228 0 LINE",
"482 0 LINE",
"728 667 LINE",
"499 667 LINE",
"355 218 LINE",
"211 667 LINE",
"-18 667 LINE"
);
}
);
width = 710;
},
{
layerId = "A3F0DF3F-6E5C-40C3-B5F9-213A49682D58";
paths = (
{
closed = 1;
nodes = (
"248 0 LINE",
"286 0 LINE",
"705 667 LINE",
"668 667 LINE",
"275 37 LINE",
"148 667 LINE",
"111 667 LINE"
);
}
);
width = 636;
},
{
layerId = "C7F6927E-AE81-4ED8-A250-E7EE5BA9BBA4";
paths = (
{
closed = 1;
nodes = (
"177 0 LINE",
"431 0 LINE",
"818 667 LINE",
"589 667 LINE",
"350 218 LINE",
"301 667 LINE",
"72 667 LINE"
);
}
);
width = 710;
},
{
associatedMasterId = "C74BD54B-DC3B-4084-AB10-E48D432FD11D";
layerId = "C904C5FD-088D-4660-AED1-28B1A7BC3F9F";
paths = (
{
closed = 1;
nodes = (
"299 0 LINE",
"337 0 LINE",
"615 667 LINE",
"578 667 LINE",
"318 37 LINE",
"58 667 LINE",
"21 667 LINE"
);
}
);
width = 636;
}
);
leftKerningGroup = V;
note = V;
rightKerningGroup = V;
unicode = 0056;
},
{
glyphname = W;
lastChange = "2017-11-11 22:13:35 +0000";
layers = (
{
anchors = (
{
name = bottom;
position = "{426, 0}";
},
{
name = top;
position = "{426, 667}";
}
);
layerId = "C74BD54B-DC3B-4084-AB10-E48D432FD11D";
paths = (
{
closed = 1;
nodes = (
"215 0 LINE",
"253 0 LINE",
"426 607 LINE",
"599 0 LINE",
"637 0 LINE",
"827 667 LINE",
"792 667 LINE",
"618 48 LINE",
"443 667 LINE",
"409 667 LINE",
"234 48 LINE",
"60 667 LINE",
"25 667 LINE"
);
}
);
width = 852;
},
{
anchors = (
{
name = bottom;
position = "{477, 0}";
},
{
name = top;
position = "{477, 667}";
}
);
layerId = "043C55D1-ADA8-4506-BB55-8127E14D1A36";
paths = (
{
closed = 1;
nodes = (
"179 0 LINE",
"391 0 LINE",
"477 378 LINE",
"563 0 LINE",
"775 0 LINE",
"966 667 LINE",
"739 667 LINE",
"654 259 LINE",
"553 667 LINE",
"401 667 LINE",
"300 259 LINE",
"214 667 LINE",
"-12 667 LINE"
);
}
);
width = 954;
},
{
anchors = (
{
name = bottom;
position = "{375, 0}";
},
{
name = top;
position = "{516, 667}";
}
);
layerId = "A3F0DF3F-6E5C-40C3-B5F9-213A49682D58";
paths = (
{
closed = 1;
nodes = (
"164 0 LINE",
"202 0 LINE",
"504 607 LINE",
"548 0 LINE",
"586 0 LINE",
"917 667 LINE",
"882 667 LINE",
"577 48 LINE",
"533 667 LINE",
"499 667 LINE",
"193 48 LINE",
"150 667 LINE",
"115 667 LINE"
);
}
);
width = 852;
},
{
anchors = (
{
name = bottom;
position = "{430, 0}";
},
{
name = top;
position = "{560, 667}";
}
);
layerId = "C7F6927E-AE81-4ED8-A250-E7EE5BA9BBA4";
paths = (
{
closed = 1;
nodes = (
"128 0 LINE",
"340 0 LINE",
"506 378 LINE",
"512 0 LINE",
"724 0 LINE",
"1056 667 LINE",
"829 667 LINE",
"658 259 LINE",
"643 667 LINE",
"491 667 LINE",
"304 259 LINE",
"304 667 LINE",
"78 667 LINE"
);
}
);
width = 954;
},
{
anchors = (
{
name = bottom;
position = "{426, 0}";
},
{
name = top;
position = "{426, 667}";
}
);
associatedMasterId = "C74BD54B-DC3B-4084-AB10-E48D432FD11D";
layerId = "C904C5FD-088D-4660-AED1-28B1A7BC3F9F";
paths = (
{
closed = 1;
nodes = (
"215 0 LINE",
"253 0 LINE",
"426 607 LINE",
"599 0 LINE",
"637 0 LINE",
"827 667 LINE",
"792 667 LINE",
"618 48 LINE",
"443 667 LINE",
"409 667 LINE",
"234 48 LINE",
"60 667 LINE",
"25 667 LINE"
);
}
);
width = 852;
}
);
leftKerningGroup = W;
note = W;
rightKerningGroup = W;
unicode = 0057;
},
{
glyphname = X;
lastChange = "2017-11-15 02:30:59 +0000";
layers = (
{
layerId = "C74BD54B-DC3B-4084-AB10-E48D432FD11D";
paths = (
{
closed = 1;
nodes = (
"301 342 LINE",
"25 0 LINE",
"67 0 LINE",
"319 318 LINE",
"571 0 LINE",
"613 0 LINE",
"337 343 LINE",
"598 667 LINE",
"555 667 LINE",
"319 368 LINE",
"83 667 LINE",
"40 667 LINE"
);
}
);
width = 638;
},
{
layerId = "043C55D1-ADA8-4506-BB55-8127E14D1A36";
paths = (
{
closed = 1;
nodes = (
"205 342 LINE",
"-18 0 LINE",
"220 0 LINE",
"342 204 LINE",
"464 0 LINE",
"702 0 LINE",
"479 343 LINE",
"687 667 LINE",
"448 667 LINE",
"342 477 LINE",
"234 667 LINE",
"-3 667 LINE"
);
}
);
width = 684;
},
{
layerId = "A3F0DF3F-6E5C-40C3-B5F9-213A49682D58";
paths = (
{
closed = 1;
nodes = (
"322 342 LINE",
"-26 0 LINE",
"16 0 LINE",
"335 318 LINE",
"520 0 LINE",
"562 0 LINE",
"359 343 LINE",
"688 667 LINE",
"645 667 LINE",
"346 368 LINE",
"173 667 LINE",
"130 667 LINE"
);
}
);
width = 638;
},
{
layerId = "C7F6927E-AE81-4ED8-A250-E7EE5BA9BBA4";
paths = (
{
closed = 1;
nodes = (
"226 342 LINE",
"-69 0 LINE",
"169 0 LINE",
"334 204 LINE",
"413 0 LINE",
"651 0 LINE",
"501 343 LINE",
"777 667 LINE",
"538 667 LINE",
"392 477 LINE",
"324 667 LINE",
"87 667 LINE"
);
}
);
width = 684;
},
{
associatedMasterId = "C74BD54B-DC3B-4084-AB10-E48D432FD11D";
layerId = "C904C5FD-088D-4660-AED1-28B1A7BC3F9F";
paths = (
{
closed = 1;
nodes = (
"301 342 LINE",
"25 0 LINE",
"67 0 LINE",
"319 318 LINE",
"571 0 LINE",
"613 0 LINE",
"337 343 LINE",
"598 667 LINE",
"555 667 LINE",
"319 368 LINE",
"83 667 LINE",
"40 667 LINE"
);
}
);
width = 638;
}
);
leftKerningGroup = X;
note = X;
rightKerningGroup = X;
unicode = 0058;
},
{
glyphname = Y;
lastChange = "2017-11-15 02:30:31 +0000";
layers = (
{
anchors = (
{
name = bottom;
position = "{305, 0}";
},
{
name = top;
position = "{305, 667}";
},
{
name = topleft;
position = "{20, 667}";
}
);
layerId = "C74BD54B-DC3B-4084-AB10-E48D432FD11D";
paths = (
{
closed = 1;
nodes = (
"289 289 LINE",
"289 0 LINE",
"321 0 LINE",
"321 289 LINE",
"589 667 LINE",
"548 667 LINE",
"305 321 LINE",
"62 667 LINE",
"21 667 LINE"
);
}
);
width = 610;
},
{
anchors = (
{
name = bottom;
position = "{332, 0}";
},
{
name = top;
position = "{332, 667}";
},
{
name = topleft;
position = "{20, 667}";
}
);
layerId = "043C55D1-ADA8-4506-BB55-8127E14D1A36";
paths = (
{
closed = 1;
nodes = (
"232 265 LINE",
"232 0 LINE",
"434 0 LINE",
"434 265 LINE",
"682 667 LINE",
"455 667 LINE",
"333 442 LINE",
"209 667 LINE",
"-18 667 LINE"
);
}
);
width = 664;
},
{
anchors = (
{
name = bottom;
position = "{254, 0}";
},
{
name = top;
position = "{395, 667}";
},
{
name = topleft;
position = "{110, 667}";
}
);
layerId = "A3F0DF3F-6E5C-40C3-B5F9-213A49682D58";
paths = (
{
closed = 1;
nodes = (
"299 289 LINE",
"238 0 LINE",
"270 0 LINE",
"331 289 LINE",
"679 667 LINE",
"638 667 LINE",
"322 321 LINE",
"152 667 LINE",
"111 667 LINE"
);
}
);
width = 610;
},
{
anchors = (
{
name = bottom;
position = "{285, 0}";
},
{
name = top;
position = "{415, 667}";
},
{
name = topleft;
position = "{103, 667}";
}
);
layerId = "C7F6927E-AE81-4ED8-A250-E7EE5BA9BBA4";
paths = (
{
closed = 1;
nodes = (
"237 265 LINE",
"181 0 LINE",
"383 0 LINE",
"439 265 LINE",
"772 667 LINE",
"545 667 LINE",
"376 442 LINE",
"299 667 LINE",
"72 667 LINE"
);
}
);
width = 664;
},
{
anchors = (
{
name = bottom;
position = "{305, 0}";
},
{
name = top;
position = "{305, 667}";
},
{
name = topleft;
position = "{20, 667}";
}
);
associatedMasterId = "C74BD54B-DC3B-4084-AB10-E48D432FD11D";
layerId = "C904C5FD-088D-4660-AED1-28B1A7BC3F9F";
paths = (
{
closed = 1;
nodes = (
"289 289 LINE",
"289 0 LINE",
"321 0 LINE",
"321 289 LINE",
"589 667 LINE",
"548 667 LINE",
"305 321 LINE",
"62 667 LINE",
"21 667 LINE"
);
}
);
width = 610;
}
);
leftKerningGroup = Y;
note = Y;
rightKerningGroup = Y;
unicode = 0059;
},
{
glyphname = Z;
lastChange = "2017-11-11 22:13:35 +0000";
layers = (
{
anchors = (
{
name = bottom;
position = "{289, 0}";
},
{
name = top;
position = "{289, 667}";
}
);
layerId = "C74BD54B-DC3B-4084-AB10-E48D432FD11D";
paths = (
{
closed = 1;
nodes = (
"53 637 LINE",
"480 637 LINE",
"53 30 LINE",
"53 0 LINE",
"525 0 LINE",
"525 30 LINE",
"90 30 LINE",
"518 637 LINE",
"518 667 LINE",
"53 667 LINE"
);
}
);
width = 578;
},
{
anchors = (
{
name = bottom;
position = "{300, 0}";
},
{
name = top;
position = "{300, 667}";
}
);
layerId = "043C55D1-ADA8-4506-BB55-8127E14D1A36";
paths = (
{
closed = 1;
nodes = (
"36 491 LINE",
"290 491 LINE",
"36 160 LINE",
"36 0 LINE",
"564 0 LINE",
"564 176 LINE",
"302 176 LINE",
"557 508 LINE",
"557 667 LINE",
"36 667 LINE"
);
}
);
width = 600;
},
{
anchors = (
{
name = bottom;
position = "{238, 0}";
},
{
name = top;
position = "{379, 667}";
}
);
layerId = "A3F0DF3F-6E5C-40C3-B5F9-213A49682D58";
paths = (
{
closed = 1;
nodes = (
"137 637 LINE",
"564 637 LINE",
"8 30 LINE",
"2 0 LINE",
"474 0 LINE",
"480 30 LINE",
"45 30 LINE",
"602 637 LINE",
"608 667 LINE",
"143 667 LINE"
);
}
);
width = 578;
},
{
anchors = (
{
name = bottom;
position = "{253, 0}";
},
{
name = top;
position = "{383, 667}";
}
);
layerId = "C7F6927E-AE81-4ED8-A250-E7EE5BA9BBA4";
paths = (
{
closed = 1;
nodes = (
"89 491 LINE",
"343 491 LINE",
"19 160 LINE",
"-15 0 LINE",
"513 0 LINE",
"550 176 LINE",
"288 176 LINE",
"614 508 LINE",
"647 667 LINE",
"126 667 LINE"
);
}
);
width = 600;
},
{
anchors = (
{
name = bottom;
position = "{289, 0}";
},
{
name = top;
position = "{289, 667}";
}
);
associatedMasterId = "C74BD54B-DC3B-4084-AB10-E48D432FD11D";
layerId = "C904C5FD-088D-4660-AED1-28B1A7BC3F9F";
paths = (
{
closed = 1;
nodes = (
"53 637 LINE",
"480 637 LINE",
"53 30 LINE",
"53 0 LINE",
"525 0 LINE",
"525 30 LINE",
"90 30 LINE",
"518 637 LINE",
"518 667 LINE",
"53 667 LINE"
);
}
);
width = 578;
}
);
leftKerningGroup = Z;
note = Z;
rightKerningGroup = Z;
unicode = 005A;
},
{
glyphname = C.001;
lastChange = "2017-11-15 00:22:47 +0000";
layers = (
{
anchors = (
{
name = bottom;
position = "{398, 0}";
},
{
name = top;
position = "{398, 667}";
}
);
layerId = "C74BD54B-DC3B-4084-AB10-E48D432FD11D";
paths = (
{
closed = 1;
nodes = (
"491 -12 OFFCURVE",
"568 23 OFFCURVE",
"631 94 CURVE",
"605 115 LINE",
"557 55 OFFCURVE",
"481 18 OFFCURVE",
"398 18 CURVE SMOOTH",
"229 18 OFFCURVE",
"100 149 OFFCURVE",
"100 333 CURVE SMOOTH",
"100 518 OFFCURVE",
"229 648 OFFCURVE",
"398 648 CURVE SMOOTH",
"481 648 OFFCURVE",
"557 611 OFFCURVE",
"605 551 CURVE",
"630 573 LINE",
"569 643 OFFCURVE",
"492 678 OFFCURVE",
"398 678 CURVE SMOOTH",
"210 678 OFFCURVE",
"65 534 OFFCURVE",
"65 333 CURVE SMOOTH",
"65 132 OFFCURVE",
"210 -12 OFFCURVE",
"398 -12 CURVE SMOOTH"
);
}
);
width = 667;
},
{
anchors = (
{
name = bottom;
position = "{383, 0}";
},
{
name = top;
position = "{385, 667}";
}
);
layerId = "043C55D1-ADA8-4506-BB55-8127E14D1A36";
paths = (
{
closed = 1;
nodes = (
"560 -12 OFFCURVE",
"649 94 OFFCURVE",
"688 183 CURVE",
"514 263 LINE",
"497 211 OFFCURVE",
"445 166 OFFCURVE",
"385 166 CURVE SMOOTH",
"288 166 OFFCURVE",
"223 240 OFFCURVE",
"223 333 CURVE SMOOTH",
"223 426 OFFCURVE",
"288 500 OFFCURVE",
"385 500 CURVE SMOOTH",
"445 500 OFFCURVE",
"497 455 OFFCURVE",
"514 403 CURVE",
"688 484 LINE",
"648 576 OFFCURVE",
"560 678 OFFCURVE",
"385 678 CURVE SMOOTH",
"176 678 OFFCURVE",
"18 539 OFFCURVE",
"18 333 CURVE SMOOTH",
"18 128 OFFCURVE",
"176 -12 OFFCURVE",
"385 -12 CURVE SMOOTH"
);
}
);
width = 697;
},
{
anchors = (
{
name = bottom;
position = "{347, 0}";
},
{
name = top;
position = "{488, 667}";
}
);
layerId = "A3F0DF3F-6E5C-40C3-B5F9-213A49682D58";
paths = (
{
closed = 1;
nodes = (
"437 -12 OFFCURVE",
"522 23 OFFCURVE",
"600 94 CURVE",
"578 115 LINE",
"517 55 OFFCURVE",
"433 18 OFFCURVE",
"350 18 CURVE SMOOTH",
"181 18 OFFCURVE",
"80 149 OFFCURVE",
"119 333 CURVE SMOOTH",
"159 518 OFFCURVE",
"315 648 OFFCURVE",
"484 648 CURVE SMOOTH",
"567 648 OFFCURVE",
"636 611 OFFCURVE",
"671 551 CURVE",
"700 573 LINE",
"654 643 OFFCURVE",
"585 678 OFFCURVE",
"491 678 CURVE SMOOTH",
"303 678 OFFCURVE",
"127 534 OFFCURVE",
"84 333 CURVE SMOOTH",
"42 132 OFFCURVE",
"156 -12 OFFCURVE",
"344 -12 CURVE SMOOTH"
);
}
);
width = 667;
},
{
anchors = (
{
name = bottom;
position = "{332, 0}";
},
{
name = top;
position = "{475, 667}";
}
);
layerId = "C7F6927E-AE81-4ED8-A250-E7EE5BA9BBA4";
paths = (
{
closed = 1;
nodes = (
"506 -12 OFFCURVE",
"618 94 OFFCURVE",
"676 183 CURVE",
"519 263 LINE",
"491 211 OFFCURVE",
"429 166 OFFCURVE",
"369 166 CURVE SMOOTH",
"272 166 OFFCURVE",
"223 240 OFFCURVE",
"242 333 CURVE SMOOTH",
"262 426 OFFCURVE",
"343 500 OFFCURVE",
"440 500 CURVE SMOOTH",
"500 500 OFFCURVE",
"542 455 OFFCURVE",
"548 403 CURVE",
"740 484 LINE",
"719 576 OFFCURVE",
"653 678 OFFCURVE",
"478 678 CURVE SMOOTH",
"269 678 OFFCURVE",
"81 539 OFFCURVE",
"37 333 CURVE SMOOTH",
"-6 128 OFFCURVE",
"122 -12 OFFCURVE",
"331 -12 CURVE SMOOTH"
);
}
);
width = 697;
},
{
anchors = (
{
name = bottom;
position = "{398, 0}";
},
{
name = top;
position = "{398, 667}";
}
);
associatedMasterId = "C74BD54B-DC3B-4084-AB10-E48D432FD11D";
layerId = "C904C5FD-088D-4660-AED1-28B1A7BC3F9F";
name = "new Layer";
paths = (
{
closed = 1;
nodes = (
"491 -12 OFFCURVE",
"568 23 OFFCURVE",
"631 94 CURVE",
"605 115 LINE",
"557 55 OFFCURVE",
"481 18 OFFCURVE",
"398 18 CURVE SMOOTH",
"229 18 OFFCURVE",
"100 149 OFFCURVE",
"100 333 CURVE SMOOTH",
"100 518 OFFCURVE",
"229 648 OFFCURVE",
"398 648 CURVE SMOOTH",
"481 648 OFFCURVE",
"557 611 OFFCURVE",
"605 551 CURVE",
"630 573 LINE",
"569 643 OFFCURVE",
"492 678 OFFCURVE",
"398 678 CURVE SMOOTH",
"210 678 OFFCURVE",
"65 534 OFFCURVE",
"65 333 CURVE SMOOTH",
"65 132 OFFCURVE",
"210 -12 OFFCURVE",
"398 -12 CURVE SMOOTH"
);
}
);
width = 667;
}
);
leftKerningGroup = C;
note = C;
rightKerningGroup = C;
},
{
glyphname = G.001;
lastChange = "2017-11-15 00:40:51 +0000";
layers = (
{
anchors = (
{
name = bottom;
position = "{397, 0}";
},
{
name = top;
position = "{398, 667}";
}
);
layerId = "C74BD54B-DC3B-4084-AB10-E48D432FD11D";
paths = (
{
closed = 1;
nodes = (
"495 -13 OFFCURVE",
"583 29 OFFCURVE",
"642 94 CURVE",
"642 320 LINE",
"335 320 LINE",
"335 290 LINE",
"610 290 LINE",
"610 107 LINE",
"563 58 OFFCURVE",
"487 17 OFFCURVE",
"398 17 CURVE SMOOTH",
"229 17 OFFCURVE",
"100 149 OFFCURVE",
"100 333 CURVE SMOOTH",
"100 518 OFFCURVE",
"229 648 OFFCURVE",
"398 648 CURVE SMOOTH",
"486 648 OFFCURVE",
"569 613 OFFCURVE",
"621 553 CURVE",
"642 575 LINE",
"575 644 OFFCURVE",
"494 678 OFFCURVE",
"398 678 CURVE SMOOTH",
"210 678 OFFCURVE",
"65 534 OFFCURVE",
"65 333 CURVE SMOOTH",
"65 130 OFFCURVE",
"210 -13 OFFCURVE",
"398 -13 CURVE SMOOTH"
);
}
);
width = 708;
},
{
anchors = (
{
name = bottom;
position = "{385, 0}";
},
{
name = top;
position = "{385, 667}";
}
);
layerId = "043C55D1-ADA8-4506-BB55-8127E14D1A36";
paths = (
{
closed = 1;
nodes = (
"516 -12 OFFCURVE",
"616 41 OFFCURVE",
"690 123 CURVE",
"690 396 LINE",
"365 396 LINE",
"365 220 LINE",
"489 220 LINE",
"489 196 LINE",
"468 180 OFFCURVE",
"423 166 OFFCURVE",
"385 166 CURVE SMOOTH",
"288 166 OFFCURVE",
"223 240 OFFCURVE",
"223 333 CURVE SMOOTH",
"223 426 OFFCURVE",
"288 500 OFFCURVE",
"385 500 CURVE SMOOTH",
"445 500 OFFCURVE",
"489 458 OFFCURVE",
"508 417 CURVE",
"678 504 LINE",
"636 590 OFFCURVE",
"544 678 OFFCURVE",
"385 678 CURVE SMOOTH",
"183 678 OFFCURVE",
"18 547 OFFCURVE",
"18 333 CURVE SMOOTH",
"18 120 OFFCURVE",
"183 -12 OFFCURVE",
"385 -12 CURVE SMOOTH"
);
}
);
width = 726;
},
{
anchors = (
{
name = bottom;
position = "{346, 0}";
},
{
name = top;
position = "{488, 667}";
}
);
layerId = "A3F0DF3F-6E5C-40C3-B5F9-213A49682D58";
paths = (
{
closed = 1;
nodes = (
"441 -13 OFFCURVE",
"538 29 OFFCURVE",
"611 94 CURVE",
"659 320 LINE",
"352 320 LINE",
"345 290 LINE",
"620 290 LINE",
"581 107 LINE",
"524 58 OFFCURVE",
"439 17 OFFCURVE",
"350 17 CURVE SMOOTH",
"181 17 OFFCURVE",
"80 149 OFFCURVE",
"119 333 CURVE SMOOTH",
"159 518 OFFCURVE",
"315 648 OFFCURVE",
"484 648 CURVE SMOOTH",
"572 648 OFFCURVE",
"648 613 OFFCURVE",
"687 553 CURVE",
"713 575 LINE",
"661 644 OFFCURVE",
"587 678 OFFCURVE",
"491 678 CURVE SMOOTH",
"303 678 OFFCURVE",
"127 534 OFFCURVE",
"84 333 CURVE SMOOTH",
"41 130 OFFCURVE",
"156 -13 OFFCURVE",
"344 -13 CURVE SMOOTH"
);
}
);
width = 708;
},
{
anchors = (
{
name = bottom;
position = "{334, 0}";
},
{
name = top;
position = "{475, 667}";
}
);
layerId = "C7F6927E-AE81-4ED8-A250-E7EE5BA9BBA4";
paths = (
{
closed = 1;
nodes = (
"462 -12 OFFCURVE",
"573 41 OFFCURVE",
"665 123 CURVE",
"723 396 LINE",
"398 396 LINE",
"360 220 LINE",
"484 220 LINE",
"479 196 LINE",
"455 180 OFFCURVE",
"407 166 OFFCURVE",
"369 166 CURVE SMOOTH",
"272 166 OFFCURVE",
"223 240 OFFCURVE",
"242 333 CURVE SMOOTH",
"262 426 OFFCURVE",
"343 500 OFFCURVE",
"440 500 CURVE SMOOTH",
"500 500 OFFCURVE",
"535 458 OFFCURVE",
"545 417 CURVE",
"734 504 LINE",
"710 590 OFFCURVE",
"637 678 OFFCURVE",
"478 678 CURVE SMOOTH",
"276 678 OFFCURVE",
"83 547 OFFCURVE",
"37 333 CURVE SMOOTH",
"-8 120 OFFCURVE",
"129 -12 OFFCURVE",
"331 -12 CURVE SMOOTH"
);
}
);
width = 726;
},
{
anchors = (
{
name = bottom;
position = "{397, 0}";
},
{
name = top;
position = "{398, 667}";
}
);
associatedMasterId = "C74BD54B-DC3B-4084-AB10-E48D432FD11D";
layerId = "C904C5FD-088D-4660-AED1-28B1A7BC3F9F";
name = "new Layer";
paths = (
{
closed = 1;
nodes = (
"495 -13 OFFCURVE",
"583 29 OFFCURVE",
"642 94 CURVE",
"642 320 LINE",
"335 320 LINE",
"335 290 LINE",
"610 290 LINE",
"610 107 LINE",
"563 58 OFFCURVE",
"487 17 OFFCURVE",
"398 17 CURVE SMOOTH",
"229 17 OFFCURVE",
"100 149 OFFCURVE",
"100 333 CURVE SMOOTH",
"100 518 OFFCURVE",
"229 648 OFFCURVE",
"398 648 CURVE SMOOTH",
"486 648 OFFCURVE",
"569 613 OFFCURVE",
"621 553 CURVE",
"642 575 LINE",
"575 644 OFFCURVE",
"494 678 OFFCURVE",
"398 678 CURVE SMOOTH",
"210 678 OFFCURVE",
"65 534 OFFCURVE",
"65 333 CURVE SMOOTH",
"65 130 OFFCURVE",
"210 -13 OFFCURVE",
"398 -13 CURVE SMOOTH"
);
}
);
width = 708;
}
);
leftKerningGroup = C;
note = G;
},
{
glyphname = I.001;
lastChange = "2017-11-11 22:13:35 +0000";
layers = (
{
layerId = "C74BD54B-DC3B-4084-AB10-E48D432FD11D";
paths = (
{
closed = 1;
nodes = (
"88 0 LINE",
"120 0 LINE",
"120 667 LINE",
"88 667 LINE"
);
},
{
closed = 1;
nodes = (
"88 722 LINE",
"120 722 LINE",
"120 768 LINE",
"88 768 LINE"
);
}
);
width = 208;
},
{
layerId = "043C55D1-ADA8-4506-BB55-8127E14D1A36";
paths = (
{
closed = 1;
nodes = (
"50 0 LINE",
"256 0 LINE",
"256 327 LINE",
"50 396 LINE"
);
},
{
closed = 1;
nodes = (
"50 463 LINE",
"256 394 LINE",
"256 667 LINE",
"50 667 LINE"
);
}
);
width = 310;
},
{
layerId = "A3F0DF3F-6E5C-40C3-B5F9-213A49682D58";
paths = (
{
closed = 1;
nodes = (
"37 0 LINE",
"69 0 LINE",
"210 667 LINE",
"178 667 LINE"
);
},
{
closed = 1;
nodes = (
"190 722 LINE",
"222 722 LINE",
"232 768 LINE",
"200 768 LINE"
);
}
);
width = 208;
},
{
layerId = "C7F6927E-AE81-4ED8-A250-E7EE5BA9BBA4";
paths = (
{
closed = 1;
nodes = (
"-1 0 LINE",
"205 0 LINE",
"274 327 LINE",
"83 396 LINE"
);
},
{
closed = 1;
nodes = (
"97 463 LINE",
"288 394 LINE",
"346 667 LINE",
"140 667 LINE"
);
}
);
width = 310;
},
{
associatedMasterId = "C74BD54B-DC3B-4084-AB10-E48D432FD11D";
layerId = "C904C5FD-088D-4660-AED1-28B1A7BC3F9F";
paths = (
{
closed = 1;
nodes = (
"88 0 LINE",
"120 0 LINE",
"120 667 LINE",
"88 667 LINE"
);
},
{
closed = 1;
nodes = (
"88 722 LINE",
"120 722 LINE",
"120 768 LINE",
"88 768 LINE"
);
}
);
width = 208;
}
);
leftKerningGroup = exclam;
note = I;
},
{
glyphname = a;
lastChange = "2017-11-16 17:07:04 +0000";
layers = (
{
anchors = (
{
name = bottom;
position = "{249, -12}";
},
{
name = ogonek;
position = "{398, 0}";
},
{
name = top;
position = "{262, 508}";
}
);
layerId = "C74BD54B-DC3B-4084-AB10-E48D432FD11D";
paths = (
{
closed = 1;
nodes = (
"107 392 LINE",
"149 443 OFFCURVE",
"201 468 OFFCURVE",
"262 468 CURVE SMOOTH",
"339 468 OFFCURVE",
"398 423 OFFCURVE",
"398 348 CURVE SMOOTH",
"398 295 LINE",
"398 279 OFFCURVE",
"299 279 OFFCURVE",
"231 279 CURVE SMOOTH",
"137 279 OFFCURVE",
"62 219 OFFCURVE",
"62 133 CURVE SMOOTH",
"62 34 OFFCURVE",
"140 -12 OFFCURVE",
"231 -12 CURVE SMOOTH",
"299 -12 OFFCURVE",
"355 -5 OFFCURVE",
"398 42 CURVE",
"398 0 LINE",
"428 0 LINE",
"428 349 LINE SMOOTH",
"428 444 OFFCURVE",
"361 495 OFFCURVE",
"262 495 CURVE SMOOTH",
"183 495 OFFCURVE",
"133 469 OFFCURVE",
"84 412 CURVE"
);
},
{
closed = 1;
nodes = (
"152 15 OFFCURVE",
"95 57 OFFCURVE",
"95 133 CURVE SMOOTH",
"95 196 OFFCURVE",
"150 252 OFFCURVE",
"239 252 CURVE SMOOTH",
"286 252 OFFCURVE",
"361 250 OFFCURVE",
"398 264 CURVE",
"398 117 LINE",
"391 37 OFFCURVE",
"308 15 OFFCURVE",
"239 15 CURVE SMOOTH"
);
}
);
width = 514;
},
{
anchors = (
{
name = bottom;
position = "{280, 0}";
},
{
name = ogonek;
position = "{418, 4}";
},
{
name = top;
position = "{274, 501}";
}
);
layerId = "043C55D1-ADA8-4506-BB55-8127E14D1A36";
paths = (
{
closed = 1;
nodes = (
"105 311 LINE",
"143 340 OFFCURVE",
"194 358 OFFCURVE",
"239 358 CURVE SMOOTH",
"298 358 OFFCURVE",
"329 344 OFFCURVE",
"329 310 CURVE SMOOTH",
"329 298 LINE",
"286 298 OFFCURVE",
"246 298 OFFCURVE",
"183 298 CURVE SMOOTH",
"111 298 OFFCURVE",
"17 267 OFFCURVE",
"17 147 CURVE SMOOTH",
"17 37 OFFCURVE",
"111 -12 OFFCURVE",
"183 -12 CURVE SMOOTH",
"243 -12 OFFCURVE",
"302 12 OFFCURVE",
"329 46 CURVE",
"329 0 LINE",
"509 0 LINE",
"509 292 LINE SMOOTH",
"509 453 OFFCURVE",
"392 495 OFFCURVE",
"272 495 CURVE SMOOTH",
"199 495 OFFCURVE",
"109 474 OFFCURVE",
"44 422 CURVE"
);
},
{
closed = 1;
nodes = (
"228 105 OFFCURVE",
"195 114 OFFCURVE",
"195 144 CURVE SMOOTH",
"195 174 OFFCURVE",
"228 184 OFFCURVE",
"258 184 CURVE SMOOTH",
"286 184 OFFCURVE",
"292 180 OFFCURVE",
"329 180 CURVE",
"329 145 LINE",
"329 112 OFFCURVE",
"286 105 OFFCURVE",
"258 105 CURVE SMOOTH"
);
}
);
width = 559;
},
{
anchors = (
{
name = bottom;
position = "{195, -12}";
},
{
name = ogonek;
position = "{347, 0}";
},
{
name = top;
position = "{319, 508}";
}
);
layerId = "A3F0DF3F-6E5C-40C3-B5F9-213A49682D58";
paths = (
{
closed = 1;
nodes = (
"139 392 LINE",
"192 443 OFFCURVE",
"249 468 OFFCURVE",
"310 468 CURVE SMOOTH",
"387 468 OFFCURVE",
"437 423 OFFCURVE",
"421 348 CURVE SMOOTH",
"409 295 LINE",
"406 279 OFFCURVE",
"307 279 OFFCURVE",
"239 279 CURVE SMOOTH",
"145 279 OFFCURVE",
"57 219 OFFCURVE",
"39 133 CURVE SMOOTH",
"18 34 OFFCURVE",
"86 -12 OFFCURVE",
"177 -12 CURVE SMOOTH",
"245 -12 OFFCURVE",
"303 -5 OFFCURVE",
"356 42 CURVE",
"347 0 LINE",
"377 0 LINE",
"451 349 LINE SMOOTH",
"471 444 OFFCURVE",
"415 495 OFFCURVE",
"316 495 CURVE SMOOTH",
"237 495 OFFCURVE",
"181 469 OFFCURVE",
"120 412 CURVE"
);
},
{
closed = 1;
nodes = (
"104 15 OFFCURVE",
"56 57 OFFCURVE",
"72 133 CURVE SMOOTH",
"85 196 OFFCURVE",
"152 252 OFFCURVE",
"241 252 CURVE SMOOTH",
"288 252 OFFCURVE",
"363 250 OFFCURVE",
"403 264 CURVE",
"372 117 LINE",
"348 37 OFFCURVE",
"260 15 OFFCURVE",
"191 15 CURVE SMOOTH"
);
}
);
width = 514;
},
{
anchors = (
{
name = bottom;
position = "{229, 0}";
},
{
name = ogonek;
position = "{368, 4}";
},
{
name = top;
position = "{329, 501}";
}
);
layerId = "C7F6927E-AE81-4ED8-A250-E7EE5BA9BBA4";
paths = (
{
closed = 1;
nodes = (
"120 311 LINE",
"164 340 OFFCURVE",
"219 358 OFFCURVE",
"264 358 CURVE SMOOTH",
"323 358 OFFCURVE",
"351 344 OFFCURVE",
"344 310 CURVE SMOOTH",
"341 298 LINE",
"298 298 OFFCURVE",
"258 298 OFFCURVE",
"195 298 CURVE SMOOTH",
"123 298 OFFCURVE",
"22 267 OFFCURVE",
"-3 147 CURVE SMOOTH",
"-26 37 OFFCURVE",
"57 -12 OFFCURVE",
"129 -12 CURVE SMOOTH",
"189 -12 OFFCURVE",
"253 12 OFFCURVE",
"287 46 CURVE",
"278 0 LINE",
"458 0 LINE",
"520 292 LINE SMOOTH",
"554 453 OFFCURVE",
"446 495 OFFCURVE",
"326 495 CURVE SMOOTH",
"253 495 OFFCURVE",
"158 474 OFFCURVE",
"82 422 CURVE"
);
},
{
closed = 1;
nodes = (
"199 105 OFFCURVE",
"168 114 OFFCURVE",
"174 144 CURVE SMOOTH",
"181 174 OFFCURVE",
"216 184 OFFCURVE",
"246 184 CURVE SMOOTH",
"274 184 OFFCURVE",
"279 180 OFFCURVE",
"316 180 CURVE",
"308 145 LINE",
"301 112 OFFCURVE",
"257 105 OFFCURVE",
"229 105 CURVE SMOOTH"
);
}
);
width = 559;
},
{
anchors = (
{
name = bottom;
position = "{249, -12}";
},
{
name = ogonek;
position = "{398, 0}";
},
{
name = top;
position = "{262, 508}";
}
);
associatedMasterId = "C74BD54B-DC3B-4084-AB10-E48D432FD11D";
layerId = "C904C5FD-088D-4660-AED1-28B1A7BC3F9F";
paths = (
{
closed = 1;
nodes = (
"107 392 LINE",
"149 443 OFFCURVE",
"201 468 OFFCURVE",
"262 468 CURVE SMOOTH",
"339 468 OFFCURVE",
"398 423 OFFCURVE",
"398 348 CURVE SMOOTH",
"398 295 LINE",
"398 279 OFFCURVE",
"299 279 OFFCURVE",
"231 279 CURVE SMOOTH",
"137 279 OFFCURVE",
"62 219 OFFCURVE",
"62 133 CURVE SMOOTH",
"62 34 OFFCURVE",
"140 -12 OFFCURVE",
"231 -12 CURVE SMOOTH",
"299 -12 OFFCURVE",
"355 -5 OFFCURVE",
"398 42 CURVE",
"398 0 LINE",
"428 0 LINE",
"428 349 LINE SMOOTH",
"428 444 OFFCURVE",
"361 495 OFFCURVE",
"262 495 CURVE SMOOTH",
"183 495 OFFCURVE",
"133 469 OFFCURVE",
"84 412 CURVE"
);
},
{
closed = 1;
nodes = (
"152 15 OFFCURVE",
"95 57 OFFCURVE",
"95 133 CURVE SMOOTH",
"95 196 OFFCURVE",
"150 252 OFFCURVE",
"239 252 CURVE SMOOTH",
"286 252 OFFCURVE",
"361 250 OFFCURVE",
"398 264 CURVE",
"398 117 LINE",
"391 37 OFFCURVE",
"308 15 OFFCURVE",
"239 15 CURVE SMOOTH"
);
}
);
width = 514;
}
);
leftKerningGroup = a;
note = a;
rightKerningGroup = a;
unicode = 0061;
},
{
glyphname = ae;
lastChange = "2017-11-16 16:54:03 +0000";
layers = (
{
components = (
{
name = a;
}
);
layerId = "C74BD54B-DC3B-4084-AB10-E48D432FD11D";
paths = (
{
closed = 1;
nodes = (
"698 42 OFFCURVE",
"655 20 OFFCURVE",
"599 20 CURVE SMOOTH",
"498 20 OFFCURVE",
"431 109 OFFCURVE",
"429 232 CURVE",
"778 232 LINE",
"778 242 LINE SMOOTH",
"778 385 OFFCURVE",
"709 495 OFFCURVE",
"590 495 CURVE SMOOTH",
"482 495 OFFCURVE",
"400 388 OFFCURVE",
"400 242 CURVE SMOOTH",
"400 94 OFFCURVE",
"481 -12 OFFCURVE",
"599 -12 CURVE SMOOTH",
"659 -12 OFFCURVE",
"711 15 OFFCURVE",
"755 69 CURVE",
"735 91 LINE"
);
},
{
closed = 1;
nodes = (
"429 264 LINE",
"432 363 OFFCURVE",
"492 468 OFFCURVE",
"590 468 CURVE SMOOTH",
"686 468 OFFCURVE",
"751 378 OFFCURVE",
"751 264 CURVE"
);
}
);
width = 840;
},
{
components = (
{
name = a;
}
);
layerId = "043C55D1-ADA8-4506-BB55-8127E14D1A36";
paths = (
{
closed = 1;
nodes = (
"704 138 OFFCURVE",
"644 125 OFFCURVE",
"617 125 CURVE SMOOTH",
"558 125 OFFCURVE",
"523 155 OFFCURVE",
"513 186 CURVE",
"841 186 LINE",
"841 223 LINE SMOOTH",
"841 393 OFFCURVE",
"732 495 OFFCURVE",
"590 495 CURVE SMOOTH",
"434 495 OFFCURVE",
"327 382 OFFCURVE",
"327 242 CURVE SMOOTH",
"327 83 OFFCURVE",
"445 -12 OFFCURVE",
"596 -12 CURVE SMOOTH",
"668 -12 OFFCURVE",
"754 7 OFFCURVE",
"802 48 CURVE",
"728 159 LINE"
);
},
{
closed = 1;
nodes = (
"511 300 LINE",
"517 322 OFFCURVE",
"535 358 OFFCURVE",
"590 358 CURVE SMOOTH",
"648 358 OFFCURVE",
"665 321 OFFCURVE",
"670 300 CURVE"
);
}
);
width = 858;
},
{
components = (
{
name = a;
}
);
layerId = "A3F0DF3F-6E5C-40C3-B5F9-213A49682D58";
paths = (
{
closed = 1;
nodes = (
"656 42 OFFCURVE",
"608 20 OFFCURVE",
"552 20 CURVE SMOOTH",
"451 20 OFFCURVE",
"403 109 OFFCURVE",
"427 232 CURVE",
"776 232 LINE",
"778 242 LINE SMOOTH",
"809 385 OFFCURVE",
"763 495 OFFCURVE",
"644 495 CURVE SMOOTH",
"536 495 OFFCURVE",
"431 388 OFFCURVE",
"400 242 CURVE SMOOTH",
"369 94 OFFCURVE",
"427 -12 OFFCURVE",
"545 -12 CURVE SMOOTH",
"605 -12 OFFCURVE",
"663 15 OFFCURVE",
"718 69 CURVE",
"703 91 LINE"
);
},
{
closed = 1;
nodes = (
"434 264 LINE",
"458 363 OFFCURVE",
"540 468 OFFCURVE",
"638 468 CURVE SMOOTH",
"734 468 OFFCURVE",
"780 378 OFFCURVE",
"756 264 CURVE"
);
}
);
width = 840;
},
{
components = (
{
name = a;
transform = "{1, 0, 0.21256, 1, -51, 0}";
}
);
layerId = "C7F6927E-AE81-4ED8-A250-E7EE5BA9BBA4";
paths = (
{
closed = 1;
nodes = (
"682 138 OFFCURVE",
"619 125 OFFCURVE",
"592 125 CURVE SMOOTH",
"533 125 OFFCURVE",
"505 155 OFFCURVE",
"501 186 CURVE",
"829 186 LINE",
"837 223 LINE SMOOTH",
"873 393 OFFCURVE",
"786 495 OFFCURVE",
"644 495 CURVE SMOOTH",
"488 495 OFFCURVE",
"357 382 OFFCURVE",
"327 242 CURVE SMOOTH",
"293 83 OFFCURVE",
"391 -12 OFFCURVE",
"542 -12 CURVE SMOOTH",
"614 -12 OFFCURVE",
"704 7 OFFCURVE",
"761 48 CURVE",
"710 159 LINE"
);
},
{
closed = 1;
nodes = (
"523 300 LINE",
"534 322 OFFCURVE",
"560 358 OFFCURVE",
"615 358 CURVE SMOOTH",
"673 358 OFFCURVE",
"682 321 OFFCURVE",
"682 300 CURVE"
);
}
);
width = 858;
},
{
associatedMasterId = "C74BD54B-DC3B-4084-AB10-E48D432FD11D";
components = (
{
name = a;
}
);
layerId = "C904C5FD-088D-4660-AED1-28B1A7BC3F9F";
paths = (
{
closed = 1;
nodes = (
"698 42 OFFCURVE",
"655 20 OFFCURVE",
"599 20 CURVE SMOOTH",
"498 20 OFFCURVE",
"431 109 OFFCURVE",
"429 232 CURVE",
"778 232 LINE",
"778 242 LINE SMOOTH",
"778 385 OFFCURVE",
"709 495 OFFCURVE",
"590 495 CURVE SMOOTH",
"482 495 OFFCURVE",
"400 388 OFFCURVE",
"400 242 CURVE SMOOTH",
"400 94 OFFCURVE",
"481 -12 OFFCURVE",
"599 -12 CURVE SMOOTH",
"659 -12 OFFCURVE",
"711 15 OFFCURVE",
"755 69 CURVE",
"735 91 LINE"
);
},
{
closed = 1;
nodes = (
"429 264 LINE",
"432 363 OFFCURVE",
"492 468 OFFCURVE",
"590 468 CURVE SMOOTH",
"686 468 OFFCURVE",
"751 378 OFFCURVE",
"751 264 CURVE"
);
}
);
width = 840;
}
);
unicode = 00E6;
},
{
glyphname = b;
lastChange = "2017-11-11 22:13:35 +0000";
layers = (
{
layerId = "C74BD54B-DC3B-4084-AB10-E48D432FD11D";
paths = (
{
closed = 1;
nodes = (
"116 419 OFFCURVE",
"218 468 OFFCURVE",
"290 468 CURVE SMOOTH",
"405 468 OFFCURVE",
"473 373 OFFCURVE",
"473 241 CURVE SMOOTH",
"473 109 OFFCURVE",
"405 15 OFFCURVE",
"290 15 CURVE SMOOTH",
"218 15 OFFCURVE",
"116 40 OFFCURVE",
"116 190 CURVE",
"116 293 LINE"
);
},
{
closed = 1;
nodes = (
"86 0 LINE",
"116 0 LINE",
"116 77 LINE",
"153 5 OFFCURVE",
"218 -12 OFFCURVE",
"290 -12 CURVE SMOOTH",
"421 -12 OFFCURVE",
"506 88 OFFCURVE",
"506 241 CURVE SMOOTH",
"506 393 OFFCURVE",
"419 495 OFFCURVE",
"290 495 CURVE SMOOTH",
"219 495 OFFCURVE",
"159 466 OFFCURVE",
"116 408 CURVE",
"116 667 LINE",
"86 667 LINE"
);
}
);
width = 566;
},
{
layerId = "043C55D1-ADA8-4506-BB55-8127E14D1A36";
paths = (
{
closed = 1;
nodes = (
"230 322 OFFCURVE",
"281 336 OFFCURVE",
"305 336 CURVE SMOOTH",
"354 336 OFFCURVE",
"395 302 OFFCURVE",
"395 242 CURVE SMOOTH",
"395 181 OFFCURVE",
"354 147 OFFCURVE",
"305 147 CURVE SMOOTH",
"281 147 OFFCURVE",
"230 158 OFFCURVE",
"230 239 CURVE",
"230 239 LINE"
);
},
{
closed = 1;
nodes = (
"50 0 LINE",
"230 0 LINE",
"230 51 LINE",
"271 5 OFFCURVE",
"317 -12 OFFCURVE",
"366 -12 CURVE SMOOTH",
"483 -12 OFFCURVE",
"579 76 OFFCURVE",
"579 242 CURVE SMOOTH",
"579 402 OFFCURVE",
"485 495 OFFCURVE",
"366 495 CURVE SMOOTH",
"317 495 OFFCURVE",
"268 478 OFFCURVE",
"230 432 CURVE",
"230 667 LINE",
"50 667 LINE"
);
}
);
width = 596;
},
{
layerId = "A3F0DF3F-6E5C-40C3-B5F9-213A49682D58";
paths = (
{
closed = 1;
nodes = (
"154 419 OFFCURVE",
"266 468 OFFCURVE",
"338 468 CURVE SMOOTH",
"453 468 OFFCURVE",
"501 373 OFFCURVE",
"473 241 CURVE SMOOTH",
"445 109 OFFCURVE",
"357 15 OFFCURVE",
"242 15 CURVE SMOOTH",
"170 15 OFFCURVE",
"73 40 OFFCURVE",
"105 190 CURVE",
"127 293 LINE"
);
},
{
closed = 1;
nodes = (
"35 0 LINE",
"65 0 LINE",
"81 77 LINE",
"103 5 OFFCURVE",
"164 -12 OFFCURVE",
"236 -12 CURVE SMOOTH",
"367 -12 OFFCURVE",
"473 88 OFFCURVE",
"506 241 CURVE SMOOTH",
"538 393 OFFCURVE",
"473 495 OFFCURVE",
"344 495 CURVE SMOOTH",
"273 495 OFFCURVE",
"207 466 OFFCURVE",
"151 408 CURVE",
"206 667 LINE",
"176 667 LINE"
);
}
);
width = 566;
},
{
layerId = "C7F6927E-AE81-4ED8-A250-E7EE5BA9BBA4";
paths = (
{
closed = 1;
nodes = (
"247 322 OFFCURVE",
"301 336 OFFCURVE",
"325 336 CURVE SMOOTH",
"374 336 OFFCURVE",
"408 302 OFFCURVE",
"395 242 CURVE SMOOTH",
"382 181 OFFCURVE",
"334 147 OFFCURVE",
"285 147 CURVE SMOOTH",
"261 147 OFFCURVE",
"212 158 OFFCURVE",
"229 239 CURVE",
"229 239 LINE"
);
},
{
closed = 1;
nodes = (
"-1 0 LINE",
"179 0 LINE",
"190 51 LINE",
"221 5 OFFCURVE",
"263 -12 OFFCURVE",
"312 -12 CURVE SMOOTH",
"429 -12 OFFCURVE",
"544 76 OFFCURVE",
"579 242 CURVE SMOOTH",
"613 402 OFFCURVE",
"539 495 OFFCURVE",
"420 495 CURVE SMOOTH",
"371 495 OFFCURVE",
"318 478 OFFCURVE",
"270 432 CURVE",
"320 667 LINE",
"140 667 LINE"
);
}
);
width = 596;
},
{
associatedMasterId = "C74BD54B-DC3B-4084-AB10-E48D432FD11D";
layerId = "C904C5FD-088D-4660-AED1-28B1A7BC3F9F";
paths = (
{
closed = 1;
nodes = (
"116 419 OFFCURVE",
"218 468 OFFCURVE",
"290 468 CURVE SMOOTH",
"405 468 OFFCURVE",
"473 373 OFFCURVE",
"473 241 CURVE SMOOTH",
"473 109 OFFCURVE",
"405 15 OFFCURVE",
"290 15 CURVE SMOOTH",
"218 15 OFFCURVE",
"116 40 OFFCURVE",
"116 190 CURVE",
"116 293 LINE"
);
},
{
closed = 1;
nodes = (
"86 0 LINE",
"116 0 LINE",
"116 77 LINE",
"153 5 OFFCURVE",
"218 -12 OFFCURVE",
"290 -12 CURVE SMOOTH",
"421 -12 OFFCURVE",
"506 88 OFFCURVE",
"506 241 CURVE SMOOTH",
"506 393 OFFCURVE",
"419 495 OFFCURVE",
"290 495 CURVE SMOOTH",
"219 495 OFFCURVE",
"159 466 OFFCURVE",
"116 408 CURVE",
"116 667 LINE",
"86 667 LINE"
);
}
);
width = 566;
}
);
note = b;
rightKerningGroup = b;
unicode = 0062;
},
{
glyphname = c;
lastChange = "2017-11-15 03:01:10 +0000";
layers = (
{
anchors = (
{
name = bottom;
position = "{287, 0}";
},
{
name = top;
position = "{288, 483}";
}
);
layerId = "C74BD54B-DC3B-4084-AB10-E48D432FD11D";
paths = (
{
closed = 1;
nodes = (
"363 -12 OFFCURVE",
"409 14 OFFCURVE",
"453 69 CURVE",
"431 88 LINE",
"395 39 OFFCURVE",
"348 15 OFFCURVE",
"290 15 CURVE SMOOTH",
"170 15 OFFCURVE",
"93 111 OFFCURVE",
"93 242 CURVE SMOOTH",
"93 371 OFFCURVE",
"169 468 OFFCURVE",
"290 468 CURVE",
"349 468 OFFCURVE",
"396 444 OFFCURVE",
"431 396 CURVE",
"453 414 LINE",
"409 469 OFFCURVE",
"363 495 OFFCURVE",
"288 495 CURVE SMOOTH",
"152 495 OFFCURVE",
"60 385 OFFCURVE",
"60 242 CURVE SMOOTH",
"60 99 OFFCURVE",
"152 -12 OFFCURVE",
"288 -12 CURVE SMOOTH"
);
}
);
width = 493;
},
{
anchors = (
{
name = bottom;
position = "{288, 0}";
},
{
name = top;
position = "{288, 483}";
}
);
layerId = "043C55D1-ADA8-4506-BB55-8127E14D1A36";
paths = (
{
closed = 1;
nodes = (
"398 -12 OFFCURVE",
"466 39 OFFCURVE",
"493 79 CURVE",
"377 189 LINE",
"362 167 OFFCURVE",
"334 147 OFFCURVE",
"296 147 CURVE SMOOTH",
"245 147 OFFCURVE",
"201 180 OFFCURVE",
"201 242 CURVE SMOOTH",
"201 304 OFFCURVE",
"245 336 OFFCURVE",
"296 336 CURVE SMOOTH",
"334 336 OFFCURVE",
"362 318 OFFCURVE",
"377 295 CURVE",
"493 404 LINE",
"466 445 OFFCURVE",
"398 495 OFFCURVE",
"288 495 CURVE SMOOTH",
"135 495 OFFCURVE",
"17 395 OFFCURVE",
"17 242 CURVE SMOOTH",
"17 88 OFFCURVE",
"135 -12 OFFCURVE",
"288 -12 CURVE SMOOTH"
);
}
);
width = 502;
},
{
anchors = (
{
name = bottom;
position = "{236, 0}";
},
{
name = top;
position = "{339, 483}";
}
);
layerId = "A3F0DF3F-6E5C-40C3-B5F9-213A49682D58";
paths = (
{
closed = 1;
nodes = (
"309 -12 OFFCURVE",
"361 14 OFFCURVE",
"416 69 CURVE",
"398 88 LINE",
"352 39 OFFCURVE",
"300 15 OFFCURVE",
"242 15 CURVE SMOOTH",
"122 15 OFFCURVE",
"65 111 OFFCURVE",
"93 242 CURVE SMOOTH",
"121 371 OFFCURVE",
"217 468 OFFCURVE",
"338 468 CURVE",
"397 468 OFFCURVE",
"439 444 OFFCURVE",
"464 396 CURVE",
"490 414 LINE",
"457 469 OFFCURVE",
"417 495 OFFCURVE",
"342 495 CURVE SMOOTH",
"206 495 OFFCURVE",
"91 385 OFFCURVE",
"60 242 CURVE SMOOTH",
"30 99 OFFCURVE",
"98 -12 OFFCURVE",
"234 -12 CURVE SMOOTH"
);
}
);
width = 493;
},
{
anchors = (
{
name = bottom;
position = "{237, 0}";
},
{
name = top;
position = "{339, 483}";
}
);
layerId = "C7F6927E-AE81-4ED8-A250-E7EE5BA9BBA4";
paths = (
{
closed = 1;
nodes = (
"344 -12 OFFCURVE",
"423 39 OFFCURVE",
"458 79 CURVE",
"366 189 LINE",
"346 167 OFFCURVE",
"314 147 OFFCURVE",
"276 147 CURVE SMOOTH",
"225 147 OFFCURVE",
"188 180 OFFCURVE",
"201 242 CURVE SMOOTH",
"214 304 OFFCURVE",
"265 336 OFFCURVE",
"316 336 CURVE SMOOTH",
"354 336 OFFCURVE",
"378 318 OFFCURVE",
"388 295 CURVE",
"528 404 LINE",
"509 445 OFFCURVE",
"452 495 OFFCURVE",
"342 495 CURVE SMOOTH",
"189 495 OFFCURVE",
"50 395 OFFCURVE",
"17 242 CURVE SMOOTH",
"-16 88 OFFCURVE",
"81 -12 OFFCURVE",
"234 -12 CURVE SMOOTH"
);
}
);
width = 502;
},
{
anchors = (
{
name = bottom;
position = "{287, 0}";
},
{
name = top;
position = "{288, 483}";
}
);
associatedMasterId = "C74BD54B-DC3B-4084-AB10-E48D432FD11D";
layerId = "C904C5FD-088D-4660-AED1-28B1A7BC3F9F";
paths = (
{
closed = 1;
nodes = (
"363 -12 OFFCURVE",
"409 14 OFFCURVE",
"453 69 CURVE",
"431 88 LINE",
"395 39 OFFCURVE",
"348 15 OFFCURVE",
"290 15 CURVE SMOOTH",
"170 15 OFFCURVE",
"93 111 OFFCURVE",
"93 242 CURVE SMOOTH",
"93 371 OFFCURVE",
"169 468 OFFCURVE",
"290 468 CURVE",
"349 468 OFFCURVE",
"396 444 OFFCURVE",
"431 396 CURVE",
"453 414 LINE",
"409 469 OFFCURVE",
"363 495 OFFCURVE",
"288 495 CURVE SMOOTH",
"152 495 OFFCURVE",
"60 385 OFFCURVE",
"60 242 CURVE SMOOTH",
"60 99 OFFCURVE",
"152 -12 OFFCURVE",
"288 -12 CURVE SMOOTH"
);
}
);
width = 493;
}
);
leftKerningGroup = c;
note = c;
rightKerningGroup = c;
unicode = 0063;
},
{
glyphname = d;
lastChange = "2017-11-11 22:13:35 +0000";
layers = (
{
anchors = (
{
name = bottom;
position = "{283, 0}";
},
{
name = center;
position = "{283, 242}";
},
{
name = top;
position = "{283, 483}";
},
{
name = topright;
position = "{546, 483}";
}
);
layerId = "C74BD54B-DC3B-4084-AB10-E48D432FD11D";
paths = (
{
closed = 1;
nodes = (
"450 416 LINE",
"397 475 OFFCURVE",
"347 495 OFFCURVE",
"276 495 CURVE SMOOTH",
"147 495 OFFCURVE",
"60 393 OFFCURVE",
"60 241 CURVE SMOOTH",
"60 88 OFFCURVE",
"145 -12 OFFCURVE",
"276 -12 CURVE SMOOTH",
"348 -12 OFFCURVE",
"411 9 OFFCURVE",
"450 67 CURVE",
"450 0 LINE",
"480 0 LINE",
"480 667 LINE",
"450 667 LINE"
);
},
{
closed = 1;
nodes = (
"450 196 LINE",
"450 44 OFFCURVE",
"348 15 OFFCURVE",
"276 15 CURVE SMOOTH",
"161 15 OFFCURVE",
"93 109 OFFCURVE",
"93 241 CURVE SMOOTH",
"93 373 OFFCURVE",
"161 468 OFFCURVE",
"276 468 CURVE SMOOTH",
"348 468 OFFCURVE",
"450 416 OFFCURVE",
"450 310 CURVE"
);
}
);
width = 566;
},
{
anchors = (
{
name = bottom;
position = "{298, 0}";
},
{
name = center;
position = "{298, 242}";
},
{
name = top;
position = "{298, 483}";
},
{
name = topright;
position = "{576, 483}";
}
);
layerId = "043C55D1-ADA8-4506-BB55-8127E14D1A36";
paths = (
{
closed = 1;
nodes = (
"366 432 LINE",
"328 478 OFFCURVE",
"279 495 OFFCURVE",
"230 495 CURVE SMOOTH",
"111 495 OFFCURVE",
"17 402 OFFCURVE",
"17 242 CURVE SMOOTH",
"17 76 OFFCURVE",
"113 -12 OFFCURVE",
"230 -12 CURVE SMOOTH",
"279 -12 OFFCURVE",
"325 5 OFFCURVE",
"366 51 CURVE",
"366 0 LINE",
"546 0 LINE",
"546 667 LINE",
"366 667 LINE"
);
},
{
closed = 1;
nodes = (
"366 239 LINE",
"366 158 OFFCURVE",
"315 147 OFFCURVE",
"291 147 CURVE SMOOTH",
"242 147 OFFCURVE",
"201 181 OFFCURVE",
"201 242 CURVE SMOOTH",
"201 302 OFFCURVE",
"242 336 OFFCURVE",
"291 336 CURVE SMOOTH",
"315 336 OFFCURVE",
"366 322 OFFCURVE",
"366 239 CURVE"
);
}
);
width = 596;
},
{
anchors = (
{
name = bottom;
position = "{232, 0}";
},
{
name = center;
position = "{283, 242}";
},
{
name = top;
position = "{334, 483}";
},
{
name = topright;
position = "{597, 483}";
}
);
layerId = "A3F0DF3F-6E5C-40C3-B5F9-213A49682D58";
paths = (
{
closed = 1;
nodes = (
"487 416 LINE",
"447 475 OFFCURVE",
"401 495 OFFCURVE",
"330 495 CURVE SMOOTH",
"201 495 OFFCURVE",
"92 393 OFFCURVE",
"60 241 CURVE SMOOTH",
"27 88 OFFCURVE",
"91 -12 OFFCURVE",
"222 -12 CURVE SMOOTH",
"294 -12 OFFCURVE",
"362 9 OFFCURVE",
"413 67 CURVE",
"399 0 LINE",
"429 0 LINE",
"570 667 LINE",
"540 667 LINE"
);
},
{
closed = 1;
nodes = (
"440 196 LINE",
"408 44 OFFCURVE",
"300 15 OFFCURVE",
"228 15 CURVE SMOOTH",
"113 15 OFFCURVE",
"65 109 OFFCURVE",
"93 241 CURVE SMOOTH",
"121 373 OFFCURVE",
"209 468 OFFCURVE",
"324 468 CURVE SMOOTH",
"396 468 OFFCURVE",
"487 416 OFFCURVE",
"465 310 CURVE"
);
}
);
width = 566;
},
{
anchors = (
{
name = bottom;
position = "{247, 0}";
},
{
name = center;
position = "{298, 242}";
},
{
name = top;
position = "{349, 483}";
},
{
name = topright;
position = "{627, 483}";
}
);
layerId = "C7F6927E-AE81-4ED8-A250-E7EE5BA9BBA4";
paths = (
{
closed = 1;
nodes = (
"406 432 LINE",
"378 478 OFFCURVE",
"333 495 OFFCURVE",
"284 495 CURVE SMOOTH",
"165 495 OFFCURVE",
"51 402 OFFCURVE",
"17 242 CURVE SMOOTH",
"-18 76 OFFCURVE",
"59 -12 OFFCURVE",
"176 -12 CURVE SMOOTH",
"225 -12 OFFCURVE",
"275 5 OFFCURVE",
"326 51 CURVE",
"315 0 LINE",
"495 0 LINE",
"636 667 LINE",
"456 667 LINE"
);
},
{
closed = 1;
nodes = (
"365 239 LINE",
"348 158 OFFCURVE",
"295 147 OFFCURVE",
"271 147 CURVE SMOOTH",
"222 147 OFFCURVE",
"188 181 OFFCURVE",
"201 242 CURVE SMOOTH",
"214 302 OFFCURVE",
"262 336 OFFCURVE",
"311 336 CURVE SMOOTH",
"335 336 OFFCURVE",
"383 322 OFFCURVE",
"365 239 CURVE"
);
}
);
width = 596;
},
{
anchors = (
{
name = bottom;
position = "{283, 0}";
},
{
name = center;
position = "{283, 242}";
},
{
name = top;
position = "{283, 483}";
},
{
name = topright;
position = "{546, 483}";
}
);
associatedMasterId = "C74BD54B-DC3B-4084-AB10-E48D432FD11D";
layerId = "C904C5FD-088D-4660-AED1-28B1A7BC3F9F";
paths = (
{
closed = 1;
nodes = (
"450 416 LINE",
"397 475 OFFCURVE",
"347 495 OFFCURVE",
"276 495 CURVE SMOOTH",
"147 495 OFFCURVE",
"60 393 OFFCURVE",
"60 241 CURVE SMOOTH",
"60 88 OFFCURVE",
"145 -12 OFFCURVE",
"276 -12 CURVE SMOOTH",
"348 -12 OFFCURVE",
"411 9 OFFCURVE",
"450 67 CURVE",
"450 0 LINE",
"480 0 LINE",
"480 667 LINE",
"450 667 LINE"
);
},
{
closed = 1;
nodes = (
"450 196 LINE",
"450 44 OFFCURVE",
"348 15 OFFCURVE",
"276 15 CURVE SMOOTH",
"161 15 OFFCURVE",
"93 109 OFFCURVE",
"93 241 CURVE SMOOTH",
"93 373 OFFCURVE",
"161 468 OFFCURVE",
"276 468 CURVE SMOOTH",
"348 468 OFFCURVE",
"450 416 OFFCURVE",
"450 310 CURVE"
);
}
);
width = 566;
}
);
leftKerningGroup = c;
note = d;
unicode = 0064;
},
{
glyphname = eth;
lastChange = "2017-11-11 22:13:35 +0000";
layers = (
{
layerId = "C74BD54B-DC3B-4084-AB10-E48D432FD11D";
paths = (
{
closed = 1;
nodes = (
"379 650 OFFCURVE",
"450 495 OFFCURVE",
"450 416 CURVE",
"397 475 OFFCURVE",
"347 495 OFFCURVE",
"276 495 CURVE SMOOTH",
"147 495 OFFCURVE",
"60 393 OFFCURVE",
"60 241 CURVE SMOOTH",
"60 88 OFFCURVE",
"145 -12 OFFCURVE",
"276 -12 CURVE SMOOTH",
"348 -12 OFFCURVE",
"411 9 OFFCURVE",
"450 67 CURVE",
"450 0 LINE",
"480 0 LINE",
"480 112 OFFCURVE",
"482 278 OFFCURVE",
"480 419 CURVE SMOOTH",
"478 558 OFFCURVE",
"358 674 OFFCURVE",
"280 667 CURVE",
"263 649 LINE"
);
},
{
closed = 1;
nodes = (
"450 196 LINE",
"450 44 OFFCURVE",
"348 15 OFFCURVE",
"276 15 CURVE SMOOTH",
"161 15 OFFCURVE",
"93 109 OFFCURVE",
"93 241 CURVE SMOOTH",
"93 373 OFFCURVE",
"161 468 OFFCURVE",
"276 468 CURVE SMOOTH",
"348 468 OFFCURVE",
"450 416 OFFCURVE",
"450 310 CURVE"
);
},
{
closed = 1;
nodes = (
"274 523 LINE",
"501 676 LINE",
"486 699 LINE",
"259 545 LINE"
);
}
);
width = 566;
},
{
layerId = "043C55D1-ADA8-4506-BB55-8127E14D1A36";
paths = (
{
closed = 1;
nodes = (
"332 544 OFFCURVE",
"361 473 OFFCURVE",
"366 432 CURVE",
"328 478 OFFCURVE",
"279 495 OFFCURVE",
"230 495 CURVE SMOOTH",
"111 495 OFFCURVE",
"17 402 OFFCURVE",
"17 242 CURVE SMOOTH",
"17 76 OFFCURVE",
"113 -12 OFFCURVE",
"230 -12 CURVE SMOOTH",
"279 -12 OFFCURVE",
"325 5 OFFCURVE",
"366 51 CURVE",
"366 0 LINE",
"546 0 LINE",
"546 133 OFFCURVE",
"546 260 OFFCURVE",
"546 398 CURVE SMOOTH",
"546 492 OFFCURVE",
"512 627 OFFCURVE",
"426 667 CURVE",
"246 598 LINE"
);
},
{
closed = 1;
nodes = (
"366 239 LINE",
"366 158 OFFCURVE",
"315 147 OFFCURVE",
"291 147 CURVE SMOOTH",
"242 147 OFFCURVE",
"201 181 OFFCURVE",
"201 242 CURVE SMOOTH",
"201 302 OFFCURVE",
"242 336 OFFCURVE",
"291 336 CURVE SMOOTH",
"315 336 OFFCURVE",
"366 322 OFFCURVE",
"366 239 CURVE"
);
},
{
closed = 1;
nodes = (
"347 444 LINE",
"574 597 LINE",
"506 679 LINE",
"279 525 LINE"
);
}
);
width = 596;
},
{
layerId = "A3F0DF3F-6E5C-40C3-B5F9-213A49682D58";
paths = (
{
closed = 1;
nodes = (
"466 650 OFFCURVE",
"504 495 OFFCURVE",
"487 416 CURVE",
"447 475 OFFCURVE",
"401 495 OFFCURVE",
"330 495 CURVE SMOOTH",
"201 495 OFFCURVE",
"92 393 OFFCURVE",
"60 241 CURVE SMOOTH",
"27 88 OFFCURVE",
"91 -12 OFFCURVE",
"222 -12 CURVE SMOOTH",
"294 -12 OFFCURVE",
"362 9 OFFCURVE",
"413 67 CURVE",
"399 0 LINE",
"429 0 LINE",
"452 112 OFFCURVE",
"490 278 OFFCURVE",
"518 419 CURVE SMOOTH",
"545 558 OFFCURVE",
"450 674 OFFCURVE",
"370 667 CURVE",
"350 649 LINE"
);
},
{
closed = 1;
nodes = (
"440 196 LINE",
"408 44 OFFCURVE",
"300 15 OFFCURVE",
"228 15 CURVE SMOOTH",
"113 15 OFFCURVE",
"65 109 OFFCURVE",
"93 241 CURVE SMOOTH",
"121 373 OFFCURVE",
"209 468 OFFCURVE",
"324 468 CURVE SMOOTH",
"396 468 OFFCURVE",
"487 416 OFFCURVE",
"465 310 CURVE"
);
},
{
closed = 1;
nodes = (
"334 523 LINE",
"593 676 LINE",
"583 699 LINE",
"324 545 LINE"
);
}
);
width = 566;
},
{
layerId = "C7F6927E-AE81-4ED8-A250-E7EE5BA9BBA4";
paths = (
{
closed = 1;
nodes = (
"396 544 OFFCURVE",
"410 473 OFFCURVE",
"406 432 CURVE",
"378 478 OFFCURVE",
"333 495 OFFCURVE",
"284 495 CURVE SMOOTH",
"165 495 OFFCURVE",
"51 402 OFFCURVE",
"17 242 CURVE SMOOTH",
"-18 76 OFFCURVE",
"59 -12 OFFCURVE",
"176 -12 CURVE SMOOTH",
"225 -12 OFFCURVE",
"275 5 OFFCURVE",
"326 51 CURVE",
"315 0 LINE",
"495 0 LINE",
"523 133 OFFCURVE",
"550 260 OFFCURVE",
"579 398 CURVE SMOOTH",
"599 492 OFFCURVE",
"594 627 OFFCURVE",
"516 667 CURVE",
"322 598 LINE"
);
},
{
closed = 1;
nodes = (
"365 239 LINE",
"348 158 OFFCURVE",
"295 147 OFFCURVE",
"271 147 CURVE SMOOTH",
"222 147 OFFCURVE",
"188 181 OFFCURVE",
"201 242 CURVE SMOOTH",
"214 302 OFFCURVE",
"262 336 OFFCURVE",
"311 336 CURVE SMOOTH",
"335 336 OFFCURVE",
"383 322 OFFCURVE",
"365 239 CURVE"
);
},
{
closed = 1;
nodes = (
"390 444 LINE",
"650 597 LINE",
"599 679 LINE",
"339 525 LINE"
);
}
);
width = 596;
},
{
associatedMasterId = "C74BD54B-DC3B-4084-AB10-E48D432FD11D";
layerId = "C904C5FD-088D-4660-AED1-28B1A7BC3F9F";
paths = (
{
closed = 1;
nodes = (
"379 650 OFFCURVE",
"450 495 OFFCURVE",
"450 416 CURVE",
"397 475 OFFCURVE",
"347 495 OFFCURVE",
"276 495 CURVE SMOOTH",
"147 495 OFFCURVE",
"60 393 OFFCURVE",
"60 241 CURVE SMOOTH",
"60 88 OFFCURVE",
"145 -12 OFFCURVE",
"276 -12 CURVE SMOOTH",
"348 -12 OFFCURVE",
"411 9 OFFCURVE",
"450 67 CURVE",
"450 0 LINE",
"480 0 LINE",
"480 112 OFFCURVE",
"482 278 OFFCURVE",
"480 419 CURVE SMOOTH",
"478 558 OFFCURVE",
"358 674 OFFCURVE",
"280 667 CURVE",
"263 649 LINE"
);
},
{
closed = 1;
nodes = (
"450 196 LINE",
"450 44 OFFCURVE",
"348 15 OFFCURVE",
"276 15 CURVE SMOOTH",
"161 15 OFFCURVE",
"93 109 OFFCURVE",
"93 241 CURVE SMOOTH",
"93 373 OFFCURVE",
"161 468 OFFCURVE",
"276 468 CURVE SMOOTH",
"348 468 OFFCURVE",
"450 416 OFFCURVE",
"450 310 CURVE"
);
},
{
closed = 1;
nodes = (
"274 523 LINE",
"501 676 LINE",
"486 699 LINE",
"259 545 LINE"
);
}
);
width = 566;
}
);
leftKerningGroup = c;
note = d;
unicode = 00F0;
},
{
glyphname = e;
lastChange = "2017-11-15 02:55:44 +0000";
layers = (
{
anchors = (
{
name = bottom;
position = "{286, 0}";
},
{
name = ogonek;
position = "{402, 29}";
},
{
name = top;
position = "{286, 483}";
}
);
layerId = "C74BD54B-DC3B-4084-AB10-E48D432FD11D";
paths = (
{
closed = 1;
nodes = (
"415 42 OFFCURVE",
"364 20 OFFCURVE",
"297 20 CURVE SMOOTH",
"177 20 OFFCURVE",
"97 109 OFFCURVE",
"94 232 CURVE",
"511 232 LINE",
"511 242 LINE SMOOTH",
"511 385 OFFCURVE",
"428 495 OFFCURVE",
"287 495 CURVE SMOOTH",
"158 495 OFFCURVE",
"60 388 OFFCURVE",
"60 242 CURVE SMOOTH",
"60 94 OFFCURVE",
"157 -12 OFFCURVE",
"297 -12 CURVE SMOOTH",
"369 -12 OFFCURVE",
"431 15 OFFCURVE",
"483 69 CURVE",
"460 91 LINE"
);
},
{
closed = 1;
nodes = (
"94 264 LINE",
"98 363 OFFCURVE",
"170 468 OFFCURVE",
"286 468 CURVE SMOOTH",
"401 468 OFFCURVE",
"479 378 OFFCURVE",
"479 264 CURVE"
);
}
);
width = 571;
},
{
anchors = (
{
name = bottom;
position = "{272, 0}";
},
{
name = ogonek;
position = "{430, 43}";
},
{
name = top;
position = "{272, 483}";
}
);
layerId = "043C55D1-ADA8-4506-BB55-8127E14D1A36";
paths = (
{
closed = 1;
nodes = (
"394 138 OFFCURVE",
"334 125 OFFCURVE",
"307 125 CURVE SMOOTH",
"248 125 OFFCURVE",
"213 155 OFFCURVE",
"203 186 CURVE",
"531 186 LINE",
"531 223 LINE SMOOTH",
"531 393 OFFCURVE",
"422 495 OFFCURVE",
"280 495 CURVE SMOOTH",
"124 495 OFFCURVE",
"17 382 OFFCURVE",
"17 242 CURVE SMOOTH",
"17 83 OFFCURVE",
"135 -12 OFFCURVE",
"286 -12 CURVE SMOOTH",
"358 -12 OFFCURVE",
"444 7 OFFCURVE",
"492 48 CURVE",
"418 159 LINE"
);
},
{
closed = 1;
nodes = (
"201 300 LINE",
"207 322 OFFCURVE",
"225 358 OFFCURVE",
"280 358 CURVE SMOOTH",
"338 358 OFFCURVE",
"355 321 OFFCURVE",
"360 300 CURVE"
);
}
);
width = 543;
},
{
anchors = (
{
name = bottom;
position = "{235, 0}";
},
{
name = ogonek;
position = "{357, 29}";
},
{
name = top;
position = "{337, 483}";
}
);
layerId = "A3F0DF3F-6E5C-40C3-B5F9-213A49682D58";
paths = (
{
closed = 1;
nodes = (
"373 42 OFFCURVE",
"317 20 OFFCURVE",
"250 20 CURVE SMOOTH",
"130 20 OFFCURVE",
"69 109 OFFCURVE",
"92 232 CURVE",
"509 232 LINE",
"511 242 LINE SMOOTH",
"542 385 OFFCURVE",
"482 495 OFFCURVE",
"341 495 CURVE SMOOTH",
"212 495 OFFCURVE",
"91 388 OFFCURVE",
"60 242 CURVE SMOOTH",
"29 94 OFFCURVE",
"103 -12 OFFCURVE",
"243 -12 CURVE SMOOTH",
"315 -12 OFFCURVE",
"383 15 OFFCURVE",
"446 69 CURVE",
"428 91 LINE"
);
},
{
closed = 1;
nodes = (
"99 264 LINE",
"124 363 OFFCURVE",
"218 468 OFFCURVE",
"334 468 CURVE SMOOTH",
"449 468 OFFCURVE",
"508 378 OFFCURVE",
"484 264 CURVE"
);
}
);
width = 571;
},
{
anchors = (
{
name = bottom;
position = "{221, 0}";
},
{
name = ogonek;
position = "{388, 43}";
},
{
name = top;
position = "{323, 483}";
}
);
layerId = "C7F6927E-AE81-4ED8-A250-E7EE5BA9BBA4";
paths = (
{
closed = 1;
nodes = (
"372 138 OFFCURVE",
"309 125 OFFCURVE",
"282 125 CURVE SMOOTH",
"223 125 OFFCURVE",
"195 155 OFFCURVE",
"191 186 CURVE",
"519 186 LINE",
"527 223 LINE SMOOTH",
"563 393 OFFCURVE",
"476 495 OFFCURVE",
"334 495 CURVE SMOOTH",
"178 495 OFFCURVE",
"47 382 OFFCURVE",
"17 242 CURVE SMOOTH",
"-17 83 OFFCURVE",
"81 -12 OFFCURVE",
"232 -12 CURVE SMOOTH",
"304 -12 OFFCURVE",
"394 7 OFFCURVE",
"451 48 CURVE",
"400 159 LINE"
);
},
{
closed = 1;
nodes = (
"213 300 LINE",
"224 322 OFFCURVE",
"250 358 OFFCURVE",
"305 358 CURVE SMOOTH",
"363 358 OFFCURVE",
"372 321 OFFCURVE",
"372 300 CURVE"
);
}
);
width = 543;
},
{
anchors = (
{
name = bottom;
position = "{286, 0}";
},
{
name = ogonek;
position = "{402, 29}";
},
{
name = top;
position = "{286, 483}";
}
);
associatedMasterId = "C74BD54B-DC3B-4084-AB10-E48D432FD11D";
layerId = "C904C5FD-088D-4660-AED1-28B1A7BC3F9F";
paths = (
{
closed = 1;
nodes = (
"415 42 OFFCURVE",
"364 20 OFFCURVE",
"297 20 CURVE SMOOTH",
"177 20 OFFCURVE",
"97 109 OFFCURVE",
"94 232 CURVE",
"511 232 LINE",
"511 242 LINE SMOOTH",
"511 385 OFFCURVE",
"428 495 OFFCURVE",
"287 495 CURVE SMOOTH",
"158 495 OFFCURVE",
"60 388 OFFCURVE",
"60 242 CURVE SMOOTH",
"60 94 OFFCURVE",
"157 -12 OFFCURVE",
"297 -12 CURVE SMOOTH",
"369 -12 OFFCURVE",
"431 15 OFFCURVE",
"483 69 CURVE",
"460 91 LINE"
);
},
{
closed = 1;
nodes = (
"94 264 LINE",
"98 363 OFFCURVE",
"170 468 OFFCURVE",
"286 468 CURVE SMOOTH",
"401 468 OFFCURVE",
"479 378 OFFCURVE",
"479 264 CURVE"
);
}
);
width = 571;
}
);
leftKerningGroup = c;
note = e;
rightKerningGroup = e;
unicode = 0065;
},
{
glyphname = f;
lastChange = "2017-11-15 03:04:29 +0000";
layers = (
{
layerId = "C74BD54B-DC3B-4084-AB10-E48D432FD11D";
paths = (
{
closed = 1;
nodes = (
"20 483 LINE",
"20 456 LINE",
"100 456 LINE",
"100 0 LINE",
"130 0 LINE",
"130 456 LINE",
"228 456 LINE",
"228 483 LINE",
"130 483 LINE",
"130 534 LINE SMOOTH",
"130 611 OFFCURVE",
"160 650 OFFCURVE",
"221 650 CURVE SMOOTH",
"244 650 OFFCURVE",
"233 650 OFFCURVE",
"246 650 CURVE",
"246 677 LINE",
"224 677 OFFCURVE",
"251 677 OFFCURVE",
"221 677 CURVE SMOOTH",
"145 677 OFFCURVE",
"100 623 OFFCURVE",
"100 534 CURVE SMOOTH",
"100 483 LINE"
);
}
);
width = 246;
},
{
layerId = "043C55D1-ADA8-4506-BB55-8127E14D1A36";
paths = (
{
closed = 1;
nodes = (
"7 483 LINE",
"7 327 LINE",
"87 327 LINE",
"87 0 LINE",
"267 0 LINE",
"267 327 LINE",
"365 327 LINE",
"365 483 LINE",
"267 483 LINE",
"267 505 LINE SMOOTH",
"267 529 OFFCURVE",
"290 544 OFFCURVE",
"312 544 CURVE SMOOTH",
"333 544 OFFCURVE",
"336 544 OFFCURVE",
"367 544 CURVE",
"367 677 LINE",
"326 677 OFFCURVE",
"327 677 OFFCURVE",
"271 677 CURVE SMOOTH",
"164 677 OFFCURVE",
"87 606 OFFCURVE",
"87 505 CURVE SMOOTH",
"87 483 LINE"
);
}
);
width = 371;
},
{
layerId = "A3F0DF3F-6E5C-40C3-B5F9-213A49682D58";
paths = (
{
closed = 1;
nodes = (
"71 483 LINE",
"66 456 LINE",
"146 456 LINE",
"49 0 LINE",
"79 0 LINE",
"176 456 LINE",
"274 456 LINE",
"279 483 LINE",
"181 483 LINE",
"192 534 LINE SMOOTH",
"209 611 OFFCURVE",
"247 650 OFFCURVE",
"308 650 CURVE SMOOTH",
"331 650 OFFCURVE",
"320 650 OFFCURVE",
"333 650 CURVE",
"339 677 LINE",
"317 677 OFFCURVE",
"344 677 OFFCURVE",
"314 677 CURVE SMOOTH",
"238 677 OFFCURVE",
"181 623 OFFCURVE",
"162 534 CURVE SMOOTH",
"151 483 LINE"
);
}
);
width = 246;
},
{
layerId = "C7F6927E-AE81-4ED8-A250-E7EE5BA9BBA4";
paths = (
{
closed = 1;
nodes = (
"58 483 LINE",
"25 327 LINE",
"105 327 LINE",
"36 0 LINE",
"216 0 LINE",
"285 327 LINE",
"383 327 LINE",
"416 483 LINE",
"318 483 LINE",
"323 505 LINE SMOOTH",
"328 529 OFFCURVE",
"354 544 OFFCURVE",
"376 544 CURVE SMOOTH",
"397 544 OFFCURVE",
"400 544 OFFCURVE",
"431 544 CURVE",
"460 677 LINE",
"419 677 OFFCURVE",
"420 677 OFFCURVE",
"364 677 CURVE SMOOTH",
"257 677 OFFCURVE",
"164 606 OFFCURVE",
"143 505 CURVE SMOOTH",
"138 483 LINE"
);
}
);
width = 371;
},
{
associatedMasterId = "C74BD54B-DC3B-4084-AB10-E48D432FD11D";
layerId = "C904C5FD-088D-4660-AED1-28B1A7BC3F9F";
paths = (
{
closed = 1;
nodes = (
"20 483 LINE",
"20 456 LINE",
"100 456 LINE",
"100 0 LINE",
"130 0 LINE",
"130 456 LINE",
"228 456 LINE",
"228 483 LINE",
"130 483 LINE",
"130 534 LINE SMOOTH",
"130 611 OFFCURVE",
"160 650 OFFCURVE",
"221 650 CURVE SMOOTH",
"244 650 OFFCURVE",
"233 650 OFFCURVE",
"246 650 CURVE",
"246 677 LINE",
"224 677 OFFCURVE",
"251 677 OFFCURVE",
"221 677 CURVE SMOOTH",
"145 677 OFFCURVE",
"100 623 OFFCURVE",
"100 534 CURVE SMOOTH",
"100 483 LINE"
);
}
);
width = 246;
}
);
leftKerningGroup = f;
note = f;
rightKerningGroup = f;
unicode = 0066;
},
{
glyphname = g;
lastChange = "2017-11-15 02:40:21 +0000";
layers = (
{
anchors = (
{
name = bottom;
position = "{283, 0}";
},
{
name = top;
position = "{283, 483}";
}
);
layerId = "C74BD54B-DC3B-4084-AB10-E48D432FD11D";
paths = (
{
closed = 1;
nodes = (
"400 -199 OFFCURVE",
"480 -135 OFFCURVE",
"480 -3 CURVE SMOOTH",
"480 483 LINE",
"450 483 LINE",
"450 420 LINE",
"408 488 OFFCURVE",
"347 495 OFFCURVE",
"276 495 CURVE SMOOTH",
"147 495 OFFCURVE",
"60 392 OFFCURVE",
"60 240 CURVE SMOOTH",
"60 87 OFFCURVE",
"145 -14 OFFCURVE",
"276 -14 CURVE SMOOTH",
"348 -14 OFFCURVE",
"419 7 OFFCURVE",
"450 74 CURVE",
"450 -3 LINE SMOOTH",
"450 -114 OFFCURVE",
"379 -169 OFFCURVE",
"276 -169 CURVE SMOOTH",
"200 -169 OFFCURVE",
"154 -150 OFFCURVE",
"113 -98 CURVE",
"91 -123 LINE",
"146 -180 OFFCURVE",
"192 -199 OFFCURVE",
"276 -199 CURVE SMOOTH"
);
},
{
closed = 1;
nodes = (
"161 13 OFFCURVE",
"93 108 OFFCURVE",
"93 240 CURVE SMOOTH",
"93 372 OFFCURVE",
"161 468 OFFCURVE",
"276 468 CURVE SMOOTH",
"348 468 OFFCURVE",
"450 433 OFFCURVE",
"450 316 CURVE",
"450 198 LINE",
"450 48 OFFCURVE",
"348 13 OFFCURVE",
"276 13 CURVE SMOOTH"
);
}
);
width = 566;
},
{
anchors = (
{
name = bottom;
position = "{298, 0}";
},
{
name = top;
position = "{298, 483}";
}
);
layerId = "043C55D1-ADA8-4506-BB55-8127E14D1A36";
paths = (
{
closed = 1;
nodes = (
"373 -196 OFFCURVE",
"545 -157 OFFCURVE",
"545 52 CURVE SMOOTH",
"545 483 LINE",
"365 483 LINE",
"365 432 LINE",
"326 478 OFFCURVE",
"279 495 OFFCURVE",
"229 495 CURVE SMOOTH",
"110 495 OFFCURVE",
"17 415 OFFCURVE",
"17 254 CURVE SMOOTH",
"17 89 OFFCURVE",
"113 13 OFFCURVE",
"229 13 CURVE SMOOTH",
"279 13 OFFCURVE",
"324 31 OFFCURVE",
"365 78 CURVE",
"365 52 LINE SMOOTH",
"365 -33 OFFCURVE",
"295 -49 OFFCURVE",
"253 -49 CURVE SMOOTH",
"201 -49 OFFCURVE",
"146 -33 OFFCURVE",
"109 4 CURVE",
"33 -124 LINE",
"96 -174 OFFCURVE",
"170 -196 OFFCURVE",
"253 -196 CURVE SMOOTH"
);
},
{
closed = 1;
nodes = (
"242 172 OFFCURVE",
"201 195 OFFCURVE",
"201 254 CURVE SMOOTH",
"201 313 OFFCURVE",
"242 336 OFFCURVE",
"291 336 CURVE SMOOTH",
"314 336 OFFCURVE",
"365 323 OFFCURVE",
"365 249 CURVE",
"365 249 LINE",
"365 186 OFFCURVE",
"314 172 OFFCURVE",
"291 172 CURVE SMOOTH"
);
}
);
width = 595;
},
{
anchors = (
{
name = bottom;
position = "{232, 0}";
},
{
name = top;
position = "{334, 483}";
}
);
layerId = "A3F0DF3F-6E5C-40C3-B5F9-213A49682D58";
paths = (
{
closed = 1;
nodes = (
"307 -196 OFFCURVE",
"400 -135 OFFCURVE",
"428 -3 CURVE SMOOTH",
"531 483 LINE",
"501 483 LINE",
"488 420 LINE",
"460 488 OFFCURVE",
"401 495 OFFCURVE",
"330 495 CURVE SMOOTH",
"201 495 OFFCURVE",
"92 392 OFFCURVE",
"60 240 CURVE SMOOTH",
"27 87 OFFCURVE",
"91 -14 OFFCURVE",
"222 -14 CURVE SMOOTH",
"294 -14 OFFCURVE",
"369 7 OFFCURVE",
"414 74 CURVE",
"398 -3 LINE SMOOTH",
"374 -114 OFFCURVE",
"292 -169 OFFCURVE",
"189 -169 CURVE SMOOTH",
"113 -169 OFFCURVE",
"71 -150 OFFCURVE",
"41 -98 CURVE",
"14 -123 LINE",
"56 -180 OFFCURVE",
"99 -196 OFFCURVE",
"183 -196 CURVE SMOOTH"
);
},
{
closed = 1;
nodes = (
"112 13 OFFCURVE",
"65 108 OFFCURVE",
"93 240 CURVE SMOOTH",
"121 372 OFFCURVE",
"209 468 OFFCURVE",
"324 468 CURVE SMOOTH",
"396 468 OFFCURVE",
"491 433 OFFCURVE",
"466 316 CURVE",
"441 198 LINE",
"409 48 OFFCURVE",
"299 13 OFFCURVE",
"227 13 CURVE SMOOTH"
);
}
);
width = 566;
},
{
anchors = (
{
name = bottom;
position = "{247, 0}";
},
{
name = top;
position = "{349, 483}";
}
);
layerId = "C7F6927E-AE81-4ED8-A250-E7EE5BA9BBA4";
paths = (
{
closed = 1;
nodes = (
"280 -196 OFFCURVE",
"460 -157 OFFCURVE",
"505 52 CURVE SMOOTH",
"596 483 LINE",
"416 483 LINE",
"405 432 LINE",
"376 478 OFFCURVE",
"333 495 OFFCURVE",
"283 495 CURVE SMOOTH",
"164 495 OFFCURVE",
"54 415 OFFCURVE",
"20 254 CURVE SMOOTH",
"-15 89 OFFCURVE",
"64 13 OFFCURVE",
"180 13 CURVE SMOOTH",
"230 13 OFFCURVE",
"279 31 OFFCURVE",
"330 78 CURVE",
"325 52 LINE SMOOTH",
"307 -33 OFFCURVE",
"233 -49 OFFCURVE",
"191 -49 CURVE SMOOTH",
"139 -49 OFFCURVE",
"88 -33 OFFCURVE",
"59 4 CURVE",
"-45 -124 LINE",
"8 -174 OFFCURVE",
"77 -196 OFFCURVE",
"160 -196 CURVE SMOOTH"
);
},
{
closed = 1;
nodes = (
"227 172 OFFCURVE",
"191 195 OFFCURVE",
"204 254 CURVE SMOOTH",
"216 313 OFFCURVE",
"262 336 OFFCURVE",
"311 336 CURVE SMOOTH",
"334 336 OFFCURVE",
"382 323 OFFCURVE",
"367 249 CURVE",
"367 249 LINE",
"353 186 OFFCURVE",
"299 172 OFFCURVE",
"276 172 CURVE SMOOTH"
);
}
);
width = 595;
},
{
anchors = (
{
name = bottom;
position = "{283, 0}";
},
{
name = top;
position = "{283, 483}";
}
);
associatedMasterId = "C74BD54B-DC3B-4084-AB10-E48D432FD11D";
layerId = "C904C5FD-088D-4660-AED1-28B1A7BC3F9F";
paths = (
{
closed = 1;
nodes = (
"400 -196 OFFCURVE",
"480 -135 OFFCURVE",
"480 -3 CURVE SMOOTH",
"480 483 LINE",
"450 483 LINE",
"450 420 LINE",
"408 488 OFFCURVE",
"347 495 OFFCURVE",
"276 495 CURVE SMOOTH",
"147 495 OFFCURVE",
"60 392 OFFCURVE",
"60 240 CURVE SMOOTH",
"60 87 OFFCURVE",
"145 -14 OFFCURVE",
"276 -14 CURVE SMOOTH",
"348 -14 OFFCURVE",
"419 7 OFFCURVE",
"450 74 CURVE",
"450 -3 LINE SMOOTH",
"450 -114 OFFCURVE",
"379 -169 OFFCURVE",
"276 -169 CURVE SMOOTH",
"200 -169 OFFCURVE",
"154 -150 OFFCURVE",
"113 -98 CURVE",
"91 -123 LINE",
"146 -180 OFFCURVE",
"192 -196 OFFCURVE",
"276 -196 CURVE SMOOTH"
);
},
{
closed = 1;
nodes = (
"161 13 OFFCURVE",
"93 108 OFFCURVE",
"93 240 CURVE SMOOTH",
"93 372 OFFCURVE",
"161 468 OFFCURVE",
"276 468 CURVE SMOOTH",
"348 468 OFFCURVE",
"450 433 OFFCURVE",
"450 316 CURVE",
"450 198 LINE",
"450 48 OFFCURVE",
"348 13 OFFCURVE",
"276 13 CURVE SMOOTH"
);
}
);
width = 566;
}
);
leftKerningGroup = c;
note = g;
rightKerningGroup = a;
unicode = 0067;
},
{
glyphname = h;
lastChange = "2017-11-11 22:13:35 +0000";
layers = (
{
layerId = "C74BD54B-DC3B-4084-AB10-E48D432FD11D";
paths = (
{
closed = 1;
nodes = (
"86 0 LINE",
"116 0 LINE",
"116 339 LINE",
"116 416 OFFCURVE",
"223 468 OFFCURVE",
"287 468 CURVE SMOOTH",
"368 468 OFFCURVE",
"412 435 OFFCURVE",
"412 339 CURVE SMOOTH",
"412 0 LINE",
"442 0 LINE",
"442 339 LINE SMOOTH",
"442 450 OFFCURVE",
"391 495 OFFCURVE",
"291 495 CURVE SMOOTH",
"227 495 OFFCURVE",
"143 465 OFFCURVE",
"116 404 CURVE",
"116 667 LINE",
"86 667 LINE"
);
}
);
width = 528;
},
{
layerId = "043C55D1-ADA8-4506-BB55-8127E14D1A36";
paths = (
{
closed = 1;
nodes = (
"51 0 LINE",
"231 0 LINE",
"231 269 LINE",
"231 307 OFFCURVE",
"267 336 OFFCURVE",
"308 336 CURVE SMOOTH",
"351 336 OFFCURVE",
"378 319 OFFCURVE",
"378 269 CURVE SMOOTH",
"378 0 LINE",
"558 0 LINE",
"558 345 LINE SMOOTH",
"558 429 OFFCURVE",
"509 495 OFFCURVE",
"397 495 CURVE SMOOTH",
"312 495 OFFCURVE",
"259 460 OFFCURVE",
"231 428 CURVE",
"231 667 LINE",
"51 667 LINE"
);
}
);
width = 608;
},
{
layerId = "A3F0DF3F-6E5C-40C3-B5F9-213A49682D58";
paths = (
{
closed = 1;
nodes = (
"35 0 LINE",
"65 0 LINE",
"137 339 LINE",
"153 416 OFFCURVE",
"271 468 OFFCURVE",
"335 468 CURVE SMOOTH",
"416 468 OFFCURVE",
"453 435 OFFCURVE",
"433 339 CURVE SMOOTH",
"361 0 LINE",
"391 0 LINE",
"463 339 LINE SMOOTH",
"486 450 OFFCURVE",
"445 495 OFFCURVE",
"345 495 CURVE SMOOTH",
"281 495 OFFCURVE",
"191 465 OFFCURVE",
"151 404 CURVE",
"206 667 LINE",
"176 667 LINE"
);
}
);
width = 528;
},
{
layerId = "C7F6927E-AE81-4ED8-A250-E7EE5BA9BBA4";
paths = (
{
closed = 1;
nodes = (
"0 0 LINE",
"180 0 LINE",
"237 269 LINE",
"245 307 OFFCURVE",
"287 336 OFFCURVE",
"328 336 CURVE SMOOTH",
"371 336 OFFCURVE",
"394 319 OFFCURVE",
"384 269 CURVE SMOOTH",
"327 0 LINE",
"507 0 LINE",
"580 345 LINE SMOOTH",
"598 429 OFFCURVE",
"563 495 OFFCURVE",
"451 495 CURVE SMOOTH",
"366 495 OFFCURVE",
"305 460 OFFCURVE",
"271 428 CURVE",
"321 667 LINE",
"141 667 LINE"
);
}
);
width = 608;
},
{
associatedMasterId = "C74BD54B-DC3B-4084-AB10-E48D432FD11D";
layerId = "C904C5FD-088D-4660-AED1-28B1A7BC3F9F";
paths = (
{
closed = 1;
nodes = (
"86 0 LINE",
"116 0 LINE",
"116 339 LINE",
"116 416 OFFCURVE",
"223 468 OFFCURVE",
"287 468 CURVE SMOOTH",
"368 468 OFFCURVE",
"412 435 OFFCURVE",
"412 339 CURVE SMOOTH",
"412 0 LINE",
"442 0 LINE",
"442 339 LINE SMOOTH",
"442 450 OFFCURVE",
"391 495 OFFCURVE",
"291 495 CURVE SMOOTH",
"227 495 OFFCURVE",
"143 465 OFFCURVE",
"116 404 CURVE",
"116 667 LINE",
"86 667 LINE"
);
}
);
width = 528;
}
);
note = h;
rightKerningGroup = a;
unicode = 0068;
},
{
glyphname = i;
lastChange = "2017-11-16 18:35:55 +0000";
layers = (
{
layerId = "C74BD54B-DC3B-4084-AB10-E48D432FD11D";
paths = (
{
closed = 1;
nodes = (
"86 0 LINE",
"116 0 LINE",
"116 483 LINE",
"86 483 LINE"
);
},
{
closed = 1;
nodes = (
"72 590 OFFCURVE",
"83 579 OFFCURVE",
"102 579 CURVE SMOOTH",
"120 579 OFFCURVE",
"131 590 OFFCURVE",
"131 609 CURVE SMOOTH",
"131 628 OFFCURVE",
"120 639 OFFCURVE",
"102 639 CURVE SMOOTH",
"84 639 OFFCURVE",
"72 628 OFFCURVE",
"72 609 CURVE SMOOTH"
);
}
);
width = 202;
},
{
layerId = "043C55D1-ADA8-4506-BB55-8127E14D1A36";
paths = (
{
closed = 1;
nodes = (
"50 0 LINE",
"230 0 LINE",
"230 483 LINE",
"50 483 LINE"
);
},
{
closed = 1;
nodes = (
"40 561 OFFCURVE",
"76 525 OFFCURVE",
"141 525 CURVE SMOOTH",
"206 525 OFFCURVE",
"241 561 OFFCURVE",
"241 627 CURVE SMOOTH",
"241 693 OFFCURVE",
"206 729 OFFCURVE",
"141 729 CURVE SMOOTH",
"76 729 OFFCURVE",
"40 693 OFFCURVE",
"40 627 CURVE SMOOTH"
);
}
);
width = 280;
},
{
layerId = "A3F0DF3F-6E5C-40C3-B5F9-213A49682D58";
paths = (
{
closed = 1;
nodes = (
"35 0 LINE",
"65 0 LINE",
"167 483 LINE",
"137 483 LINE"
);
},
{
closed = 1;
nodes = (
"146 590 OFFCURVE",
"155 579 OFFCURVE",
"174 579 CURVE SMOOTH",
"192 579 OFFCURVE",
"205 590 OFFCURVE",
"209 609 CURVE SMOOTH",
"213 628 OFFCURVE",
"204 639 OFFCURVE",
"186 639 CURVE SMOOTH",
"168 639 OFFCURVE",
"154 628 OFFCURVE",
"150 609 CURVE SMOOTH"
);
}
);
width = 202;
},
{
layerId = "C7F6927E-AE81-4ED8-A250-E7EE5BA9BBA4";
paths = (
{
closed = 1;
nodes = (
"-1 0 LINE",
"179 0 LINE",
"281 483 LINE",
"101 483 LINE"
);
},
{
closed = 1;
nodes = (
"114 561 OFFCURVE",
"141 525 OFFCURVE",
"206 525 CURVE SMOOTH",
"271 525 OFFCURVE",
"315 561 OFFCURVE",
"330 627 CURVE SMOOTH",
"345 693 OFFCURVE",
"319 729 OFFCURVE",
"254 729 CURVE SMOOTH",
"189 729 OFFCURVE",
"144 693 OFFCURVE",
"129 627 CURVE SMOOTH"
);
}
);
width = 280;
},
{
associatedMasterId = "C74BD54B-DC3B-4084-AB10-E48D432FD11D";
layerId = "C904C5FD-088D-4660-AED1-28B1A7BC3F9F";
paths = (
{
closed = 1;
nodes = (
"86 0 LINE",
"116 0 LINE",
"116 483 LINE",
"86 483 LINE"
);
},
{
closed = 1;
nodes = (
"86 580 LINE",
"116 580 LINE",
"116 638 LINE",
"86 638 LINE"
);
}
);
width = 202;
}
);
note = i;
rightKerningGroup = l;
unicode = 0069;
},
{
glyphname = idotless;
lastChange = "2017-11-11 22:13:35 +0000";
layers = (
{
anchors = (
{
name = bottom;
position = "{101, 0}";
},
{
name = ogonek;
position = "{86, 0}";
},
{
name = top;
position = "{101, 483}";
}
);
layerId = "C74BD54B-DC3B-4084-AB10-E48D432FD11D";
paths = (
{
closed = 1;
nodes = (
"86 0 LINE",
"116 0 LINE",
"116 483 LINE",
"86 483 LINE"
);
}
);
width = 202;
},
{
anchors = (
{
name = bottom;
position = "{146, 7}";
},
{
name = ogonek;
position = "{143, 6}";
},
{
name = top;
position = "{140, 483}";
}
);
layerId = "043C55D1-ADA8-4506-BB55-8127E14D1A36";
paths = (
{
closed = 1;
nodes = (
"50 0 LINE",
"230 0 LINE",
"230 483 LINE",
"50 483 LINE"
);
}
);
width = 280;
},
{
anchors = (
{
name = bottom;
position = "{50, 0}";
},
{
name = ogonek;
position = "{35, 0}";
},
{
name = top;
position = "{152, 483}";
}
);
layerId = "A3F0DF3F-6E5C-40C3-B5F9-213A49682D58";
paths = (
{
closed = 1;
nodes = (
"35 0 LINE",
"65 0 LINE",
"167 483 LINE",
"137 483 LINE"
);
}
);
width = 202;
},
{
anchors = (
{
name = bottom;
position = "{96, 7}";
},
{
name = ogonek;
position = "{93, 6}";
},
{
name = top;
position = "{191, 483}";
}
);
layerId = "C7F6927E-AE81-4ED8-A250-E7EE5BA9BBA4";
paths = (
{
closed = 1;
nodes = (
"-1 0 LINE",
"179 0 LINE",
"281 483 LINE",
"101 483 LINE"
);
}
);
width = 280;
},
{
anchors = (
{
name = bottom;
position = "{101, 0}";
},
{
name = ogonek;
position = "{86, 0}";
},
{
name = top;
position = "{101, 483}";
}
);
associatedMasterId = "C74BD54B-DC3B-4084-AB10-E48D432FD11D";
layerId = "C904C5FD-088D-4660-AED1-28B1A7BC3F9F";
paths = (
{
closed = 1;
nodes = (
"86 0 LINE",
"116 0 LINE",
"116 483 LINE",
"86 483 LINE"
);
}
);
width = 202;
}
);
note = i;
unicode = 0131;
},
{
glyphname = j;
lastChange = "2017-11-16 18:39:57 +0000";
layers = (
{
guideLines = (
{
angle = 90;
position = "{86, 483}";
}
);
layerId = "C74BD54B-DC3B-4084-AB10-E48D432FD11D";
paths = (
{
closed = 1;
nodes = (
"76 -196 OFFCURVE",
"116 -156 OFFCURVE",
"116 -76 CURVE SMOOTH",
"116 483 LINE",
"86 483 LINE",
"86 -76 LINE SMOOTH",
"86 -139 OFFCURVE",
"50 -169 OFFCURVE",
"-3 -169 CURVE SMOOTH",
"-30 -169 OFFCURVE",
"-55 -157 OFFCURVE",
"-76 -133 CURVE",
"-95 -158 LINE",
"-68 -183 OFFCURVE",
"-37 -196 OFFCURVE",
"-3 -196 CURVE SMOOTH"
);
},
{
closed = 1;
nodes = (
"70 590 OFFCURVE",
"81 579 OFFCURVE",
"100 579 CURVE SMOOTH",
"118 579 OFFCURVE",
"129 590 OFFCURVE",
"129 609 CURVE SMOOTH",
"129 628 OFFCURVE",
"118 639 OFFCURVE",
"100 639 CURVE SMOOTH",
"82 639 OFFCURVE",
"70 628 OFFCURVE",
"70 609 CURVE SMOOTH"
);
}
);
width = 202;
},
{
layerId = "043C55D1-ADA8-4506-BB55-8127E14D1A36";
paths = (
{
closed = 1;
nodes = (
"169 -196 OFFCURVE",
"230 -103 OFFCURVE",
"230 21 CURVE SMOOTH",
"230 483 LINE",
"50 483 LINE",
"50 21 LINE SMOOTH",
"50 -25 OFFCURVE",
"30 -49 OFFCURVE",
"-3 -49 CURVE SMOOTH",
"-31 -49 OFFCURVE",
"-43 -45 OFFCURVE",
"-63 -30 CURVE",
"-106 -163 LINE",
"-67 -187 OFFCURVE",
"-44 -196 OFFCURVE",
"29 -196 CURVE SMOOTH"
);
},
{
closed = 1;
nodes = (
"39 561 OFFCURVE",
"75 525 OFFCURVE",
"140 525 CURVE SMOOTH",
"205 525 OFFCURVE",
"240 561 OFFCURVE",
"240 627 CURVE SMOOTH",
"240 693 OFFCURVE",
"205 729 OFFCURVE",
"140 729 CURVE SMOOTH",
"75 729 OFFCURVE",
"39 693 OFFCURVE",
"39 627 CURVE SMOOTH"
);
}
);
width = 280;
},
{
guideLines = (
{
angle = 90;
position = "{86, 483}";
}
);
layerId = "A3F0DF3F-6E5C-40C3-B5F9-213A49682D58";
paths = (
{
closed = 1;
nodes = (
"-17 -196 OFFCURVE",
"32 -156 OFFCURVE",
"49 -76 CURVE SMOOTH",
"167 483 LINE",
"137 483 LINE",
"19 -76 LINE SMOOTH",
"5 -139 OFFCURVE",
"-37 -169 OFFCURVE",
"-90 -169 CURVE SMOOTH",
"-117 -169 OFFCURVE",
"-140 -157 OFFCURVE",
"-156 -133 CURVE",
"-180 -158 LINE",
"-158 -183 OFFCURVE",
"-130 -196 OFFCURVE",
"-96 -196 CURVE SMOOTH"
);
},
{
closed = 1;
nodes = (
"150 590 OFFCURVE",
"159 579 OFFCURVE",
"178 579 CURVE SMOOTH",
"196 579 OFFCURVE",
"209 590 OFFCURVE",
"214 609 CURVE SMOOTH",
"218 628 OFFCURVE",
"210 639 OFFCURVE",
"192 639 CURVE SMOOTH",
"174 639 OFFCURVE",
"159 628 OFFCURVE",
"155 609 CURVE SMOOTH"
);
}
);
width = 202;
},
{
layerId = "C7F6927E-AE81-4ED8-A250-E7EE5BA9BBA4";
paths = (
{
closed = 1;
nodes = (
"76 -196 OFFCURVE",
"157 -103 OFFCURVE",
"183 21 CURVE SMOOTH",
"281 483 LINE",
"101 483 LINE",
"3 21 LINE SMOOTH",
"-7 -25 OFFCURVE",
"-32 -49 OFFCURVE",
"-65 -49 CURVE SMOOTH",
"-93 -49 OFFCURVE",
"-104 -45 OFFCURVE",
"-121 -30 CURVE",
"-192 -163 LINE",
"-158 -187 OFFCURVE",
"-137 -196 OFFCURVE",
"-64 -196 CURVE SMOOTH"
);
},
{
closed = 1;
nodes = (
"113 561 OFFCURVE",
"140 525 OFFCURVE",
"205 525 CURVE SMOOTH",
"270 525 OFFCURVE",
"314 561 OFFCURVE",
"329 627 CURVE SMOOTH",
"344 693 OFFCURVE",
"318 729 OFFCURVE",
"253 729 CURVE SMOOTH",
"188 729 OFFCURVE",
"143 693 OFFCURVE",
"128 627 CURVE SMOOTH"
);
}
);
width = 280;
},
{
associatedMasterId = "C74BD54B-DC3B-4084-AB10-E48D432FD11D";
layerId = "C904C5FD-088D-4660-AED1-28B1A7BC3F9F";
paths = (
{
closed = 1;
nodes = (
"76 -196 OFFCURVE",
"116 -156 OFFCURVE",
"116 -76 CURVE SMOOTH",
"116 483 LINE",
"86 483 LINE",
"86 -76 LINE SMOOTH",
"86 -139 OFFCURVE",
"50 -169 OFFCURVE",
"-3 -169 CURVE SMOOTH",
"-30 -169 OFFCURVE",
"-55 -157 OFFCURVE",
"-76 -133 CURVE",
"-95 -158 LINE",
"-68 -183 OFFCURVE",
"-37 -196 OFFCURVE",
"-3 -196 CURVE SMOOTH"
);
},
{
closed = 1;
nodes = (
"86 580 LINE",
"116 580 LINE",
"116 638 LINE",
"86 638 LINE"
);
}
);
width = 202;
}
);
leftKerningGroup = j;
note = j;
rightKerningGroup = g;
unicode = 006A;
},
{
glyphname = k;
lastChange = "2017-11-15 02:36:45 +0000";
layers = (
{
anchors = (
{
name = bottom;
position = "{248, 0}";
},
{
name = top;
position = "{248, 483}";
}
);
layerId = "C74BD54B-DC3B-4084-AB10-E48D432FD11D";
paths = (
{
closed = 1;
nodes = (
"86 0 LINE",
"116 0 LINE",
"116 151 LINE",
"216 243 LINE",
"428 0 LINE",
"471 0 LINE",
"239 265 LINE",
"474 483 LINE",
"431 483 LINE",
"116 189 LINE",
"116 667 LINE",
"86 667 LINE"
);
}
);
width = 496;
},
{
anchors = (
{
name = bottom;
position = "{279, 0}";
},
{
name = top;
position = "{279, 483}";
}
);
layerId = "043C55D1-ADA8-4506-BB55-8127E14D1A36";
paths = (
{
closed = 1;
nodes = (
"50 0 LINE",
"230 0 LINE",
"230 109 LINE",
"265 156 LINE",
"348 0 LINE",
"569 0 LINE",
"392 263 LINE",
"558 483 LINE",
"341 483 LINE",
"230 311 LINE",
"230 667 LINE",
"50 667 LINE"
);
}
);
width = 557;
},
{
anchors = (
{
name = bottom;
position = "{197, 0}";
},
{
name = top;
position = "{299, 483}";
}
);
layerId = "A3F0DF3F-6E5C-40C3-B5F9-213A49682D58";
paths = (
{
closed = 1;
nodes = (
"35 0 LINE",
"65 0 LINE",
"97 151 LINE",
"216 243 LINE",
"377 0 LINE",
"420 0 LINE",
"244 265 LINE",
"525 483 LINE",
"482 483 LINE",
"105 189 LINE",
"206 667 LINE",
"176 667 LINE"
);
}
);
width = 496;
},
{
anchors = (
{
name = bottom;
position = "{228, 0}";
},
{
name = top;
position = "{330, 483}";
}
);
layerId = "C7F6927E-AE81-4ED8-A250-E7EE5BA9BBA4";
paths = (
{
closed = 1;
nodes = (
"-1 0 LINE",
"179 0 LINE",
"202 109 LINE",
"247 156 LINE",
"297 0 LINE",
"518 0 LINE",
"397 263 LINE",
"609 483 LINE",
"392 483 LINE",
"245 311 LINE",
"320 667 LINE",
"140 667 LINE"
);
}
);
width = 557;
},
{
anchors = (
{
name = bottom;
position = "{248, 0}";
},
{
name = top;
position = "{248, 483}";
}
);
associatedMasterId = "C74BD54B-DC3B-4084-AB10-E48D432FD11D";
layerId = "C904C5FD-088D-4660-AED1-28B1A7BC3F9F";
paths = (
{
closed = 1;
nodes = (
"86 0 LINE",
"116 0 LINE",
"116 151 LINE",
"216 243 LINE",
"428 0 LINE",
"471 0 LINE",
"239 265 LINE",
"474 483 LINE",
"431 483 LINE",
"116 189 LINE",
"116 667 LINE",
"86 667 LINE"
);
}
);
width = 496;
}
);
note = k;
rightKerningGroup = k;
unicode = 006B;
},
{
glyphname = l;
lastChange = "2017-11-16 17:22:43 +0000";
layers = (
{
anchors = (
{
name = bottom;
position = "{133, 0}";
},
{
name = center;
position = "{133, 242}";
},
{
name = top;
position = "{94, 667}";
},
{
name = topright;
position = "{226, 483}";
}
);
layerId = "C74BD54B-DC3B-4084-AB10-E48D432FD11D";
paths = (
{
closed = 1;
nodes = (
"80 97 LINE SMOOTH",
"80 32 OFFCURVE",
"107 0 OFFCURVE",
"162 0 CURVE SMOOTH",
"206 0 LINE",
"206 27 LINE",
"162 27 LINE SMOOTH",
"127 27 OFFCURVE",
"110 50 OFFCURVE",
"110 97 CURVE SMOOTH",
"110 667 LINE",
"80 667 LINE"
);
}
);
width = 216;
},
{
anchors = (
{
name = bottom;
position = "{179, 0}";
},
{
name = center;
position = "{179, 242}";
},
{
name = top;
position = "{128, 667}";
},
{
name = topright;
position = "{220, 667}";
}
);
layerId = "043C55D1-ADA8-4506-BB55-8127E14D1A36";
paths = (
{
closed = 1;
nodes = (
"40 152 LINE SMOOTH",
"40 51 OFFCURVE",
"99 0 OFFCURVE",
"206 0 CURVE SMOOTH",
"318 0 LINE",
"318 159 LINE",
"260 159 LINE SMOOTH",
"236 159 OFFCURVE",
"220 179 OFFCURVE",
"220 204 CURVE SMOOTH",
"220 667 LINE",
"40 667 LINE"
);
}
);
width = 318;
},
{
anchors = (
{
name = bottom;
position = "{62, 0}";
},
{
name = center;
position = "{113, 242}";
},
{
name = top;
position = "{164, 667}";
},
{
name = topright;
position = "{257, 483}";
}
);
layerId = "A3F0DF3F-6E5C-40C3-B5F9-213A49682D58";
paths = (
{
closed = 1;
nodes = (
"29 97 LINE SMOOTH",
"15 32 OFFCURVE",
"35 0 OFFCURVE",
"90 0 CURVE SMOOTH",
"134 0 LINE",
"140 27 LINE",
"96 27 LINE SMOOTH",
"61 27 OFFCURVE",
"49 50 OFFCURVE",
"59 97 CURVE SMOOTH",
"180 667 LINE",
"150 667 LINE"
);
}
);
width = 226;
},
{
anchors = (
{
name = bottom;
position = "{128, 0}";
},
{
name = center;
position = "{179, 242}";
},
{
name = top;
position = "{218, 667}";
},
{
name = topright;
position = "{310, 667}";
}
);
layerId = "C7F6927E-AE81-4ED8-A250-E7EE5BA9BBA4";
paths = (
{
closed = 1;
nodes = (
"20 152 LINE SMOOTH",
"-2 51 OFFCURVE",
"47 0 OFFCURVE",
"154 0 CURVE SMOOTH",
"266 0 LINE",
"300 159 LINE",
"242 159 LINE SMOOTH",
"218 159 OFFCURVE",
"206 179 OFFCURVE",
"211 204 CURVE SMOOTH",
"310 667 LINE",
"130 667 LINE"
);
}
);
width = 358;
},
{
anchors = (
{
name = bottom;
position = "{113, 0}";
},
{
name = center;
position = "{113, 242}";
},
{
name = top;
position = "{74, 667}";
},
{
name = topright;
position = "{206, 483}";
}
);
associatedMasterId = "C74BD54B-DC3B-4084-AB10-E48D432FD11D";
layerId = "C904C5FD-088D-4660-AED1-28B1A7BC3F9F";
paths = (
{
closed = 1;
nodes = (
"60 85 LINE SMOOTH",
"60 20 OFFCURVE",
"87 -12 OFFCURVE",
"142 -12 CURVE SMOOTH",
"186 -12 LINE",
"186 15 LINE",
"142 15 LINE SMOOTH",
"107 15 OFFCURVE",
"90 38 OFFCURVE",
"90 85 CURVE SMOOTH",
"90 667 LINE",
"60 667 LINE"
);
}
);
width = 226;
}
);
leftKerningGroup = A;
note = l;
rightKerningGroup = i;
unicode = 006C;
},
{
glyphname = m;
lastChange = "2017-11-11 22:13:35 +0000";
layers = (
{
layerId = "C74BD54B-DC3B-4084-AB10-E48D432FD11D";
paths = (
{
closed = 1;
nodes = (
"86 0 LINE",
"116 0 LINE",
"116 348 LINE",
"116 428 OFFCURVE",
"213 468 OFFCURVE",
"266 468 CURVE SMOOTH",
"335 468 OFFCURVE",
"370 428 OFFCURVE",
"370 348 CURVE SMOOTH",
"370 0 LINE",
"400 0 LINE",
"400 348 LINE",
"400 428 OFFCURVE",
"497 468 OFFCURVE",
"550 468 CURVE SMOOTH",
"619 468 OFFCURVE",
"654 428 OFFCURVE",
"654 348 CURVE SMOOTH",
"654 0 LINE",
"684 0 LINE",
"684 348 LINE SMOOTH",
"684 446 OFFCURVE",
"636 495 OFFCURVE",
"550 495 CURVE SMOOTH",
"486 495 OFFCURVE",
"417 462 OFFCURVE",
"396 410 CURVE",
"379 458 OFFCURVE",
"337 495 OFFCURVE",
"266 495 CURVE SMOOTH",
"203 495 OFFCURVE",
"147 462 OFFCURVE",
"116 422 CURVE",
"116 483 LINE",
"86 483 LINE"
);
}
);
width = 770;
},
{
layerId = "043C55D1-ADA8-4506-BB55-8127E14D1A36";
paths = (
{
closed = 1;
nodes = (
"50 0 LINE",
"230 0 LINE",
"230 282 LINE",
"230 311 OFFCURVE",
"264 336 OFFCURVE",
"303 336 CURVE SMOOTH",
"344 336 OFFCURVE",
"358 311 OFFCURVE",
"358 282 CURVE SMOOTH",
"358 0 LINE",
"538 0 LINE",
"538 282 LINE",
"538 311 OFFCURVE",
"572 336 OFFCURVE",
"612 336 CURVE SMOOTH",
"652 336 OFFCURVE",
"667 311 OFFCURVE",
"667 282 CURVE SMOOTH",
"667 0 LINE",
"847 0 LINE",
"847 350 LINE SMOOTH",
"847 450 OFFCURVE",
"787 495 OFFCURVE",
"698 495 CURVE SMOOTH",
"620 495 OFFCURVE",
"563 466 OFFCURVE",
"529 424 CURVE",
"502 476 OFFCURVE",
"458 495 OFFCURVE",
"390 495 CURVE SMOOTH",
"312 495 OFFCURVE",
"251 473 OFFCURVE",
"230 446 CURVE",
"230 483 LINE",
"50 483 LINE"
);
}
);
width = 897;
},
{
layerId = "A3F0DF3F-6E5C-40C3-B5F9-213A49682D58";
paths = (
{
closed = 1;
nodes = (
"35 0 LINE",
"65 0 LINE",
"139 348 LINE",
"156 428 OFFCURVE",
"261 468 OFFCURVE",
"314 468 CURVE SMOOTH",
"383 468 OFFCURVE",
"410 428 OFFCURVE",
"393 348 CURVE SMOOTH",
"319 0 LINE",
"349 0 LINE",
"423 348 LINE",
"440 428 OFFCURVE",
"545 468 OFFCURVE",
"598 468 CURVE SMOOTH",
"667 468 OFFCURVE",
"694 428 OFFCURVE",
"677 348 CURVE SMOOTH",
"603 0 LINE",
"633 0 LINE",
"707 348 LINE SMOOTH",
"727 446 OFFCURVE",
"690 495 OFFCURVE",
"604 495 CURVE SMOOTH",
"540 495 OFFCURVE",
"464 462 OFFCURVE",
"432 410 CURVE",
"425 458 OFFCURVE",
"391 495 OFFCURVE",
"320 495 CURVE SMOOTH",
"257 495 OFFCURVE",
"194 462 OFFCURVE",
"154 422 CURVE",
"167 483 LINE",
"137 483 LINE"
);
}
);
width = 770;
},
{
layerId = "C7F6927E-AE81-4ED8-A250-E7EE5BA9BBA4";
paths = (
{
closed = 1;
nodes = (
"-1 0 LINE",
"179 0 LINE",
"239 282 LINE",
"245 311 OFFCURVE",
"284 336 OFFCURVE",
"323 336 CURVE SMOOTH",
"364 336 OFFCURVE",
"373 311 OFFCURVE",
"367 282 CURVE SMOOTH",
"307 0 LINE",
"487 0 LINE",
"547 282 LINE",
"553 311 OFFCURVE",
"592 336 OFFCURVE",
"632 336 CURVE SMOOTH",
"672 336 OFFCURVE",
"682 311 OFFCURVE",
"676 282 CURVE SMOOTH",
"616 0 LINE",
"796 0 LINE",
"870 350 LINE SMOOTH",
"891 450 OFFCURVE",
"841 495 OFFCURVE",
"752 495 CURVE SMOOTH",
"674 495 OFFCURVE",
"611 466 OFFCURVE",
"568 424 CURVE",
"552 476 OFFCURVE",
"512 495 OFFCURVE",
"444 495 CURVE SMOOTH",
"366 495 OFFCURVE",
"300 473 OFFCURVE",
"273 446 CURVE",
"281 483 LINE",
"101 483 LINE"
);
}
);
width = 897;
},
{
associatedMasterId = "C74BD54B-DC3B-4084-AB10-E48D432FD11D";
layerId = "C904C5FD-088D-4660-AED1-28B1A7BC3F9F";
paths = (
{
closed = 1;
nodes = (
"86 0 LINE",
"116 0 LINE",
"116 348 LINE",
"116 428 OFFCURVE",
"213 468 OFFCURVE",
"266 468 CURVE SMOOTH",
"335 468 OFFCURVE",
"370 428 OFFCURVE",
"370 348 CURVE SMOOTH",
"370 0 LINE",
"400 0 LINE",
"400 348 LINE",
"400 428 OFFCURVE",
"497 468 OFFCURVE",
"550 468 CURVE SMOOTH",
"619 468 OFFCURVE",
"654 428 OFFCURVE",
"654 348 CURVE SMOOTH",
"654 0 LINE",
"684 0 LINE",
"684 348 LINE SMOOTH",
"684 446 OFFCURVE",
"636 495 OFFCURVE",
"550 495 CURVE SMOOTH",
"486 495 OFFCURVE",
"417 462 OFFCURVE",
"396 410 CURVE",
"379 458 OFFCURVE",
"337 495 OFFCURVE",
"266 495 CURVE SMOOTH",
"203 495 OFFCURVE",
"147 462 OFFCURVE",
"116 422 CURVE",
"116 483 LINE",
"86 483 LINE"
);
}
);
width = 770;
}
);
leftKerningGroup = m;
note = m;
rightKerningGroup = a;
unicode = 006D;
},
{
glyphname = n;
lastChange = "2017-11-15 02:15:36 +0000";
layers = (
{
anchors = (
{
name = bottom;
position = "{264, 0}";
},
{
name = top;
position = "{264, 483}";
}
);
layerId = "C74BD54B-DC3B-4084-AB10-E48D432FD11D";
paths = (
{
closed = 1;
nodes = (
"86 0 LINE",
"116 0 LINE",
"116 333 LINE",
"116 436 OFFCURVE",
"223 468 OFFCURVE",
"287 468 CURVE SMOOTH",
"368 468 OFFCURVE",
"412 433 OFFCURVE",
"412 337 CURVE SMOOTH",
"412 0 LINE",
"442 0 LINE",
"442 337 LINE SMOOTH",
"442 448 OFFCURVE",
"391 495 OFFCURVE",
"291 495 CURVE SMOOTH",
"227 495 OFFCURVE",
"151 480 OFFCURVE",
"116 419 CURVE",
"116 483 LINE",
"86 483 LINE"
);
}
);
width = 528;
},
{
anchors = (
{
name = bottom;
position = "{304, 0}";
},
{
name = top;
position = "{304, 483}";
}
);
layerId = "043C55D1-ADA8-4506-BB55-8127E14D1A36";
paths = (
{
closed = 1;
nodes = (
"50 0 LINE",
"230 0 LINE",
"230 267 LINE",
"230 306 OFFCURVE",
"266 336 OFFCURVE",
"307 336 CURVE SMOOTH",
"350 336 OFFCURVE",
"377 317 OFFCURVE",
"377 267 CURVE SMOOTH",
"377 0 LINE",
"557 0 LINE",
"557 343 LINE SMOOTH",
"557 427 OFFCURVE",
"508 495 OFFCURVE",
"396 495 CURVE SMOOTH",
"311 495 OFFCURVE",
"258 460 OFFCURVE",
"230 428 CURVE",
"230 483 LINE",
"50 483 LINE"
);
}
);
width = 607;
},
{
anchors = (
{
name = bottom;
position = "{213, 0}";
},
{
name = top;
position = "{315, 483}";
}
);
layerId = "A3F0DF3F-6E5C-40C3-B5F9-213A49682D58";
paths = (
{
closed = 1;
nodes = (
"35 0 LINE",
"65 0 LINE",
"135 333 LINE",
"157 436 OFFCURVE",
"271 468 OFFCURVE",
"335 468 CURVE SMOOTH",
"416 468 OFFCURVE",
"453 433 OFFCURVE",
"432 337 CURVE SMOOTH",
"361 0 LINE",
"391 0 LINE",
"462 337 LINE SMOOTH",
"486 448 OFFCURVE",
"445 495 OFFCURVE",
"345 495 CURVE SMOOTH",
"281 495 OFFCURVE",
"202 480 OFFCURVE",
"154 419 CURVE",
"167 483 LINE",
"137 483 LINE"
);
}
);
width = 528;
},
{
anchors = (
{
name = bottom;
position = "{253, 0}";
},
{
name = top;
position = "{355, 483}";
}
);
layerId = "C7F6927E-AE81-4ED8-A250-E7EE5BA9BBA4";
paths = (
{
closed = 1;
nodes = (
"-1 0 LINE",
"179 0 LINE",
"235 267 LINE",
"244 306 OFFCURVE",
"286 336 OFFCURVE",
"327 336 CURVE SMOOTH",
"370 336 OFFCURVE",
"393 317 OFFCURVE",
"382 267 CURVE SMOOTH",
"326 0 LINE",
"506 0 LINE",
"579 343 LINE SMOOTH",
"596 427 OFFCURVE",
"562 495 OFFCURVE",
"450 495 CURVE SMOOTH",
"365 495 OFFCURVE",
"304 460 OFFCURVE",
"270 428 CURVE",
"281 483 LINE",
"101 483 LINE"
);
}
);
width = 607;
},
{
anchors = (
{
name = bottom;
position = "{264, 0}";
},
{
name = top;
position = "{264, 483}";
}
);
associatedMasterId = "C74BD54B-DC3B-4084-AB10-E48D432FD11D";
layerId = "C904C5FD-088D-4660-AED1-28B1A7BC3F9F";
paths = (
{
closed = 1;
nodes = (
"86 0 LINE",
"116 0 LINE",
"116 333 LINE",
"116 436 OFFCURVE",
"223 468 OFFCURVE",
"287 468 CURVE SMOOTH",
"368 468 OFFCURVE",
"412 433 OFFCURVE",
"412 337 CURVE SMOOTH",
"412 0 LINE",
"442 0 LINE",
"442 337 LINE SMOOTH",
"442 448 OFFCURVE",
"391 495 OFFCURVE",
"291 495 CURVE SMOOTH",
"227 495 OFFCURVE",
"151 480 OFFCURVE",
"116 419 CURVE",
"116 483 LINE",
"86 483 LINE"
);
}
);
width = 528;
}
);
leftKerningGroup = m;
note = n;
rightKerningGroup = a;
unicode = 006E;
},
{
glyphname = eng;
lastChange = "2017-11-16 16:54:24 +0000";
layers = (
{
components = (
{
name = n;
}
);
layerId = "C74BD54B-DC3B-4084-AB10-E48D432FD11D";
paths = (
{
closed = 1;
nodes = (
"412 346 LINE",
"412 -26 LINE SMOOTH",
"412 -73 OFFCURVE",
"396 -96 OFFCURVE",
"360 -96 CURVE SMOOTH",
"316 -96 LINE",
"316 -123 LINE",
"360 -123 LINE SMOOTH",
"415 -123 OFFCURVE",
"442 -91 OFFCURVE",
"442 -26 CURVE SMOOTH",
"442 346 LINE"
);
}
);
width = 528;
},
{
components = (
{
name = n;
}
);
layerId = "043C55D1-ADA8-4506-BB55-8127E14D1A36";
paths = (
{
closed = 1;
nodes = (
"375 334 LINE",
"379 -1 LINE SMOOTH",
"379 -26 OFFCURVE",
"363 -46 OFFCURVE",
"339 -46 CURVE SMOOTH",
"261 -46 LINE",
"261 -205 LINE",
"373 -205 LINE SMOOTH",
"480 -205 OFFCURVE",
"555 -154 OFFCURVE",
"555 -53 CURVE SMOOTH",
"555 334 LINE"
);
}
);
width = 607;
},
{
components = (
{
name = n;
}
);
layerId = "A3F0DF3F-6E5C-40C3-B5F9-213A49682D58";
paths = (
{
closed = 1;
nodes = (
"434 346 LINE",
"355 -26 LINE SMOOTH",
"345 -73 OFFCURVE",
"324 -96 OFFCURVE",
"288 -96 CURVE SMOOTH",
"244 -96 LINE",
"239 -123 LINE",
"283 -123 LINE SMOOTH",
"338 -123 OFFCURVE",
"371 -91 OFFCURVE",
"385 -26 CURVE SMOOTH",
"464 346 LINE"
);
}
);
width = 528;
},
{
components = (
{
name = n;
}
);
layerId = "C7F6927E-AE81-4ED8-A250-E7EE5BA9BBA4";
paths = (
{
closed = 1;
nodes = (
"395 334 LINE",
"327 -1 LINE SMOOTH",
"322 -26 OFFCURVE",
"302 -46 OFFCURVE",
"278 -46 CURVE SMOOTH",
"200 -46 LINE",
"166 -205 LINE",
"278 -205 LINE SMOOTH",
"385 -205 OFFCURVE",
"471 -154 OFFCURVE",
"492 -53 CURVE SMOOTH",
"575 334 LINE"
);
}
);
width = 607;
},
{
associatedMasterId = "C74BD54B-DC3B-4084-AB10-E48D432FD11D";
components = (
{
name = n;
}
);
layerId = "C904C5FD-088D-4660-AED1-28B1A7BC3F9F";
paths = (
{
closed = 1;
nodes = (
"412 346 LINE",
"412 -26 LINE SMOOTH",
"412 -73 OFFCURVE",
"396 -96 OFFCURVE",
"360 -96 CURVE SMOOTH",
"316 -96 LINE",
"316 -123 LINE",
"360 -123 LINE SMOOTH",
"415 -123 OFFCURVE",
"442 -91 OFFCURVE",
"442 -26 CURVE SMOOTH",
"442 346 LINE"
);
}
);
width = 528;
}
);
unicode = 014B;
},
{
glyphname = o;
lastChange = "2017-11-16 18:48:43 +0000";
layers = (
{
anchors = (
{
name = bottom;
position = "{285, 0}";
},
{
name = center;
position = "{285, 242}";
},
{
name = ogonek;
position = "{513, 10}";
},
{
name = top;
position = "{285, 483}";
},
{
name = topright;
position = "{550, 483}";
}
);
layerId = "C74BD54B-DC3B-4084-AB10-E48D432FD11D";
paths = (
{
closed = 1;
nodes = (
"420 -12 OFFCURVE",
"510 97 OFFCURVE",
"510 242 CURVE SMOOTH",
"510 387 OFFCURVE",
"420 495 OFFCURVE",
"285 495 CURVE SMOOTH",
"152 495 OFFCURVE",
"60 386 OFFCURVE",
"60 242 CURVE SMOOTH",
"60 97 OFFCURVE",
"152 -12 OFFCURVE",
"285 -12 CURVE SMOOTH"
);
},
{
closed = 1;
nodes = (
"168 15 OFFCURVE",
"93 117 OFFCURVE",
"93 242 CURVE SMOOTH",
"93 366 OFFCURVE",
"168 468 OFFCURVE",
"285 468 CURVE SMOOTH",
"404 468 OFFCURVE",
"477 366 OFFCURVE",
"477 242 CURVE SMOOTH",
"477 117 OFFCURVE",
"404 15 OFFCURVE",
"285 15 CURVE SMOOTH"
);
}
);
width = 570;
},
{
anchors = (
{
name = bottom;
position = "{289, 0}";
},
{
name = center;
position = "{289, 242}";
},
{
name = ogonek;
position = "{519, 10}";
},
{
name = top;
position = "{289, 483}";
},
{
name = topright;
position = "{557, 483}";
}
);
layerId = "043C55D1-ADA8-4506-BB55-8127E14D1A36";
paths = (
{
closed = 1;
nodes = (
"460 -12 OFFCURVE",
"560 107 OFFCURVE",
"560 242 CURVE SMOOTH",
"560 377 OFFCURVE",
"460 495 OFFCURVE",
"288 495 CURVE SMOOTH",
"117 495 OFFCURVE",
"17 377 OFFCURVE",
"17 242 CURVE SMOOTH",
"17 107 OFFCURVE",
"117 -12 OFFCURVE",
"288 -12 CURVE SMOOTH"
);
},
{
closed = 1;
nodes = (
"233 147 OFFCURVE",
"202 188 OFFCURVE",
"202 242 CURVE SMOOTH",
"202 295 OFFCURVE",
"233 336 OFFCURVE",
"288 336 CURVE SMOOTH",
"344 336 OFFCURVE",
"375 295 OFFCURVE",
"375 242 CURVE SMOOTH",
"375 188 OFFCURVE",
"344 147 OFFCURVE",
"288 147 CURVE SMOOTH"
);
}
);
width = 577;
},
{
anchors = (
{
name = bottom;
position = "{234, 0}";
},
{
name = center;
position = "{285, 242}";
},
{
name = ogonek;
position = "{464, 10}";
},
{
name = top;
position = "{336, 483}";
},
{
name = topright;
position = "{601, 483}";
}
);
layerId = "A3F0DF3F-6E5C-40C3-B5F9-213A49682D58";
paths = (
{
closed = 1;
nodes = (
"366 -12 OFFCURVE",
"479 97 OFFCURVE",
"510 242 CURVE SMOOTH",
"541 387 OFFCURVE",
"474 495 OFFCURVE",
"339 495 CURVE SMOOTH",
"206 495 OFFCURVE",
"91 386 OFFCURVE",
"60 242 CURVE SMOOTH",
"29 97 OFFCURVE",
"98 -12 OFFCURVE",
"231 -12 CURVE SMOOTH"
);
},
{
closed = 1;
nodes = (
"120 15 OFFCURVE",
"67 117 OFFCURVE",
"93 242 CURVE SMOOTH",
"119 366 OFFCURVE",
"216 468 OFFCURVE",
"333 468 CURVE SMOOTH",
"452 468 OFFCURVE",
"503 366 OFFCURVE",
"477 242 CURVE SMOOTH",
"451 117 OFFCURVE",
"356 15 OFFCURVE",
"237 15 CURVE SMOOTH"
);
}
);
width = 570;
},
{
anchors = (
{
name = bottom;
position = "{238, 0}";
},
{
name = center;
position = "{289, 242}";
},
{
name = ogonek;
position = "{470, 10}";
},
{
name = top;
position = "{340, 483}";
},
{
name = topright;
position = "{608, 483}";
}
);
layerId = "C7F6927E-AE81-4ED8-A250-E7EE5BA9BBA4";
paths = (
{
closed = 1;
nodes = (
"406 -12 OFFCURVE",
"531 107 OFFCURVE",
"560 242 CURVE SMOOTH",
"589 377 OFFCURVE",
"514 495 OFFCURVE",
"342 495 CURVE SMOOTH",
"171 495 OFFCURVE",
"46 377 OFFCURVE",
"17 242 CURVE SMOOTH",
"-12 107 OFFCURVE",
"63 -12 OFFCURVE",
"234 -12 CURVE SMOOTH"
);
},
{
closed = 1;
nodes = (
"213 147 OFFCURVE",
"191 188 OFFCURVE",
"202 242 CURVE SMOOTH",
"213 295 OFFCURVE",
"253 336 OFFCURVE",
"308 336 CURVE SMOOTH",
"364 336 OFFCURVE",
"386 295 OFFCURVE",
"375 242 CURVE SMOOTH",
"364 188 OFFCURVE",
"324 147 OFFCURVE",
"268 147 CURVE SMOOTH"
);
}
);
width = 577;
},
{
anchors = (
{
name = bottom;
position = "{285, 0}";
},
{
name = center;
position = "{285, 242}";
},
{
name = ogonek;
position = "{513, 10}";
},
{
name = top;
position = "{285, 483}";
},
{
name = topright;
position = "{550, 483}";
}
);
associatedMasterId = "C74BD54B-DC3B-4084-AB10-E48D432FD11D";
layerId = "C904C5FD-088D-4660-AED1-28B1A7BC3F9F";
paths = (
{
closed = 1;
nodes = (
"420 -12 OFFCURVE",
"510 97 OFFCURVE",
"510 242 CURVE SMOOTH",
"510 387 OFFCURVE",
"420 495 OFFCURVE",
"285 495 CURVE SMOOTH",
"152 495 OFFCURVE",
"60 386 OFFCURVE",
"60 242 CURVE SMOOTH",
"60 97 OFFCURVE",
"152 -12 OFFCURVE",
"285 -12 CURVE SMOOTH"
);
},
{
closed = 1;
nodes = (
"168 15 OFFCURVE",
"93 117 OFFCURVE",
"93 242 CURVE SMOOTH",
"93 366 OFFCURVE",
"168 468 OFFCURVE",
"285 468 CURVE SMOOTH",
"404 468 OFFCURVE",
"477 366 OFFCURVE",
"477 242 CURVE SMOOTH",
"477 117 OFFCURVE",
"404 15 OFFCURVE",
"285 15 CURVE SMOOTH"
);
}
);
width = 570;
}
);
leftKerningGroup = c;
note = o;
rightKerningGroup = o;
unicode = 006F;
},
{
glyphname = oe;
lastChange = "2017-11-16 16:54:26 +0000";
layers = (
{
components = (
{
name = o;
}
);
layerId = "C74BD54B-DC3B-4084-AB10-E48D432FD11D";
paths = (
{
closed = 1;
nodes = (
"835 42 OFFCURVE",
"784 20 OFFCURVE",
"717 20 CURVE SMOOTH",
"597 20 OFFCURVE",
"517 109 OFFCURVE",
"514 232 CURVE",
"931 232 LINE",
"931 242 LINE SMOOTH",
"931 385 OFFCURVE",
"848 495 OFFCURVE",
"707 495 CURVE SMOOTH",
"578 495 OFFCURVE",
"480 388 OFFCURVE",
"480 242 CURVE SMOOTH",
"480 94 OFFCURVE",
"577 -12 OFFCURVE",
"717 -12 CURVE SMOOTH",
"789 -12 OFFCURVE",
"851 15 OFFCURVE",
"903 69 CURVE",
"880 91 LINE"
);
},
{
closed = 1;
nodes = (
"514 264 LINE",
"518 363 OFFCURVE",
"590 468 OFFCURVE",
"706 468 CURVE SMOOTH",
"821 468 OFFCURVE",
"899 378 OFFCURVE",
"899 264 CURVE"
);
}
);
width = 991;
},
{
components = (
{
name = o;
}
);
layerId = "043C55D1-ADA8-4506-BB55-8127E14D1A36";
paths = (
{
closed = 1;
nodes = (
"744 138 OFFCURVE",
"684 125 OFFCURVE",
"657 125 CURVE SMOOTH",
"598 125 OFFCURVE",
"563 155 OFFCURVE",
"553 186 CURVE",
"881 186 LINE",
"881 223 LINE SMOOTH",
"881 393 OFFCURVE",
"772 495 OFFCURVE",
"630 495 CURVE SMOOTH",
"474 495 OFFCURVE",
"385 382 OFFCURVE",
"385 242 CURVE SMOOTH",
"385 83 OFFCURVE",
"485 -12 OFFCURVE",
"636 -12 CURVE SMOOTH",
"708 -12 OFFCURVE",
"794 7 OFFCURVE",
"842 48 CURVE",
"768 159 LINE"
);
},
{
closed = 1;
nodes = (
"551 300 LINE",
"557 322 OFFCURVE",
"575 358 OFFCURVE",
"630 358 CURVE SMOOTH",
"688 358 OFFCURVE",
"705 321 OFFCURVE",
"710 300 CURVE"
);
}
);
width = 898;
},
{
components = (
{
name = o;
transform = "{1, 0, 0.21256, 1, -51, 0}";
}
);
layerId = "A3F0DF3F-6E5C-40C3-B5F9-213A49682D58";
paths = (
{
closed = 1;
nodes = (
"793 42 OFFCURVE",
"737 20 OFFCURVE",
"670 20 CURVE SMOOTH",
"550 20 OFFCURVE",
"489 109 OFFCURVE",
"512 232 CURVE",
"929 232 LINE",
"931 242 LINE SMOOTH",
"962 385 OFFCURVE",
"902 495 OFFCURVE",
"761 495 CURVE SMOOTH",
"632 495 OFFCURVE",
"511 388 OFFCURVE",
"480 242 CURVE SMOOTH",
"449 94 OFFCURVE",
"523 -12 OFFCURVE",
"663 -12 CURVE SMOOTH",
"735 -12 OFFCURVE",
"803 15 OFFCURVE",
"866 69 CURVE",
"848 91 LINE"
);
},
{
closed = 1;
nodes = (
"519 264 LINE",
"544 363 OFFCURVE",
"638 468 OFFCURVE",
"754 468 CURVE SMOOTH",
"869 468 OFFCURVE",
"928 378 OFFCURVE",
"904 264 CURVE"
);
}
);
width = 991;
},
{
components = (
{
name = o;
}
);
layerId = "C7F6927E-AE81-4ED8-A250-E7EE5BA9BBA4";
paths = (
{
closed = 1;
nodes = (
"722 138 OFFCURVE",
"659 125 OFFCURVE",
"632 125 CURVE SMOOTH",
"573 125 OFFCURVE",
"545 155 OFFCURVE",
"541 186 CURVE",
"869 186 LINE",
"877 223 LINE SMOOTH",
"913 393 OFFCURVE",
"826 495 OFFCURVE",
"684 495 CURVE SMOOTH",
"528 495 OFFCURVE",
"415 382 OFFCURVE",
"385 242 CURVE SMOOTH",
"351 83 OFFCURVE",
"431 -12 OFFCURVE",
"582 -12 CURVE SMOOTH",
"654 -12 OFFCURVE",
"744 7 OFFCURVE",
"801 48 CURVE",
"750 159 LINE"
);
},
{
closed = 1;
nodes = (
"563 300 LINE",
"574 322 OFFCURVE",
"600 358 OFFCURVE",
"655 358 CURVE SMOOTH",
"713 358 OFFCURVE",
"722 321 OFFCURVE",
"722 300 CURVE"
);
}
);
width = 898;
},
{
associatedMasterId = "C74BD54B-DC3B-4084-AB10-E48D432FD11D";
components = (
{
name = o;
}
);
layerId = "C904C5FD-088D-4660-AED1-28B1A7BC3F9F";
paths = (
{
closed = 1;
nodes = (
"835 42 OFFCURVE",
"784 20 OFFCURVE",
"717 20 CURVE SMOOTH",
"597 20 OFFCURVE",
"517 109 OFFCURVE",
"514 232 CURVE",
"931 232 LINE",
"931 242 LINE SMOOTH",
"931 385 OFFCURVE",
"848 495 OFFCURVE",
"707 495 CURVE SMOOTH",
"578 495 OFFCURVE",
"480 388 OFFCURVE",
"480 242 CURVE SMOOTH",
"480 94 OFFCURVE",
"577 -12 OFFCURVE",
"717 -12 CURVE SMOOTH",
"789 -12 OFFCURVE",
"851 15 OFFCURVE",
"903 69 CURVE",
"880 91 LINE"
);
},
{
closed = 1;
nodes = (
"514 264 LINE",
"518 363 OFFCURVE",
"590 468 OFFCURVE",
"706 468 CURVE SMOOTH",
"821 468 OFFCURVE",
"899 378 OFFCURVE",
"899 264 CURVE"
);
}
);
width = 991;
}
);
unicode = 0153;
},
{
glyphname = p;
lastChange = "2017-11-11 22:13:35 +0000";
layers = (
{
layerId = "C74BD54B-DC3B-4084-AB10-E48D432FD11D";
paths = (
{
closed = 1;
nodes = (
"419 -12 OFFCURVE",
"506 90 OFFCURVE",
"506 242 CURVE SMOOTH",
"506 395 OFFCURVE",
"421 495 OFFCURVE",
"290 495 CURVE SMOOTH",
"218 495 OFFCURVE",
"151 455 OFFCURVE",
"116 402 CURVE",
"116 483 LINE",
"86 483 LINE",
"86 -184 LINE",
"116 -184 LINE",
"116 83 LINE",
"151 15 OFFCURVE",
"219 -12 OFFCURVE",
"290 -12 CURVE SMOOTH"
);
},
{
closed = 1;
nodes = (
"218 15 OFFCURVE",
"116 51 OFFCURVE",
"116 182 CURVE",
"116 311 LINE",
"116 398 OFFCURVE",
"218 468 OFFCURVE",
"290 468 CURVE SMOOTH",
"405 468 OFFCURVE",
"473 374 OFFCURVE",
"473 242 CURVE SMOOTH",
"473 110 OFFCURVE",
"405 15 OFFCURVE",
"290 15 CURVE SMOOTH"
);
}
);
width = 562;
},
{
layerId = "043C55D1-ADA8-4506-BB55-8127E14D1A36";
paths = (
{
closed = 1;
nodes = (
"486 -12 OFFCURVE",
"578 76 OFFCURVE",
"578 242 CURVE SMOOTH",
"578 407 OFFCURVE",
"486 495 OFFCURVE",
"366 495 CURVE SMOOTH",
"316 495 OFFCURVE",
"269 478 OFFCURVE",
"230 432 CURVE",
"230 483 LINE",
"50 483 LINE",
"50 -184 LINE",
"230 -184 LINE",
"230 51 LINE",
"270 5 OFFCURVE",
"316 -12 OFFCURVE",
"366 -12 CURVE SMOOTH"
);
},
{
closed = 1;
nodes = (
"281 147 OFFCURVE",
"230 168 OFFCURVE",
"230 246 CURVE",
"230 246 LINE",
"230 315 OFFCURVE",
"281 336 OFFCURVE",
"304 336 CURVE SMOOTH",
"352 336 OFFCURVE",
"394 302 OFFCURVE",
"394 242 CURVE SMOOTH",
"394 181 OFFCURVE",
"352 147 OFFCURVE",
"304 147 CURVE SMOOTH"
);
}
);
width = 595;
},
{
layerId = "A3F0DF3F-6E5C-40C3-B5F9-213A49682D58";
paths = (
{
closed = 1;
nodes = (
"365 -12 OFFCURVE",
"474 90 OFFCURVE",
"506 242 CURVE SMOOTH",
"539 395 OFFCURVE",
"475 495 OFFCURVE",
"344 495 CURVE SMOOTH",
"272 495 OFFCURVE",
"196 455 OFFCURVE",
"150 402 CURVE",
"167 483 LINE",
"137 483 LINE",
"-4 -184 LINE",
"26 -184 LINE",
"82 83 LINE",
"103 15 OFFCURVE",
"165 -12 OFFCURVE",
"236 -12 CURVE SMOOTH"
);
},
{
closed = 1;
nodes = (
"170 15 OFFCURVE",
"76 51 OFFCURVE",
"103 182 CURVE",
"131 311 LINE",
"149 398 OFFCURVE",
"266 468 OFFCURVE",
"338 468 CURVE SMOOTH",
"453 468 OFFCURVE",
"501 374 OFFCURVE",
"473 242 CURVE SMOOTH",
"445 110 OFFCURVE",
"357 15 OFFCURVE",
"242 15 CURVE SMOOTH"
);
}
);
width = 562;
},
{
layerId = "C7F6927E-AE81-4ED8-A250-E7EE5BA9BBA4";
paths = (
{
closed = 1;
nodes = (
"432 -12 OFFCURVE",
"543 76 OFFCURVE",
"578 242 CURVE SMOOTH",
"613 407 OFFCURVE",
"540 495 OFFCURVE",
"420 495 CURVE SMOOTH",
"370 495 OFFCURVE",
"319 478 OFFCURVE",
"270 432 CURVE",
"281 483 LINE",
"101 483 LINE",
"-40 -184 LINE",
"140 -184 LINE",
"190 51 LINE",
"220 5 OFFCURVE",
"262 -12 OFFCURVE",
"312 -12 CURVE SMOOTH"
);
},
{
closed = 1;
nodes = (
"261 147 OFFCURVE",
"214 168 OFFCURVE",
"231 246 CURVE",
"231 246 LINE",
"246 315 OFFCURVE",
"301 336 OFFCURVE",
"324 336 CURVE SMOOTH",
"372 336 OFFCURVE",
"407 302 OFFCURVE",
"394 242 CURVE SMOOTH",
"381 181 OFFCURVE",
"332 147 OFFCURVE",
"284 147 CURVE SMOOTH"
);
}
);
width = 595;
},
{
associatedMasterId = "C74BD54B-DC3B-4084-AB10-E48D432FD11D";
layerId = "C904C5FD-088D-4660-AED1-28B1A7BC3F9F";
paths = (
{
closed = 1;
nodes = (
"419 -12 OFFCURVE",
"506 90 OFFCURVE",
"506 242 CURVE SMOOTH",
"506 395 OFFCURVE",
"421 495 OFFCURVE",
"290 495 CURVE SMOOTH",
"218 495 OFFCURVE",
"151 455 OFFCURVE",
"116 402 CURVE",
"116 483 LINE",
"86 483 LINE",
"86 -184 LINE",
"116 -184 LINE",
"116 83 LINE",
"151 15 OFFCURVE",
"219 -12 OFFCURVE",
"290 -12 CURVE SMOOTH"
);
},
{
closed = 1;
nodes = (
"218 15 OFFCURVE",
"116 51 OFFCURVE",
"116 182 CURVE",
"116 311 LINE",
"116 398 OFFCURVE",
"218 468 OFFCURVE",
"290 468 CURVE SMOOTH",
"405 468 OFFCURVE",
"473 374 OFFCURVE",
"473 242 CURVE SMOOTH",
"473 110 OFFCURVE",
"405 15 OFFCURVE",
"290 15 CURVE SMOOTH"
);
}
);
width = 562;
}
);
leftKerningGroup = m;
note = p;
rightKerningGroup = b;
unicode = 0070;
},
{
glyphname = thorn;
lastChange = "2017-11-11 22:13:35 +0000";
layers = (
{
layerId = "C74BD54B-DC3B-4084-AB10-E48D432FD11D";
paths = (
{
closed = 1;
nodes = (
"419 -12 OFFCURVE",
"506 90 OFFCURVE",
"506 242 CURVE SMOOTH",
"506 395 OFFCURVE",
"421 495 OFFCURVE",
"290 495 CURVE SMOOTH",
"218 495 OFFCURVE",
"151 455 OFFCURVE",
"116 402 CURVE",
"116 723 LINE",
"86 723 LINE",
"86 -184 LINE",
"116 -184 LINE",
"116 83 LINE",
"151 15 OFFCURVE",
"219 -12 OFFCURVE",
"290 -12 CURVE SMOOTH"
);
},
{
closed = 1;
nodes = (
"218 15 OFFCURVE",
"116 51 OFFCURVE",
"116 182 CURVE",
"116 311 LINE",
"116 398 OFFCURVE",
"218 468 OFFCURVE",
"290 468 CURVE SMOOTH",
"405 468 OFFCURVE",
"473 374 OFFCURVE",
"473 242 CURVE SMOOTH",
"473 110 OFFCURVE",
"405 15 OFFCURVE",
"290 15 CURVE SMOOTH"
);
}
);
width = 562;
},
{
layerId = "043C55D1-ADA8-4506-BB55-8127E14D1A36";
paths = (
{
closed = 1;
nodes = (
"486 -12 OFFCURVE",
"578 76 OFFCURVE",
"578 242 CURVE SMOOTH",
"578 407 OFFCURVE",
"486 495 OFFCURVE",
"366 495 CURVE SMOOTH",
"316 495 OFFCURVE",
"269 478 OFFCURVE",
"230 432 CURVE",
"230 720 LINE",
"50 720 LINE",
"50 -184 LINE",
"230 -184 LINE",
"230 51 LINE",
"270 5 OFFCURVE",
"316 -12 OFFCURVE",
"366 -12 CURVE SMOOTH"
);
},
{
closed = 1;
nodes = (
"281 147 OFFCURVE",
"230 168 OFFCURVE",
"230 246 CURVE",
"230 246 LINE",
"230 315 OFFCURVE",
"281 336 OFFCURVE",
"304 336 CURVE SMOOTH",
"352 336 OFFCURVE",
"394 302 OFFCURVE",
"394 242 CURVE SMOOTH",
"394 181 OFFCURVE",
"352 147 OFFCURVE",
"304 147 CURVE SMOOTH"
);
}
);
width = 595;
},
{
layerId = "A3F0DF3F-6E5C-40C3-B5F9-213A49682D58";
paths = (
{
closed = 1;
nodes = (
"365 -12 OFFCURVE",
"474 90 OFFCURVE",
"506 242 CURVE SMOOTH",
"539 395 OFFCURVE",
"475 495 OFFCURVE",
"344 495 CURVE SMOOTH",
"272 495 OFFCURVE",
"196 455 OFFCURVE",
"150 402 CURVE",
"218 723 LINE",
"188 723 LINE",
"-4 -184 LINE",
"26 -184 LINE",
"82 83 LINE",
"103 15 OFFCURVE",
"165 -12 OFFCURVE",
"236 -12 CURVE SMOOTH"
);
},
{
closed = 1;
nodes = (
"170 15 OFFCURVE",
"76 51 OFFCURVE",
"103 182 CURVE",
"131 311 LINE",
"149 398 OFFCURVE",
"266 468 OFFCURVE",
"338 468 CURVE SMOOTH",
"453 468 OFFCURVE",
"501 374 OFFCURVE",
"473 242 CURVE SMOOTH",
"445 110 OFFCURVE",
"357 15 OFFCURVE",
"242 15 CURVE SMOOTH"
);
}
);
width = 562;
},
{
layerId = "C7F6927E-AE81-4ED8-A250-E7EE5BA9BBA4";
paths = (
{
closed = 1;
nodes = (
"432 -12 OFFCURVE",
"543 76 OFFCURVE",
"578 242 CURVE SMOOTH",
"613 407 OFFCURVE",
"540 495 OFFCURVE",
"420 495 CURVE SMOOTH",
"370 495 OFFCURVE",
"319 478 OFFCURVE",
"270 432 CURVE",
"332 720 LINE",
"152 720 LINE",
"-40 -184 LINE",
"140 -184 LINE",
"190 51 LINE",
"220 5 OFFCURVE",
"262 -12 OFFCURVE",
"312 -12 CURVE SMOOTH"
);
},
{
closed = 1;
nodes = (
"261 147 OFFCURVE",
"214 168 OFFCURVE",
"231 246 CURVE",
"231 246 LINE",
"246 315 OFFCURVE",
"301 336 OFFCURVE",
"324 336 CURVE SMOOTH",
"372 336 OFFCURVE",
"407 302 OFFCURVE",
"394 242 CURVE SMOOTH",
"381 181 OFFCURVE",
"332 147 OFFCURVE",
"284 147 CURVE SMOOTH"
);
}
);
width = 595;
},
{
associatedMasterId = "C74BD54B-DC3B-4084-AB10-E48D432FD11D";
layerId = "C904C5FD-088D-4660-AED1-28B1A7BC3F9F";
paths = (
{
closed = 1;
nodes = (
"419 -12 OFFCURVE",
"506 90 OFFCURVE",
"506 242 CURVE SMOOTH",
"506 395 OFFCURVE",
"421 495 OFFCURVE",
"290 495 CURVE SMOOTH",
"218 495 OFFCURVE",
"151 455 OFFCURVE",
"116 402 CURVE",
"116 723 LINE",
"86 723 LINE",
"86 -184 LINE",
"116 -184 LINE",
"116 83 LINE",
"151 15 OFFCURVE",
"219 -12 OFFCURVE",
"290 -12 CURVE SMOOTH"
);
},
{
closed = 1;
nodes = (
"218 15 OFFCURVE",
"116 51 OFFCURVE",
"116 182 CURVE",
"116 311 LINE",
"116 398 OFFCURVE",
"218 468 OFFCURVE",
"290 468 CURVE SMOOTH",
"405 468 OFFCURVE",
"473 374 OFFCURVE",
"473 242 CURVE SMOOTH",
"473 110 OFFCURVE",
"405 15 OFFCURVE",
"290 15 CURVE SMOOTH"
);
}
);
width = 562;
}
);
leftKerningGroup = m;
note = p;
rightKerningGroup = b;
unicode = 00FE;
},
{
glyphname = q;
lastChange = "2017-11-11 22:13:35 +0000";
layers = (
{
layerId = "C74BD54B-DC3B-4084-AB10-E48D432FD11D";
paths = (
{
closed = 1;
nodes = (
"343 -12 OFFCURVE",
"411 15 OFFCURVE",
"446 83 CURVE",
"446 -184 LINE",
"476 -184 LINE",
"476 483 LINE",
"446 483 LINE",
"446 402 LINE",
"417 465 OFFCURVE",
"344 495 OFFCURVE",
"272 495 CURVE SMOOTH",
"141 495 OFFCURVE",
"56 395 OFFCURVE",
"56 242 CURVE SMOOTH",
"56 90 OFFCURVE",
"143 -12 OFFCURVE",
"272 -12 CURVE SMOOTH"
);
},
{
closed = 1;
nodes = (
"157 15 OFFCURVE",
"89 110 OFFCURVE",
"89 242 CURVE SMOOTH",
"89 374 OFFCURVE",
"157 468 OFFCURVE",
"272 468 CURVE SMOOTH",
"344 468 OFFCURVE",
"446 407 OFFCURVE",
"446 328 CURVE",
"446 171 LINE",
"446 69 OFFCURVE",
"344 15 OFFCURVE",
"272 15 CURVE SMOOTH"
);
}
);
width = 562;
},
{
layerId = "043C55D1-ADA8-4506-BB55-8127E14D1A36";
paths = (
{
closed = 1;
nodes = (
"279 -12 OFFCURVE",
"325 5 OFFCURVE",
"365 51 CURVE",
"365 -184 LINE",
"545 -184 LINE",
"545 483 LINE",
"365 483 LINE",
"365 432 LINE",
"326 478 OFFCURVE",
"279 495 OFFCURVE",
"229 495 CURVE SMOOTH",
"109 495 OFFCURVE",
"17 407 OFFCURVE",
"17 242 CURVE SMOOTH",
"17 76 OFFCURVE",
"109 -12 OFFCURVE",
"229 -12 CURVE SMOOTH"
);
},
{
closed = 1;
nodes = (
"243 147 OFFCURVE",
"201 181 OFFCURVE",
"201 242 CURVE SMOOTH",
"201 302 OFFCURVE",
"243 336 OFFCURVE",
"291 336 CURVE SMOOTH",
"314 336 OFFCURVE",
"365 315 OFFCURVE",
"365 246 CURVE",
"365 246 LINE",
"365 168 OFFCURVE",
"314 147 OFFCURVE",
"291 147 CURVE SMOOTH"
);
}
);
width = 595;
},
{
layerId = "A3F0DF3F-6E5C-40C3-B5F9-213A49682D58";
paths = (
{
closed = 1;
nodes = (
"289 -12 OFFCURVE",
"363 15 OFFCURVE",
"412 83 CURVE",
"356 -184 LINE",
"386 -184 LINE",
"527 483 LINE",
"497 483 LINE",
"480 402 LINE",
"465 465 OFFCURVE",
"398 495 OFFCURVE",
"326 495 CURVE SMOOTH",
"195 495 OFFCURVE",
"89 395 OFFCURVE",
"56 242 CURVE SMOOTH",
"24 90 OFFCURVE",
"89 -12 OFFCURVE",
"218 -12 CURVE SMOOTH"
);
},
{
closed = 1;
nodes = (
"109 15 OFFCURVE",
"61 110 OFFCURVE",
"89 242 CURVE SMOOTH",
"117 374 OFFCURVE",
"205 468 OFFCURVE",
"320 468 CURVE SMOOTH",
"392 468 OFFCURVE",
"481 407 OFFCURVE",
"464 328 CURVE",
"431 171 LINE",
"409 69 OFFCURVE",
"296 15 OFFCURVE",
"224 15 CURVE SMOOTH"
);
}
);
width = 562;
},
{
layerId = "C7F6927E-AE81-4ED8-A250-E7EE5BA9BBA4";
paths = (
{
closed = 1;
nodes = (
"225 -12 OFFCURVE",
"275 5 OFFCURVE",
"325 51 CURVE",
"275 -184 LINE",
"455 -184 LINE",
"596 483 LINE",
"416 483 LINE",
"405 432 LINE",
"376 478 OFFCURVE",
"333 495 OFFCURVE",
"283 495 CURVE SMOOTH",
"163 495 OFFCURVE",
"52 407 OFFCURVE",
"17 242 CURVE SMOOTH",
"-18 76 OFFCURVE",
"55 -12 OFFCURVE",
"175 -12 CURVE SMOOTH"
);
},
{
closed = 1;
nodes = (
"223 147 OFFCURVE",
"188 181 OFFCURVE",
"201 242 CURVE SMOOTH",
"214 302 OFFCURVE",
"263 336 OFFCURVE",
"311 336 CURVE SMOOTH",
"334 336 OFFCURVE",
"381 315 OFFCURVE",
"366 246 CURVE",
"366 246 LINE",
"349 168 OFFCURVE",
"294 147 OFFCURVE",
"271 147 CURVE SMOOTH"
);
}
);
width = 595;
},
{
associatedMasterId = "C74BD54B-DC3B-4084-AB10-E48D432FD11D";
layerId = "C904C5FD-088D-4660-AED1-28B1A7BC3F9F";
paths = (
{
closed = 1;
nodes = (
"343 -12 OFFCURVE",
"411 15 OFFCURVE",
"446 83 CURVE",
"446 -184 LINE",
"476 -184 LINE",
"476 483 LINE",
"446 483 LINE",
"446 402 LINE",
"417 465 OFFCURVE",
"344 495 OFFCURVE",
"272 495 CURVE SMOOTH",
"141 495 OFFCURVE",
"56 395 OFFCURVE",
"56 242 CURVE SMOOTH",
"56 90 OFFCURVE",
"143 -12 OFFCURVE",
"272 -12 CURVE SMOOTH"
);
},
{
closed = 1;
nodes = (
"157 15 OFFCURVE",
"89 110 OFFCURVE",
"89 242 CURVE SMOOTH",
"89 374 OFFCURVE",
"157 468 OFFCURVE",
"272 468 CURVE SMOOTH",
"344 468 OFFCURVE",
"446 407 OFFCURVE",
"446 328 CURVE",
"446 171 LINE",
"446 69 OFFCURVE",
"344 15 OFFCURVE",
"272 15 CURVE SMOOTH"
);
}
);
width = 562;
}
);
leftKerningGroup = c;
note = q;
rightKerningGroup = g;
unicode = 0071;
},
{
glyphname = r;
lastChange = "2017-11-15 02:07:11 +0000";
layers = (
{
anchors = (
{
name = bottom;
position = "{152, 0}";
},
{
name = top;
position = "{152, 483}";
}
);
layerId = "C74BD54B-DC3B-4084-AB10-E48D432FD11D";
paths = (
{
closed = 1;
nodes = (
"86 0 LINE",
"116 0 LINE",
"116 362 LINE",
"116 409 OFFCURVE",
"209 457 OFFCURVE",
"258 457 CURVE SMOOTH",
"268 457 OFFCURVE",
"276 457 OFFCURVE",
"282 456 CURVE",
"282 492 LINE",
"220 492 OFFCURVE",
"157 474 OFFCURVE",
"116 418 CURVE",
"116 483 LINE",
"86 483 LINE"
);
}
);
width = 304;
},
{
anchors = (
{
name = bottom;
position = "{195, 0}";
},
{
name = top;
position = "{195, 483}";
}
);
layerId = "043C55D1-ADA8-4506-BB55-8127E14D1A36";
paths = (
{
closed = 1;
nodes = (
"50 0 LINE",
"230 0 LINE",
"230 278 LINE",
"230 317 OFFCURVE",
"299 330 OFFCURVE",
"337 330 CURVE SMOOTH",
"354 330 OFFCURVE",
"369 328 OFFCURVE",
"378 325 CURVE",
"378 497 LINE",
"323 497 OFFCURVE",
"260 465 OFFCURVE",
"230 430 CURVE",
"230 483 LINE",
"50 483 LINE"
);
}
);
width = 390;
},
{
anchors = (
{
name = bottom;
position = "{101, 0}";
},
{
name = top;
position = "{203, 483}";
}
);
layerId = "A3F0DF3F-6E5C-40C3-B5F9-213A49682D58";
paths = (
{
closed = 1;
nodes = (
"35 0 LINE",
"65 0 LINE",
"142 362 LINE",
"152 409 OFFCURVE",
"255 457 OFFCURVE",
"304 457 CURVE SMOOTH",
"314 457 OFFCURVE",
"322 457 OFFCURVE",
"328 456 CURVE",
"335 492 LINE",
"273 492 OFFCURVE",
"206 474 OFFCURVE",
"154 418 CURVE",
"167 483 LINE",
"137 483 LINE"
);
}
);
width = 304;
},
{
anchors = (
{
name = bottom;
position = "{144, 0}";
},
{
name = top;
position = "{246, 483}";
}
);
layerId = "C7F6927E-AE81-4ED8-A250-E7EE5BA9BBA4";
paths = (
{
closed = 1;
nodes = (
"-1 0 LINE",
"179 0 LINE",
"238 278 LINE",
"246 317 OFFCURVE",
"318 330 OFFCURVE",
"356 330 CURVE SMOOTH",
"373 330 OFFCURVE",
"387 328 OFFCURVE",
"396 325 CURVE",
"432 497 LINE",
"377 497 OFFCURVE",
"308 465 OFFCURVE",
"270 430 CURVE",
"281 483 LINE",
"101 483 LINE"
);
}
);
width = 390;
},
{
anchors = (
{
name = bottom;
position = "{152, 0}";
},
{
name = top;
position = "{152, 483}";
}
);
associatedMasterId = "C74BD54B-DC3B-4084-AB10-E48D432FD11D";
layerId = "C904C5FD-088D-4660-AED1-28B1A7BC3F9F";
paths = (
{
closed = 1;
nodes = (
"86 0 LINE",
"116 0 LINE",
"116 362 LINE",
"116 409 OFFCURVE",
"209 457 OFFCURVE",
"258 457 CURVE SMOOTH",
"268 457 OFFCURVE",
"276 457 OFFCURVE",
"282 456 CURVE",
"282 492 LINE",
"220 492 OFFCURVE",
"157 474 OFFCURVE",
"116 418 CURVE",
"116 483 LINE",
"86 483 LINE"
);
}
);
width = 304;
}
);
leftKerningGroup = m;
note = r;
rightKerningGroup = a;
unicode = 0072;
},
{
glyphname = s;
lastChange = "2017-11-11 22:13:35 +0000";
layers = (
{
anchors = (
{
name = bottom;
position = "{227, 0}";
},
{
name = top;
position = "{227, 483}";
}
);
layerId = "C74BD54B-DC3B-4084-AB10-E48D432FD11D";
paths = (
{
closed = 1;
nodes = (
"346 471 OFFCURVE",
"291 495 OFFCURVE",
"218 495 CURVE SMOOTH",
"117 495 OFFCURVE",
"54 440 OFFCURVE",
"54 367 CURVE SMOOTH",
"54 199 OFFCURVE",
"364 276 OFFCURVE",
"364 127 CURVE SMOOTH",
"364 62 OFFCURVE",
"308 15 OFFCURVE",
"221 15 CURVE SMOOTH",
"155 15 OFFCURVE",
"104 39 OFFCURVE",
"68 87 CURVE",
"44 65 LINE",
"89 14 OFFCURVE",
"148 -12 OFFCURVE",
"221 -12 CURVE SMOOTH",
"333 -12 OFFCURVE",
"394 47 OFFCURVE",
"394 127 CURVE SMOOTH",
"394 300 OFFCURVE",
"84 224 OFFCURVE",
"84 367 CURVE SMOOTH",
"84 426 OFFCURVE",
"135 468 OFFCURVE",
"218 468 CURVE SMOOTH",
"283 468 OFFCURVE",
"331 446 OFFCURVE",
"362 402 CURVE",
"384 422 LINE"
);
}
);
width = 454;
},
{
anchors = (
{
name = bottom;
position = "{245, 0}";
},
{
name = top;
position = "{245, 483}";
}
);
layerId = "043C55D1-ADA8-4506-BB55-8127E14D1A36";
paths = (
{
closed = 1;
nodes = (
"398 470 OFFCURVE",
"326 495 OFFCURVE",
"245 495 CURVE SMOOTH",
"105 495 OFFCURVE",
"29 419 OFFCURVE",
"29 332 CURVE SMOOTH",
"29 130 OFFCURVE",
"303 189 OFFCURVE",
"303 143 CURVE SMOOTH",
"303 131 OFFCURVE",
"292 122 OFFCURVE",
"255 122 CURVE SMOOTH",
"201 122 OFFCURVE",
"119 153 OFFCURVE",
"81 183 CURVE",
"9 62 LINE",
"61 19 OFFCURVE",
"157 -12 OFFCURVE",
"246 -12 CURVE SMOOTH",
"389 -12 OFFCURVE",
"475 58 OFFCURVE",
"475 154 CURVE SMOOTH",
"475 355 OFFCURVE",
"201 305 OFFCURVE",
"201 345 CURVE SMOOTH",
"201 358 OFFCURVE",
"220 366 OFFCURVE",
"246 366 CURVE SMOOTH",
"302 366 OFFCURVE",
"358 341 OFFCURVE",
"388 316 CURVE",
"454 433 LINE"
);
}
);
width = 490;
},
{
anchors = (
{
name = bottom;
position = "{176, 0}";
},
{
name = top;
position = "{278, 483}";
}
);
layerId = "A3F0DF3F-6E5C-40C3-B5F9-213A49682D58";
paths = (
{
closed = 1;
nodes = (
"395 471 OFFCURVE",
"345 495 OFFCURVE",
"272 495 CURVE SMOOTH",
"171 495 OFFCURVE",
"96 440 OFFCURVE",
"81 367 CURVE SMOOTH",
"45 199 OFFCURVE",
"371 276 OFFCURVE",
"340 127 CURVE SMOOTH",
"326 62 OFFCURVE",
"260 15 OFFCURVE",
"173 15 CURVE SMOOTH",
"107 15 OFFCURVE",
"61 39 OFFCURVE",
"35 87 CURVE",
"6 65 LINE",
"41 14 OFFCURVE",
"94 -12 OFFCURVE",
"167 -12 CURVE SMOOTH",
"279 -12 OFFCURVE",
"353 47 OFFCURVE",
"370 127 CURVE SMOOTH",
"406 300 OFFCURVE",
"80 224 OFFCURVE",
"111 367 CURVE SMOOTH",
"123 426 OFFCURVE",
"183 468 OFFCURVE",
"266 468 CURVE SMOOTH",
"331 468 OFFCURVE",
"374 446 OFFCURVE",
"396 402 CURVE",
"422 422 LINE"
);
}
);
width = 454;
},
{
anchors = (
{
name = bottom;
position = "{194, 0}";
},
{
name = top;
position = "{296, 483}";
}
);
layerId = "C7F6927E-AE81-4ED8-A250-E7EE5BA9BBA4";
paths = (
{
closed = 1;
nodes = (
"447 470 OFFCURVE",
"380 495 OFFCURVE",
"299 495 CURVE SMOOTH",
"159 495 OFFCURVE",
"67 419 OFFCURVE",
"48 332 CURVE SMOOTH",
"5 130 OFFCURVE",
"292 189 OFFCURVE",
"282 143 CURVE SMOOTH",
"280 131 OFFCURVE",
"267 122 OFFCURVE",
"230 122 CURVE SMOOTH",
"176 122 OFFCURVE",
"100 153 OFFCURVE",
"69 183 CURVE",
"-29 62 LINE",
"14 19 OFFCURVE",
"103 -12 OFFCURVE",
"192 -12 CURVE SMOOTH",
"335 -12 OFFCURVE",
"436 58 OFFCURVE",
"456 154 CURVE SMOOTH",
"499 355 OFFCURVE",
"214 305 OFFCURVE",
"223 345 CURVE SMOOTH",
"226 358 OFFCURVE",
"246 366 OFFCURVE",
"272 366 CURVE SMOOTH",
"328 366 OFFCURVE",
"379 341 OFFCURVE",
"404 316 CURVE",
"495 433 LINE"
);
}
);
width = 490;
},
{
anchors = (
{
name = bottom;
position = "{227, 0}";
},
{
name = top;
position = "{227, 483}";
}
);
associatedMasterId = "C74BD54B-DC3B-4084-AB10-E48D432FD11D";
layerId = "C904C5FD-088D-4660-AED1-28B1A7BC3F9F";
paths = (
{
closed = 1;
nodes = (
"346 471 OFFCURVE",
"291 495 OFFCURVE",
"218 495 CURVE SMOOTH",
"117 495 OFFCURVE",
"54 440 OFFCURVE",
"54 367 CURVE SMOOTH",
"54 199 OFFCURVE",
"364 276 OFFCURVE",
"364 127 CURVE SMOOTH",
"364 62 OFFCURVE",
"308 15 OFFCURVE",
"221 15 CURVE SMOOTH",
"155 15 OFFCURVE",
"104 39 OFFCURVE",
"68 87 CURVE",
"44 65 LINE",
"89 14 OFFCURVE",
"148 -12 OFFCURVE",
"221 -12 CURVE SMOOTH",
"333 -12 OFFCURVE",
"394 47 OFFCURVE",
"394 127 CURVE SMOOTH",
"394 300 OFFCURVE",
"84 224 OFFCURVE",
"84 367 CURVE SMOOTH",
"84 426 OFFCURVE",
"135 468 OFFCURVE",
"218 468 CURVE SMOOTH",
"283 468 OFFCURVE",
"331 446 OFFCURVE",
"362 402 CURVE",
"384 422 LINE"
);
}
);
width = 454;
}
);
leftKerningGroup = s;
note = s;
rightKerningGroup = s;
unicode = 0073;
},
